<mxfile host="app.diagrams.net" agent="Mozilla/5.0 (X11; Ubuntu; Linux x86_64; rv:142.0) Gecko/20100101 Firefox/142.0" version="28.1.2">
  <diagram name="Page-1" id="CF9uQ2N-ytONHcCzkyAS">
    <mxGraphModel grid="1" page="1" gridSize="10" guides="1" tooltips="1" connect="1" arrows="1" fold="1" pageScale="1" pageWidth="850" pageHeight="1100" math="0" shadow="0">
      <root>
        <mxCell id="0" />
        <mxCell id="1" parent="0" />
        <mxCell id="LtpZXM9xmSWKar8uXynZ-1" value="" style="rounded=0;whiteSpace=wrap;html=1;dashed=1;strokeColor=light-dark(#3CD2D8,#EDEDED);strokeWidth=2;" vertex="1" parent="1">
          <mxGeometry x="270" y="250" width="460" height="330" as="geometry" />
        </mxCell>
        <mxCell id="LtpZXM9xmSWKar8uXynZ-76" value="" style="rounded=0;whiteSpace=wrap;html=1;dashed=1;strokeColor=light-dark(#000000,#EDEDED);strokeWidth=2;" vertex="1" parent="1">
          <mxGeometry x="560" y="502" width="160" height="70" as="geometry" />
        </mxCell>
        <mxCell id="LtpZXM9xmSWKar8uXynZ-3" value="" style="shape=image;verticalLabelPosition=bottom;labelBackgroundColor=default;verticalAlign=top;aspect=fixed;imageAspect=0;image=data:image/png,iVBORw0KGgoAAAANSUhEUgAAAK4AAACoCAIAAAD2N0KkAAAACXBIWXMAAA7EAAAOxAGVKw4bAAAcaElEQVR4nO2daXhUZZqw76qklqyQhYQmJIQIAcImggv2p+PYSl8XatvYOiQQ2bOiY6PMiEJDSEJCg9rTjmKLc3U739gz2HbbfmhLO8oSdgigqICyJiEhqez7Vqk634/zVpbaUomRqorn/pWcU+fUW3XuOu/2PO9RSZKEggKo3V0ABU9BUUFBoKigIFBUUBAoKigIFBUUBIoKCgJFBQWBr7sLYI3ZbK6rqzMajSEhITqdzt3F+QHhWSo0Nja+8847e/fubWtrmzx58ooVK6ZNm+buQv1QUHnOwLPRaPz973+/Y8cOs9ksb5k4ceIbb7wRGRnp3oL9QPCgtkJDQ8OePXu6PQCuXLny+eefu7FIQ44kSa2tra2trZ7zC+zGgyqIpqamurq63lvMZvP169fdVZ4hp6Gh4f333z906BBw3333LViwICgoyN2F6sGDVJAkqfctYZhRVVW1ZcuWvXv3yv8WFhZevXr1xRdf1Gq17i1YNx5UQQxjqqqqcnJyuj2Q2b17d2lpqbuKZIuiwvdOdXV1Tk7O/v37rbYbjcbKykq3FMkuHlRBDEvq6urWr19/9OhR213BwcExMTE3v0iOUFRwhtFo/Oqrr0pLS+Pi4hISEtTqgd1Ea2pqNmzYYNcDID093aP6yYoKDikrK3vllVcOHDjQ1dWl0+kefvjhtWvX+vv7u3i4wWDIzc09cuSI7S6NRrNkyZKFCxf6+PgMaZG/E0pbwT5FRUUbNmz49NNPOzs7zWZzW1vb7t279+zZ4+LhZWVlOTk5Bw8etB0/0Gg0K1asyMjI8Jy+g4yigh3Kyso2b958+vTp3heyo6Pj1KlTrhxuMBjy8vIOHTpkt2+8atWqlJQUD5xeUSoIa8rKyjZu3GjlgYyfn1+/h1dUVGzZsuXw4cO2HqjVatkDjUYzZMUdOhQV+lBUVJSTk1NYWGjrQVhY2Lx585wfXlpaun379oMHD9p6oNPpkpOT09LSPNMDFBV6U1xcbFsvyAQFBa1cuXLOnDlODi8tLf31r39tt17Q6/XJycnp6eme1j7ojaKCoKSkJCsry25rIDg4OC0tbeHChb6+Dr+usrIy2QOTyWS1y8/Pb/HixWlpaR7YPuiNogJARUXFpk2b7HoQFBSUlpaWmJjo5Ad948aN/Px8u/cD2YPU1FS9Xj/EhR5qFBUwmUw7d+6060FgYGB6erpzDyoqKhz1F+R6ISUlxZX2pttRVKCjo8N2ggAIDAxMTU1NSkpy0tCT+412xw/0en1SUpJX3A9kFBVQqVSdnZ1WGwMCAlJTU5OTk514UFlZmZube+DAAdtdsgeZmZne4gHKEBOg0WjuvPPO3lsCAgLS0tIG7YGfn5/XeYByVwB8fX3XrFlTXV197tw5s9kcHh6ekpKyYMEC5x5kZ2cXFBTY7pLHD7yoXuhGUQEgOjp6586dZ86caWpqSkhIiI6OdvLiqqqq3NxcRx4sWrTI8/uNdlFUEOj1+rvvvrvflzm5H2g0mqVLl6ampnqjBygqDAiDwbB582Y5TtUKjUazcuXKlJQUTx5PdI6igquUl5fn5OQMVw9QVHCR8vLy3Nzcw4cP2+7SaDSrVq1auXKlV3uAooIr3LhxIy8v7/Dhw3bjUGQPvLR90BtFhX4oKytzNL8wnDxAUcE5TuadtVrtihUrVq1a5e31QjfDWYWOjo4zZ86Ul5fHxsZOnz59oDEjNTU1+fn5R44csfXAx8fnySef9PZ2ohXDVgWDwZCfn3/48OGOjo6AgID58+evWbPG9RzFysrKnJwcu3FpOp1OHlceTh4wXOcgDAbD888/v2/fvo6ODqClpeWDDz745JNPXDy8qqpKHj9wNO+8evXqYeYBw1KFsrKydevWWcWlGY3GL774wpXDKyoqNm/efPjwYdt4JJ1Ot2TJkvT0dK+bX3CF4VZBlJaWZmdn241DcaWdX1FRkZ+f7yj+YPHixSkpKcPSA4aZCqWlpTk5OceOHbPdFRIScv/99zs/XI5DOXDggF0PFi1aNFzvBzLDR4WSkpK8vDy7CYpBQUHLly+/4447nBxuMBi2bNliN5zJ399/4cKFGRkZw9gDho0KxcXFOTk5J06csN0VGBiYkZGRmJjYb/zBwYMHbXf5+/snJyevWrVqeHvA8FChuLg4Ozv75MmTtrv8/f0zMzMH7YGfn58cpzrsPWAYqFBSUuLIAz8/v6eeeiopKclJ/oLzeKQlS5b8EO4HMt6tQmVlZVZWVmFhoe0utVr9y1/+0nniekNDw8aNG+3mvatUqmXLlg0iz7WxsfHkyZMtLS1z5syJiooa0LHuxYtVKCkpcZTHotVqn3322cTERCeLYxgMhuzsbEfrH6xatWoQ8wv79+9/6aWXSkpKgBEjRqxevTopKWlAZ3Aj3jrEVFFRsXHjRrseqFSqtWvXLlq0yIkHNTU1mzZtsts+AFJSUgbhwcGDB7OysmQPgIaGhjfeeOP8+fMDOokb8UoVysvLX3jhhdOnT9vu8vX1XbduXWJiokqlcnR4dXX1r371K7v3AyAzM3PFihUD9aCgoGDTpk21tbW9NzY2NhYVFQ3oPG7E+yqIioqK9evX2/VAo9HI9YITDyorK+VxZbt7ZQ8G2j4oKCjIysqqrq622q5Wq70iRU7G+1R48803T506ZTsgqNPpnnnmmaSkJOftAzk+0e66upmZmYOISysoKNi8ebOtB8DEiRNnzJgxoLO5ES9Toba29ujRo3bXQ3n66aeTkpKc9Bfk9VDseqBSqdLT0wftQVVVle2u2NjYdevWhYWFDeiEbsTLVDCbzbYTx8HBwSkpKYmJiU7GD5ysh6LX6+U4lIHGtuzdu3fLli12PZg4ceKLL744a9asAZ3QvXhZszE0NPT222/vXQXIea6LFy92Pp64devWgoICux7I62AMyANJko4dO+bofjB+/PgNGzbMnj3b9RN6Al52V1Cr1RkZGQ0NDcePHzcajREREatWrXrsscecXMiampqsrKyjR4/axh/4+vrK6yMNqJ0oSVJhYeG6deus1qmXiY6Ozs7OnjlzppOmq2fiZSoA0dHRW7duvXTpUmtra1RU1Lhx45y0E6urq7OysuzGJ+r1+oULF6anpw/IA7PZfOLEifXr11v1G2ViY2M3bdp06623un5Cz8H7VACCgoJuu+22fl9WXl4utxNtPZDnGwc6rmw2m/fv3++ofTBhwoSNGzd6qQd4qQqu0J3PZNeDJ598cuXKlQOaZ5I9yMvLs+vBLbfcInvgdfVCN8NTBXn8wG4+U7cHAxr86fbA7rL9cXFxmzdvnjFjhvd6wLBUQR5PtJvnKnsw0Hln5x6MHz8+Nzd32rRpXu0Bw08FOf7Argd+fn6D8+DAgQOO2gcxMTH5+flTp04dfIk9hmGlgpM4FL1ev3Tp0oG2DyRJctJOjI6O3r59e0JCwuBL7EkMHxWcxyMtX758EHmu+/bty83NtTu/MHbs2JdffnnKlCmDLK7nMUxUkONQ7MYfaLXalStXDmJ+Ye/evY48iI6OfuWVVyZPnjzI4nokw0GFiooKR+0DrVabkpIyiPiDzz77LDc3t6amxnbXuHHjtm/fPsw8wOvmIGyR18WxG3+g1WpTU1MH4cGnn366ZcsWux7ExcVt27ZtONUL3Xj3XUF+fqPd8QMgNTV12bJlg4hLy8vLc1Qv5OfnD5t2ohVerIKTcSRg9erVy5cvH6gH169f37Ztm10PYmJitm7dOlw9wHtVKC0t3bZtm904FHk9lEHUC8C+ffvsPgU7Pj5+w4YN06dPH2RxvQGvVEFeRsPufKO8ru6g10NpaGiwPWdcXNyGDRu8d57JRbyv2Sivh3LkyBHb+AM5DuW7PLdv5syZVmNQ8vyCV88zuYiXqSCvh2J3HQzZg8zMzO+yXtrcuXMfe+wx+bmivr6+06ZN89I4lEHgTRVEdXX1pk2bHMWhLF68eKBxKLZotdo1a9bcd99958+fDw8Pv/vuu0eNGvVdTuhFeI0K8jqadj3w9/dfsmTJQOcXHKHX6+fOnTt37tzvfirvwjtUcPIcz6H14IeMF6hQUVHhKI9F8WAI8XQVqqurHc0vKB4MLZ6uwkcffdTY2Gi73c/Pb+nSpStWrFA8GCo8XQUnHgybdbY9BE9XwRadTrds2TLFgyHH+1QYZuutew5epsKjjz56zz33XLt2zd0FGRpCQ0PDw8M9ZCjTy1T429/+9vHHH7u7FEOGSqWaMmXK+vXrPSEWxstU6OrqcncRhpizZ89mZWW9+uqrkZGR7i2Jl01HDUu+/fbbS5cuubsUnqSCXq8PCAhwdyncgCRJRqPR3aXwJBXCwsKmTZvm7lK4gdGjR8fFxbm7FJ6kgk6ny8jImDlzprsLclMJCwvLyMhw/hTsm4PKboyoG6mpqfnqq68MBoO7C3IzCAwMnDJlSmxsrJPVQm4aHqeCgrtwv4wKHoKigoJAUUFBoKigIFBUUBAoKigIFBUUBIoKCgJFBQWBooKCQFFBQaCooCBQVFAQKCooCBQVFASKCgoCRQUFgaKCgkBRQUGgqKAgUFRQECgqKAj6SZ890Uh5J8D0AG6xeQLb+RYutgFM8meK//dRvCHG0Mmxvqu4aFUE+zLZn/CBPY96kDSZ2FsHEKdnRuDNeEfX6UeFgnqevwLwRAR/snlWVsZFDtYDfDxjyFS43Mazl/nDZMK+h2tT2MSCr+xsV8HD4bweT/QAF3IZaGmL20UBVkfxWvzA3uv7pp8KYlEkahXAR9U0911Kt6KTww0AEVoeDB2a0rxWytSTfFjNTU7TkeDDau44xfWOARzlrtJ+T/Sjwlgd944AaDOzu+9DEt6vwiwBLIzAd4iWDTlQT6f1Gp3fC8mRXL+b4rmcv5N3pzI9AKCikxUXBnCSm1bam0P/S20kj+ZAPcC7lSzqtRrEe5bHbyb32ijB32ooqKfdzEQ/Hh/FGJtb7ukmPq6hopNRGuYE81AYskj/baC4Xbxml4EQDYt7nflCK7urud5OkC9zg3koDJ9e/u2qpN3MBD9u8eP1UowSvxjFHcEOP1SAD2MtBZviz4OhTDmBoZPP6viimVsttXhxO+9Xcb0Do0SEhgdCmDtC7HJS2hON7K2jvBONimgdPwu308wCGrv4vxV800qElicirGvYJhN/quRyG41djPTljmDmh6Hp9ZHPtfBRDdfbkWCMjp+GMieozxlcuRa96T9nsqGL0UdoN6NVY/gxI30BKjsZcxSTxEQ/Lt4lXllr5Odfc6i+51h/H96a1COQUSL1G96u6HP+24P5ZCYhvow8REOvNVUCfGi+F6DNTOa31kdNDeAv05hk+frCD1Nj5OfhfNnC1TaAjCh22FTGH9XwyJcAaWP43aQ+u567zCvXAbbfwtoYgDdvsPoipr5fT8oYdk4C7JfWLLHsG/6rb1E1KnZOZtlogK9bmH4S4MFQLrRQaqmPfFT82wSeGiv+LWxk3lnq+64wc1sQ+28l2Bcgr5gNV60rpueieWmC+Lvfa2FL/53JEb48FAbQaeYDSx3xfpX4jhaP7nnlkxfEez8QwppoonW0mlh6gc+bxQs2XBVXNFZP6hjuGSk+9rILANMDGGG5SU0L6Glgp1k8GKXh5+FMCwA418IDX1Ddd4GK/1fN1TZGa/FVOfvMdpll+UmdawEoahceROtYG8PqKEJ8Ad66wdlmh6X9o0F4cGcw68axOBIfFUaJ5y5bX7ZPa2k3szqKxAjUKkwSz1zmRCOAWWLReeq78PchPYp/iRHGn2niDxUA51uEBw+G8lo8v50ovpOXr/NZnavXwhaX1mJKHs1fqgB2GYTdf7Y8jLX7rnimiY9rABIj+J+pAGujmXyCJhPbS/jvBBq6eLUUYKyOs7cLu+edZV8dl9uoMXLoNh7/WrzR/lmid3emSXy5CQEUzCJcgwT/fInXSintYGtxz+8AkGDrLTwfQ1lHPzdDW0b4iD/qugDazPxrDGebeXkCk/1FAVZfBPi2lZmB9ksbqeXpsZR2sCsBrRqgU+K9SmqNVHUS0Wt9Qa2aY7OZ4Acwt5RnLmGWeK2UOxNoMrH8R5xt5tFwIfSy0Uw9Kd4aON0kxFocydLRAI+P4tVSbg0iwSKN82thF5dUmB9KiC91XeytEz9EufVwV7D4MNDj47xQ8RqtmtuD2VfHvjqAow20mwEWRggPgF0JBPigc3xves/i3MZY8XWrID+O/7hBu5m/VvdRwUfF01EAUQNf3LO7eyT3mKb4kxcH0CXxeTPHG/gfy4oP7Y6bivNCmRcK0GzieD1HGjjVaP+oeSE9X13aGJ69jEnieCPACF9eHCd2XWnjRCN7avqcpPvAZRfYeI2fhHDfSJ6LYZSlQ9vvtbCLSypo1TwRwc4bdEn8pQoVltqh1024zFLtrfjG+nBDJ60mKjrFv72vU2h/3fGiNvHHtF6rNAX6EKvnm9aehpvMaC3+PgyOKkvxuseaDtbz0nX21dHStxetdtxdkuDtcnbeoLDJupFhdVR0r5WpdWoiNJR39tR3Re3kFvFhDZWdfY6SfzJzR5ARxRtlACXt/KGcP5TjqyI5kn+PJ9Cn/2th91tydbG+5Eh23gDYZUCjBvBVsbCXCt3t+YfCGG2z0qoZcRROf1W2BFoKbTWq0WQC8FPbf/EgOGn5+cr9jgP1PPAFJolILctG8w8jqTaSeRGcNq9yi9h4DWBaAI+Gc+9I3q3k9+V2jmrs2yRsM4Pl41QZues0hk70apIi+ceRTA9k7mno5dOOeJIjecfAnhqK2gG6JN6uwM+HHfH9Xwu7uKrC/xnJOD3F7RxsEJ/qp6E9dyRgouWu9XiEaE8Ap5sYpxe/s3jLC0419Rz121LeusHUALLHM8kf299bguVm8L+13GnpHJ5r4UYHwG19u0+DHt642sa7lQB6NY+GA+wowyShgpOzidED4orS63rYvtu/lwJM8ufz20Vh3jFYHyVzpAHJcoarbaKzEO8P8F4lhk6AtyaLjvpVy61R/ua7JK61U9vFbyeyI57idv5ey1MX6ZL4pBZcuBZ2cXU6SoVowpglumxqB+CRcPHh84tFH+l4I3ecZtRhfvE1wOwgYvUAH1TzRhmNXXzezLYSzrXwcY3o5Xc3Gr5s5kIrwMIIsfHXJfxXBY1dnGpi0XnRbsqMcrH41pxv5Xdl/K6MV0vJuMj0QnGbeXqs8LvNBCBBowmgsUvcFKFnWMm2tPINr9UkXvNtKx9VWx8lU9TOc5dpN1NtJP2i2PizcLDcIYB6I4BZ4jellpNIAP96hfjjPPIlO8oAxun5pwjRnZG7+v1eC7sMYC2mC60knBB/B/pg+LF1lbPxGjlFAFo143Rcbcck4afmwCxx1/24hp99ZV2JAv82kWfGAmy4ypbinu0t9+Lvw5s3SP/WTnmWjOY/LcvhyuMKUwP4+g5nH6F7XMEu88P4YLoYxnm9jKcuAgT5MCeYs800dImS58Xxwjj7pV16QfStonWM9+N4IyZJHHX0NuaO6BlXiNFT0o6vCpMktJ7kz5k5+PvwZTO3ncIkoVbx4xGUtnOtHbUKs8S8UD6ZSVkHd54WDYKJfoRqONciKtBdU1kYAS5cC1sGMEk9xZ9Zlr7+Y6PsND2yx/PKBEZp6DRzqQ2TxKxAPpnZ897zw/h4Rs89HxitZUe88ABIHdPTPNaoqDICpI1hz8w+Q2mjNGy/hbeHYllkXxXhGn4SwjsJfDSjZzgvYwz/PBYfFU0m9tcxTsehWURqgZ7BFdvSvh4vpmOud3ConvmhfGJZevCDvsP2G2NZG4OPSnhwfwh7bxVf6YxA/mMyI30xSxyqp93Mf07hF6MACuqp7yJKx8FZPBGBj4pLbZxopNlErJ4/JggPcOFa2DL0K7SZJS610WQiSsePHKzUX9xOZSejdURprStRCa600WRigh9BfW0zdHK9g0Af4v2cNeOHkIYurrQRomG8g0fR2C1teSdlHYzT92lL2aWxi4ttRGrtzIh2mLnchgRT/PsMsfem1URJBw1dRGpF5WuFK9eiG2WxPgWBEsWkIFBUUBAoKigIFBUUBIoKCgJFBQWBooKCwG2PEWvoYn89gEYloqR6Y5L4qEZM2DwS1v+AUneCQ3e+RkE9dV32T95NZSdHGwGmBvRM4QwUk8SHNQA/0vZMmHklkpvoMEkhByX2SeyTzjVb791XK3bdccqls31YLV7/mxKxZXahxD5pxEFnR+2pEUflFw2g5JdapUe+lKo7xb9NXeIkj345gJN4IG6rILRqHrcMmO+qtN7bHbyU7OYn7lkzzHIfeuPO50wujuStGwDvVpI9vme7WeKvVSBHx0TYP7Zf3p5Cs2nIEjS6sc198FdzbDZAqJc9s9Madxb/3pFirvZiK58390x7HmoQ0W8PhvYJDXUxv0CmqJ1qI1pVnynNui7+WME3rYzSOgyJdpKAYDf3wQzftALE6ETsiUy7mQ+qOdtMs4k4PQtG9ZkxKmlnXz3A/FA0alGqcA1PRDDVTQ9YdKcKcjjM1mKAXYYeFf5sUzvYzS94/kpPfoEtWdc43cQI355LXtjIQ1+KiW8gr5h/GmV9lPMEhMyLPbkPT18iwIfFkbSbWX4B4NFw7g8Re/fXseh8TzinXNr1sWyKFf+eaRZH/WYCW0tE2BKQU8y7U3ncpmA3ATd3Jrsv9p8szQUJ3q8CCPARsWUMJL/AEW1mHvtaeDB3BGuimeTXE20m028CgqNMDSvOtfDQl8KDuSN4OIwAH4wSWdeE97157gojffmXGP5hpCiDnK9883Fz/TY1gJmBnG2mqJ3jjdwVzJEGEbe4IJwASwSA6/kFjvhrlQjteiiM3dNRq+gwc8/nFPbKse83AcFu7oMtL1wVQWk74smIArjYyp2nqe8iu4iVY/rEMUzy49Qc/H3oNDPtJJfauNpGpWsfamhxf1MnOVLkG+0ycFdwr1TMXnd+1/MLHHHc8vqnxopRCp2aFaP7qNBvAoIrtJpEOspkf+EBEO/PU2PJLaLNzN9reLLXR+uOB9OqmRPMpTbxMQfbXB487lchKZLnr2KWeK+KlyeI31yklgdCel7jen6BI7rTHGJ6xQuNs4n8cZ6A4ArXO0QJp/Vt/XX/a5W70fvW0h3L75b8bPerEKXjvpHsq+NGB9tKRPRmYkSfKC7X8wsc0R2d3DufoqFvboUrCQj94jxxA/DrG6XXu7t7U4L0HOJ+FYDkSJHAlVVk2dK3X+B6foEjuuNRC5t6Qj2PNfR5Tb8JCLhwtUZrCdVQa+RkEw1dPc3MT2vFH7d52Lo73XjEdNQvRqGXG4NmgEn+1ksFuJ5f4IgFlu5ZXjFfNGOW2F0tBri66TcBAXu5D1b4qESGSK2RxHNcaqPWyNZi0QZKCBA9BQ/EI+4Kwb48Et7TYFxsM/jz01D+XMX1Diaf6MkvkCnrENlLzpkaQNoY3rzBjQ5mFaJV02kWA1zdPBiCjyW//U9VfRIQurMQu4eJfvIFQMu9dt4rdzz/W8u3rfy9lvjjfT7mHxNuUqz2IPCIuwJ95xpsVXA9v8AJr8fzXLSlL2oWCTC96TcBAQeZGlYE+3JyNk+N7akd1CrmhXJids96Lh6INwW/u55f4ISGLi618SOtw8T7fhMQnGRqWNFp5mo7zSbG67+XBeeGFm9SQeF7xVMqCAW3o6igIFBUUBAoKigIFBUUBIoKCgJFBQWBooKCQFFBQaCooCD4/xzSNo914xQ4AAAAAElFTkSuQmCC;" vertex="1" parent="1">
          <mxGeometry x="651.9999999999999" y="418.73" width="69.89" height="67.49" as="geometry" />
        </mxCell>
        <mxCell id="LtpZXM9xmSWKar8uXynZ-7" value="Dual Graph Validation: Control-Flow and Data-Flow Closed-Loop Verification" style="text;whiteSpace=wrap;fontStyle=1;fontColor=light-dark(#3CD2D8,#EDEDED);" vertex="1" parent="1">
          <mxGeometry x="281" y="251" width="445.25" height="19.59" as="geometry" />
        </mxCell>
        <mxCell id="LtpZXM9xmSWKar8uXynZ-8" style="edgeStyle=orthogonalEdgeStyle;rounded=0;orthogonalLoop=1;jettySize=auto;html=1;exitX=1;exitY=0.5;exitDx=0;exitDy=0;exitPerimeter=0;entryX=0;entryY=0.5;entryDx=0;entryDy=0;" edge="1" parent="1">
          <mxGeometry relative="1" as="geometry">
            <mxPoint x="407" y="339.40999999999997" as="sourcePoint" />
            <mxPoint x="407" y="339.4100000000001" as="targetPoint" />
          </mxGeometry>
        </mxCell>
        <mxCell id="LtpZXM9xmSWKar8uXynZ-43" style="edgeStyle=orthogonalEdgeStyle;rounded=0;orthogonalLoop=1;jettySize=auto;html=1;exitX=0.5;exitY=1;exitDx=0;exitDy=0;" edge="1" parent="1" source="LtpZXM9xmSWKar8uXynZ-9" target="LtpZXM9xmSWKar8uXynZ-33">
          <mxGeometry relative="1" as="geometry" />
        </mxCell>
        <mxCell id="LtpZXM9xmSWKar8uXynZ-9" value="" style="shape=image;verticalLabelPosition=bottom;labelBackgroundColor=default;verticalAlign=top;aspect=fixed;imageAspect=0;image=data:image/png,iVBORw0KGgoAAAANSUhEUgAAALkAAAC4CAIAAAAwk9quAAAACXBIWXMAAA7EAAAOxAGVKw4bAAAdkElEQVR4nO2deVxUVf/Hz+zDwAzbyCr7KsjmgqLJpiw+WaZWWvaEaKK/EkMRkUDElLQMSyn0IbPkKa0el6xMRdFwFwGRJUEUkH0blmGGYfbfHxev08wwXgm4w3TeL/64c+6Zy/fO/cxZvufM90uQy+UAAsEAEW8DIOMGqBUIVqBWIFiBWoFgBWoFghWoFQhWoFYgWIFagWAFagWCFagVCFagViBYgVqBYAVqBYIVqBUIVqBWIFgh420AViQSSUNDQ1VVVUlJSWNjY0dHB4fD4XA4EokEb9M0QSaTTU1N2Wy2mZmZt7f3jBkz3NzcqFQq3nYNB4L273VqaGi4devW77///uDBA4FAIBaL8bZomBCJRDqd7uLiEh0dPXv2bDqdjrdFz4f2akUul9fV1Z06derChQttbW3jVyKqsFis0NDQtWvXWltb423Lc6ClWunp6Tl79uyxY8dqa2vxtmVUIBAIAQEBO3bsMDMzw9sWrGijVu7fv3/w4MFr166JRCK8bRldIiMjU1NTmUwm3oZgQuvmQSUlJfHx8ZcuXdJ5oQAAzp0798svv8hkMrwNwYR2tSs3btxISkrq6up6Zk0Wi2VoaGhkZEQikcbAsGEjlUp7eno6OzsFAoHaCubm5tnZ2Y6OjmNs2DDQFq3IZLLbt29v2bJFg1CYTKa7u7u/v39AQICdnR2JRCKRSAQCYSztfF7kcrlUKh0YGLh69WpOTk5NTY3qB/7WW28lJCQQiVrXxiuhLVqpqalJTEysrKxUe9bQ0NDf33/p0qUeHh7jpXdXpaGhITU1taioSOkzd3Z2PnDggIWFBV6GYUQrfHFcLvfgwYNDCWXatGnR0dHTp0/X09MbY8NGFhsbm/j4+Pj4+ObmZsXypqam0tJS7deKVrR7586du3Tpkmo5g8F45ZVXMjIyAgMDx7tQECZPnhwWFqbUbwoEglu3buFlEnbw10p3d/eJEyeEQqFSOYVCWblyZXJysomJCS6GjRLh4eFGRkZKhVVVVVKpFBd7sIO/Vq5du/bw4UOlQiqVGhUVtWLFinHnCH8m1tbWEyZMUCpsb29vb2/HxR7s4K+V69evq7pSpk6d+u9//5tGo+Fi0qhiYmJiaWmpVCgQCNra2nCxBzs4a0UsFpeXlysVksnk119/Xce6HhQCgaB6a2KxuL+/Hxd7sIOzVjo7O7u7u5UKbW1tfX19cbFnbDA0NFQqEYvFQznrtAectdLT06O6AcXa2lpfXx8Xe8YGFoulVCKTybR/IR1nrahOfwAAxsbGujFDHgrVu5NKpWo/Cq0C/7GtquNYy932/1jw1wpkvKAVPv4RQSQSVVVVlZWVNTc34+LXIpFIFhYWXl5ekyZNGqc7ajWjI1qRyWSnTp3KysrCsp9hVDE2No6Ojo6KitL+dePnRUfup62tLTs7G3ehAAC6u7tzcnIeP36MtyEjj45opaamRtVPgxc9PT11dXV4WzHy6IhWKBSK9syeiESiTvqHdEQrnp6eEydOxNuKQaysrFxcXPC2YuTREa3o6+snJyd7eXnh68Sj0+lubm6bNm0yNjbG0YxRQkfmQQAAf3//zMzM5uZmHB2gFArFwsLC3NwcLwNGFd3RCgDA1NTU1NQUbyt0Fh3pgyBjANQKBCtQKxCsQK1AsAK1AsEK1AoEK1ArEKxArUCwArUCwQrUCgQrUCsQrOjUepBQKOTxeDiuHVKpVH19fV39wYruaKWxsTEzM7OoqKijowOXCGxEItHExMTX1zc2NnZcxPR6XnREK2KxOCEhQfWn0WOJTCbr7Oy8ePFiU1PTt99+y2AwcDRmNNCR8UpZWVl1dTXeVgxSU1Nz//59vK0YeXREK3w+X3sif8pksp6eHrytGHl0RCsTJ07Unu3QDAZDezb/jiA6ohUbG5vFixdrQxAoOp0eERHh5OSEtyEjj46Mbclk8po1azw9Pa9fv45j+89isWbPnh0YGEgm68gHq4ju3BKDwQgPDw8PD8fbEJ1FR/ogyBgAtQLBCtQKBCtQKxCsQK1AsKI78yAAQH19/d27d1tbW/GK62RmZubj46OTC4dAl7Ty888/7927t7e3F0dnP5FIZDKZsbGxS5cuxcuG0UNH+qCOjo7MzMzu7m58V4VkMllvb++BAweUsr7oBjqilerqau2J68TlclWzUegAOqIVMpmsPXGdAAC6F1gQ6IxWnJyctGdp19LS0tnZGW8rRh4d0YqpqenGjRvt7OzwNgTY2trGxsZqf0K6YaA786DAwMApU6bgO3BhsViurq6qqRl0A93RCoFAYDKZU6ZMwdsQnUVH+iDIGAC1AsEK1AoEK1ArEKxArUCwojvzIBwRi8WFhYW1tbXm5ubTpk1TTX2pG0Ct/F04HM5nn32Wm5srEAgoFMq0adNSUlJsbW3xtmvkgX3Q36Kjo2Pnzp2nT59GMuaKxeLbt28fOHAAb7tGBaiV4cPhcNLT0y9evKhYKJPJCgoKtD+B7jCAfdAw6erqSk1NvXLliuopXY2/oo3tSnd3d39/P95WaILD4aSkpKgVCoVCCQsLo1AoY2/VaINzu0IgEFT3ndy8eXPXrl2vvvqqgYEBxuuQSCQ6nU6j0Wg0Gp1OH9XtI11dXVu3br127ZrqKQqFEhQUFB0dPXr/HUdw1oqTk5OTk1NFRYXi3kexWHz69On8/Hzs304ikUgmkykUCoVCMTQ0tLe3d3BwcHd3d3R0NDExeeY2KLFYXFlZmZeX19PTExAQEBAQMNRaMYfD2b59+9WrV1VPUSiU4ODgpKQkuM48KhgYGCQnJ6enp5eVlSmWy+Xyv7O14M6dOwAAfX19e3v7oKCgiIgIGxuboZQnk8nOnDmzb9++zs5OAMCZM2fmzZu3bt06a2trpZrt7e3p6emXL19WvQiZTA4PD4+Li5swYcKwzdZy8B+veHp6xsbGGhkZjfiV+Xx+RUVFVlbWO++8k5WV1dbWprZaZ2fn0aNHEaEAAAYGBs6cOZOSklJTUyOXy9FqHA5n165dly5dUr0CkUgMDg6Oj4/XyS1OKPhrBQDg7++fkpIyejkCOzo6Dh06tGLFitLSUsXHj9DS0qK07V4ulxcWFsbFxSHtEwCgt7d327ZtStNjlODg4NTUVB1uURC0QiskEik8PHzPnj1mZmaK5XK5XPXRDpvGxsa4uLjc3Fyla7JYLLVxAGtraxMTE0+fPt3V1ZWQkJCfn69ah0AgREZGpqWl6WQyTCW0QisAAAKB4O/vn5GRYWNjo1g4srvzOzo6MjIy7t27p1hoY2MTEhKitn5nZ2d6enpMTMzt27fV2hwaGpqUlPRPEArAfWyrCIFA8PX1TU9PT09Pf/DggdoWhUqluri4qG0GxGKxQCAQCoX9/f09PT0ikUjtf2ltbT106NCOHTvQB0wmk6Ojo1tbW/Pz81V/3CoQCKqqqlSvg/hRNmzYYGJi8nz3OW7RIq0g+Pn5bd26dc+ePWVlZao/IiQSiV5eXnFxcaqRBMViMZ/PFwgEfD6/vb29oKAgNze3ublZ6fHL5fIbN25cvHjxtddeQwstLCwSExPlcnl+fj6WXy6isx7dHswqQUpLS8PbBmUsLCw8PDxqa2tbWlqUTkkkkvLy8vb2dh8fH6XWBXHHMZlMExMTGxubmTNnhoeHC4XC2tpapdUZmUwmlUrnz5+v6LJjMplTp0599OhRY2Oj5kESkUgMCwv7O7Oe0tLS69evKxWGhoa6u7sP74JjgzZqBQDAZrN9fX3r6+vr6+tVz1ZVVdXV1Xl5eWneKaKvrz9r1iyBQKDaRHG53MDAQKVkzvr6+gEBAVVVVU1NTUPJhUAgzJs3LyUlhc1mP/9tDTJOtaItY1tV7Ozstm/fHhkZqfZsfn5+UlLSM4Oqk0ikFStW+Pn5KZVzuVwl7x+Cqalpenp6UFAQiURSPUsmkyMiIlJTU/8hg1kltFcrAAAzM7MPPvhgwYIFatd3SktLU1NTb968qfkihoaGqoKTyWRDuebYbHZSUlJISIiSXCgUSkREREJCwmi4DccFWq0VAICxsXFSUtKiRYtUPfRyuby6uhpxkWkOzuPg4KBaiDpqVbG0tNy0adPcuXMVNRoWFhYXF6fkAfpHoXXzIFVYLNamTZvodPrJkyeR7WeKtLS0fPjhh3w+PzIykkajqb2CWo+q5vUma2vr5OTk2bNnIykhDAwMFi9e/I+a9agyDrQCADAwMFi/fj2Dwfj+++9Vt7Z0d3fv3r2by+UuWbJEretF7arhM+OEmZiYLF68eNg26x7a3gehMBiMNWvWxMTEqN11xuPx9u/fn52dreWbpMY140YrAAAajfb2228nJyerbScGBgaOHDny4Ycf9vb2jr1t/wTGRx+EQqFQFixYIJVK9+/fz+FwlM5KJJKzZ8/yeLzExETFdSVtQ3XURSKRqFQqLsZgZzy1KwgkEunll1/evHmzpaWl6lmZTHb16tXU1FS1izhagmrLhzidcTEGO+NPK+CJTywxMVFt3C+ZTFZYWJiWllZSUqI9ycoUUdUKmUyGWhktSCRSSEhIWlraUGHiysvLk5KSCgoKtE0ucrlcNcMRmUzW/l+KjFetAACIROKMGTM+/fTTocLENTY2btmy5fz587iE0R6Krq4u1ei3DAbD3NwcF3uwM461guDp6fnFF1+4urqqPYtsuz9y5MgYW6WB9vZ21eUFExMT7d+COe61AgCwt7ffs2fPtGnT1J7l8/nHjx8fY5M0cP78edXxipubm/anvdMFrQAAHB0dt27dOlSiQe3pg8rLy8+dO6dUqKenN2vWLFzseS50RCsAAEdHx5SUlKCgIK39gra0tOzfv191sGJlZeXj44OLSc+Fln6sw8PS0jI5OVlPT+/3339/5vRHIpGo+sRGA7lcLhKJioqKsrKyqqurVXdRTZ8+XfsHtgAAwgj+qEJL4PF4n3zyyalTpzRXMzQ0VLtXYcQZGBjo6OhQ9TIjmJubHzx4cFzEZNdBrQAAhEJhZmbmd999pz0jlaHYvHnz8uXLx0Wuh3Fg4jCg0Wjr169ftWqVlju4IiMjFy5cOC6EAnRVKwAAKpUaExMTExODPTDHGOPv75+QkDCOgiroZh+EIhKJjh07dvjwYQ6Hoz0JhlgsVkhIyOrVq7UhMQl2dFwrAACxWHz+/Pn09HQej4e3LUBPT8/a2nr16tWhoaHav1iohO5rBTxZeT558mReXp5QKBzjW2YwGGw2e8KECZMnTw4ODvb29tb+rSpq+UdoBTIi6OzYFjLiQK1AsAK1AsEK1AoEK1ArEKxArUCwArUCwQrUCgQrUCsQrECtQLACtQLBCtQKBCtQKxCsQK1AsAK1AsEK1AoEK1ArEKxArUCwArUCwQrUCgQrUCsQrECtQLACtQLBCtQKBCtQKxCsQK1AsPKMGGB8Pv9O0d2K+1U93b2CgQF9fYaVpcVkz0l+vt5ElbADeZeviMRiAIAhizVr5nTNV75x604vlwsAoFIoc0MCkcKqB9U1dYMJDufMmmlgoA8AkEqluXl/IIWW5ma+Pl4aLiuWSC5e+kvSbaaBwQuzZihV43R1FRTeVSyxtrTw9vLUbPOIoPbGEUQi0R9Xrt8rLe/l9hnoMyZOtHphVoC9nbYkFhhSKzK5/MefTh75/geBYED1rJWV5aa496b6/SUi3udfHORy+wAAbi7Oz9TKtzlHq6ofAgBYLCb6keVdvvrj8cHYXe5ffYFoRSQS797zOVIYNGeWZq0IB4RoZQQKmfzbzz/Q/5qG6uKl/Kz/HFYsCZsbPDZaUXvjAIA+Hm/9xqSa2jrFynp0vdHWSienK/vrIzGrotimz0g0PWQflPll9sFD36oVCgCgubll05bUazfUZEPXNsQSSWlZhVJhYfE9tZVx5OgPJ5SEAgBwdR3FOHJisfi7Yz+9Fb3m/IVLcixZqdWWlpX/efL0b+hLZ0cHFxcnBkOvpaWtoLBYIpEAAGQy2ccZ+3y9v0K+/dpMUXGJ/7Qp6EuJOvXgTlnFn+jxxvff9Zzk1tHJcXNxGr3/uO/L7F/PKAfb1YB6rZw5m4seb9n0/vyIeejLxqbm/1u/CelruNy+P65cW/CviOEYmrELCfxHII5WuCUCYTBiiFIrUnG/cmBgQLHCWDLUjff19SEHJibGCxfMBwA4OzmOqiVKKc6fiXqtNDQNxuslkUgRYaGKpyZaWy19ddFXh3OQl/crHzxTK2KxGH0kRCIRiVVMppBJJCIAYPRCczk52D+sqQUAPKqp7e3lGhoORmYreiIdezvbx/UNGiLhNjW3NDQ28fn9JBLJyMjQ0cGOxWQq1RGJRMgBmUxGogQ2t7TWPW6QyWQO9rbWVspJjlRvHPl8RKLBJ0en0ZBrop8VSn1DY0Njk0wmm8Bmu7o4DRWUUC6XNzQ2NzU39/cLqFQK29TU0cGeRnsaIEgml0vEYpn06Y2LxWKRSKT6H/9iudpSOn1wJCiVSr//4fhbb7ym+ERfnB/u6GCvR6fR6XTTZw2I/rhyLW3nJ4hWqFTqno/SkMHpe+sT0CHeryeOar7I8PD0cK9vbBKJRHK5vOjuvdDgOUh50d1Brfj5ej+ub1D73hu37hzIPlzf0KhYSCQQ5rwQsP69NegwkMfjv7hoGXK8JSFusod7xr6suyWl6Fu8vTwT49dPtLZCS1RvfPGyKKSdRmhuaQ17cQkAIGxucMqWeKTwTtHdLw9+XVv3GK3GYjKXvrZo2WuLlJ7u+QuXvsk52tL6l/QQNBo1Iix03drViGKuXL2xbcduxQpvRMUo/UdV1AtTcYJz6Jv/vhkV89XhnJLScqTVMjYynDVzup+v9yR3V7MJ7KEuDQAoK/9z5+69iFBIJNL2rVs0z2JGFgqF4jHJDTkuLB6cIQsEA/crHyDHfj6T1b7xyrUbH6TuUBIKAEAml+dfvbEh4QOkC1Pi4cOatbHxikIBAJSWVcQlJPf3/60A3b/8dm5z0jZFoQAAuH19Xx3OSUrdKZZI0ML/nTz90SefKQkFACAUin757dyWlO2KlZ8X9VpZ+NK/2GxT9GVzS+t3x/73fnzSi4uWbUzceuLUr93dytmSVKlvaPwgdSciLyKBkJy48ZkT6RFniq83coAOWe7eKxscLhAIvt5qhCsUivbuP4Dom0Imh88LeXv50hfnh+nrDw7h6xuart8sUH3j8VO/8Hj8yZ6Tli97dW5IIOp/6ujovJB3WYORbFNTNtsU7VCIRCKbbcpmmzKZTABAZVX1518clD35vs0NCVz22iJHB3ukcsGdom9zjiHHfTxe9teDYwNXF6f178WkpSS+v26Ng/1gtMviktKLeX8AAKhUCovFVEwxyjQwYLGYDI3hgNX3QfoMxqe7tm9K2tbZ+ZfI4EKhqKi4pKi45ED24Zdfmh+zKoo+RPrs7u6ehKRt3CfjtQ3r31XyO40Nvk9ajra29qbmFmsry+InHZCjgx2LpTz4AADUNzSyTU34/H6RSBS/Yd388LlIeWhQYPyWrcix0lccJeqtZSujliPHTo4O2V8P5i26X1W98KUhjfwmOxMA8EZUTHNzCwDAwsL82JHsp2dzjqLi3vNR2tQpvgCA1SslSak7C+4UAQCOnzz95rIl+gzG/coH6OBpy6Y4J0d75DgiLDQ6JtbYyNDZyRG55Vkz/X89cXTXns/P5eahNkzQ2EUADb44B3u7b7Izf/jp5G9nc3t7uUpnxRLJiVO/lldUZu7drThoQhgQChOTt7e2tSMv176z4uUFkZrtGCU8JrnTaFShUAQAKCwusbayLCwuQU75+XirfYuLs+OhA/tkMllDY5ONzdMEeQ4Otugxn68mC7SxsVHUW8vQl+Fzg1GtoHOc54Xf348IAgDgP30KIhQAAJlMjln5NnJqQCi8cbMgbG4wkfC0l0jb+fErL/1rhv/UidZW+gzGT999PTwDFNHk42cxmTGrolZGLb9XWn6n6G7x3dLqh49kCpPMqgfVh77973trVim9UXHASCQSZ6u42McMCpnsOcm9uKQUAFBUXBL4wiy0SdA8ciISiXa2Nvz+/oo/K6sePCyvuF9SWo6eVRvm39HBnkQioS9NTIzRY5F4mKOE6uqnH7iBvv6f958mh5VIJOic/8HDR2Fzgz0muTEYesjYqL6hcX9WNsgCJibGfj5e06dNQddMhs2zc8KQyeSpU3wRRXP7+m7eunP0x+N1jwfVcObshZiVb6tNro0gk8kys77as2v737Hy7+Dn641o5W5J2Z2iYqSQSCD4eA/p0ZfJ5b+fu3DmbG5l5QOZOgeMWp8Qi/mXYO4kEolIIAy+fbhenO6epxnM8i5fybt8RW219vYOAACDobcpbl36x3sVpdzV1Y288XMabfErL62MelPDw9KMGq00NDbdK6vgcLo4nK6gwNmKcyIWkxkRFho0Z9by6LXIUIbP57e2tdtMtFa9DtPAoI/HAwAUFBbfuHVn7Ae2CH5P2g9uX9+P//sZOXZ0dFD1lCBIpdKk1B23C4rQEgtzs8mekzwmue3/cnAYodjao6jxTBAIw1YJAsYksAMDQuRgbkjgxIlWR384ceNWATp2GawjFB798XhnJyd5y8bhGaNGK1UPHu7Zm4kcc/v6lBYIAQB0Ot3O1gYd9vJ4fNWLTJ/ql7AxdsXq95Am8cuDh6ZP86PgkTFskrsrnUYbEAoBAA8f1SCFU3yH7IDO5uahQgkOfGHNO1FWlhYAgD4eD9XK6PmalTBUyOzwxtIlUcuXqa2GOPcQ3Fyct29NHBgYKLp7r/huaWl5xcNHtajmcvMur3knSnGSix013w+vyR6o5+3q9VuKfSRCZyen8omLAgBgaamcU8vc3Gzn9mRzswnLl72KlDQ2NZ849esw7Pv7kMlkT89JSoUaBiu3bhciByQS6YPNGxChAABUB/hjgLOzA/osHj2q1dOjo3/cvr5rN241tbSQySQkaHt/v6Cyqjr34uVv/3uMSqPNDpgR++7qr7I+P/VTjuIXvrmlFTlQ9K9iaf3UaMXcbMLUKYOXlkgkW7Z++PMvv3O6ugAAfTze1eu3NmxO5vcPTgS8JnsYGRoqXcGIxULm0q8vecXcbDCVbM53P2DxyowGSq0IkUDw8VLvhQMA9D9JbCeVShWTiaGbJQAAkuGOVZ8XI0NDH+9BUwsKixUX9r858v3O3Rmr1qwPX/DqrYJCAMDHGfvWrNuY/vHeb3KOXnyy4we5yESFQQLqalfsNDmcLgCAZk+d+k7h3ZhVa9ZtRNxovb3czzIPfJZ5gEQiKY3/iUTiqifuBLVQqdTVK9/euTsDAMDv788+nJMYv15D/VFCyefm7OyoYUbg6uxY9GRevTl5+xuvLyESCRcu5aOFAADucOfAw2BV1PL18UnIfGdrWnrgnNmODnb3Kx/cvH0HqWBrY+0/fSoA4M2lS65cu4l0N59k7C8pLXN3dZVIJeUV9y//cRWp7DHJDV2iMjZ6+iVPSNrGZptOtLbcmZY8lCXq/bZOjvbbkjcr+dmUhEIikeLff9fPV72XAmVeaJC7mwtyfO78RWQpZIxxd3NRTMAylGcF4dVFL6PD3obGpk/27t/96b6i4hIDA310WedRTd2oGauMt5fne2sHvRIyufyPK9cOH/keFQrb1GTHtmTER+zm6hIXuxY5FkskZ85eyNj35b4v/pN3+QoyHTM2Nvpg8wb0yoodcR+PV1v3GHWJqWXIvU5zZs88nJ0ZGT5XNc2Nnh59zuyZhw58jmU3AoFAWLf2HfRWM7/M1lx/NCCTyd6TPdCXmj0rbLbp559+5KqwcYRIIMwOmPHVl58tWvgiUlLf0Fj9sGaUrFXltcUL9368w8PdTXGEQSKRgubMytq3x9bmaf+ycMH8/Xt3T1HZ4UqjUeeHz/364D7FGetUP583li5RXKyWSDSlh3z2Bg6pVFr3uKGzkzMgFOozGEZGLDs7W1xmNGNMQ2NTc3MrhUpxdLBTHZPhQldXd1NzC4/PN9DXd3SwQ5eoVOHz+XWPG7h9fSQSycTYSMMj6+3lPnxUI5eDCRNMbW0matgiAvMHQbACf/MBwQrUCgQrUCsQrECtQLACtQLBCtQKBCtQKxCsQK1AsAK1AsEK1AoEK/8POm9ljOypS6cAAAAASUVORK5CYII=;" vertex="1" parent="1">
          <mxGeometry x="386.55" y="280" width="59.32" height="59" as="geometry" />
        </mxCell>
        <mxCell id="LtpZXM9xmSWKar8uXynZ-14" value="&lt;b&gt;&lt;font style=&quot;font-size: 8px;&quot;&gt;Skill Node List&lt;/font&gt;&lt;/b&gt;" style="swimlane;fontStyle=0;childLayout=stackLayout;horizontal=1;startSize=20;fillColor=none;horizontalStack=0;resizeParent=1;resizeParentMax=0;resizeLast=0;collapsible=1;marginBottom=0;html=1;" vertex="1" parent="1">
          <mxGeometry x="280" y="360.99" width="60" height="72" as="geometry">
            <mxRectangle x="502.87" y="415.66" width="60" height="30" as="alternateBounds" />
          </mxGeometry>
        </mxCell>
        <mxCell id="LtpZXM9xmSWKar8uXynZ-15" value="&lt;div align=&quot;center&quot;&gt;&lt;font style=&quot;font-size: 8px;&quot;&gt;Node 1&lt;/font&gt;&lt;/div&gt;" style="text;strokeColor=none;fillColor=none;align=center;verticalAlign=top;spacingLeft=4;spacingRight=4;overflow=hidden;rotatable=0;points=[[0,0.5],[1,0.5]];portConstraint=eastwest;whiteSpace=wrap;html=1;" vertex="1" parent="LtpZXM9xmSWKar8uXynZ-14">
          <mxGeometry y="20" width="60" height="14" as="geometry" />
        </mxCell>
        <mxCell id="LtpZXM9xmSWKar8uXynZ-16" value="&lt;div align=&quot;center&quot;&gt;&lt;font style=&quot;font-size: 8px;&quot;&gt;Node 2&lt;/font&gt;&lt;/div&gt;" style="text;strokeColor=none;fillColor=none;align=center;verticalAlign=top;spacingLeft=4;spacingRight=4;overflow=hidden;rotatable=0;points=[[0,0.5],[1,0.5]];portConstraint=eastwest;whiteSpace=wrap;html=1;" vertex="1" parent="LtpZXM9xmSWKar8uXynZ-14">
          <mxGeometry y="34" width="60" height="16" as="geometry" />
        </mxCell>
        <mxCell id="LtpZXM9xmSWKar8uXynZ-17" value="..." style="text;strokeColor=none;fillColor=none;align=center;verticalAlign=top;spacingLeft=4;spacingRight=4;overflow=hidden;rotatable=0;points=[[0,0.5],[1,0.5]];portConstraint=eastwest;whiteSpace=wrap;html=1;" vertex="1" parent="LtpZXM9xmSWKar8uXynZ-14">
          <mxGeometry y="50" width="60" height="22" as="geometry" />
        </mxCell>
        <mxCell id="LtpZXM9xmSWKar8uXynZ-33" value="" style="shape=image;verticalLabelPosition=bottom;labelBackgroundColor=default;verticalAlign=top;aspect=fixed;imageAspect=0;image=data:image/png,iVBORw0KGgoAAAANSUhEUgAAAI8AAACoCAIAAABWqCpKAAAACXBIWXMAAA7EAAAOxAGVKw4bAAAgAElEQVR4nO19eXwT1fr+k0nStGnapPtCW1qgCwUs0BYoKOWyKXAVEFREVNCrgNrK1SvXz1dQ0KugLJeLXuSHICiLolhZLgqiFCi7lLLTjS50b9omTZul2eb3RyZtM5O2aZq0Senz6R9wMpN5M8+cc97znud9h0WSJPrgJCB62oA+dAJ9bDkT+thyJnB62oDug06nq6ioKC0tra+vB8DlckNDQ8PDw7lcbk+bZikeCLYqKysPHTp07ty5wsJCtVqt0WgAEATB4/F8fHzGjRs3ffr02NhYNpvd05Z2AFbv9glVKtVPP/2UlpZ27949nU7X1mH+/v6PPfbYM888ExYW1p3mdRa9ma3a2trt27fv37/f0JnaB4vFGjZs2IoVKwYPHtwNtlmHXsuWQqFYu3btzz//3KmzQkJCvvzyy/DwcPsY1VX0Tp9Qr9d/9tlnhw8f7uyJpaWl7733nlgstodVXUfvZCs9Pf3EiRPtTFTt4ObNm19//bUlg2f3oxf6hFqtdteuXTKZjPmRr6/vqFGjBg8e7OPjU1FRkZGRcfPmTRqpJEkeP358xowZQ4cO7S6TLUUvZOvGjRt37tyhNbLZ7OTk5IULF44YMaK58emnn969e/fevXvlcnnrg8Vi8e+//+6AbPW2kZAkyfT0dLVaTWuPiYlZsWJFa6oAiESilJSUF154gbnSOnfunFKptK+tnUdvY0ur1d66dYvWyOVyU1JS/Pz8zJ6ycOHCuLg4WqNYLC4qKrKHhV1BL2SruLiY1hgeHh4TE9PWKXw+f/LkybRGpVIplUptb1/X0NvYIklSpVLRGv39/fl8fjtnDRw4kMMxmcJVKpVEIrG9fV1Db2MLANNx53K5LBarnVMUCoVer2/dwuFwXF1dbW9c19Db2CIIQiQS0RpLSkoaGhraOSs3N5fJFo/Hs719XUNvY4vNZg8YMIDWWFxcfPz48bYWyzk5OUeOHKE1CoVCB4zw9ja2uFzumDFjCMLkdxnWy5cuXWIeL5fLt27dWlZWRmsPDAwMCgqyo6FWobexBWD8+PECgYDWWFVVtXr16p07d9bW1hpalErluXPn/v73v6enp9NC22w2e9q0aTS/wxHQO2PwH3zwwcGDB2lTEQAOhxMVFRUWFubi4iIWi7Ozs806flFRUZ9//nlwcHC3GNsJ9E628vPzU1NTS0pKrDiXz+evWrVq2rRpNreq6+iFIyGAQYMGpaamMsdDSzB9+vSJEyfa3CSboHeyBWDSpEnLly/38PCw/BSCIGbNmvXOO+84oO9uQO8cCQ3QaDSnT5/+4osv7t271+HBIpHo2WefXbBggaenZzfYZh16M1sGFBUVffvtt7/99ptBmMYEn89/6KGH5s+f//DDDzu4Wq33s2XA+vXrv/nmm9YtBEFER0cnJSWNHj06ISHBxcWlp2yzHA63pLATmFILLy+vjz76KDo6ukfssQ691stoDZIkKysraY2urq5eXl49Yo/VeCDYamhoqKmpoTUKBAKhUNgj9liNB4Kt+vr6pqYmWmNQUJDDeupt4YFgSyKRMLcoAwICesSYruCBYEsqlTJ1NYGBgT1iTFfwQLBVWVnJHAn72HJQlJeX0+Lxbm5uDrh91SEeCLaqqqpoLe7u7p0KIToIHlC2PDw8rIvQ9yweCLaYS2OBQNDHliNCKpU27+43w8fHp32FoWOi97MlFouZW/7BwcEOKLvoEPa1mCTJxsbGmpqanJycvLw8uVxOEES/fv2io6MjIiKEQmE33DKJRMLUpnl7e9v7uvaAHW+WVqvNyMjYt2/fnTt3aNlUBEEMGDDgL3/5y4IFC+x946qrq5l9yxndd9iPrcrKyo0bN/72229mNZd6vT4/Pz8/P//YsWPLli2bPHkyTQFoQ5SVlfUatuxyj+7du/fGG28cO3asw1zSkpKSVatW7dq1yx5mANDr9RUVFbRGPp/vjEFC2KNvlZWVffLJJzk5ORYe39DQsHXr1uDg4KlTp9qqh5EkWV9fL5PJGhoaiouLafvjXl5eThd9N8DGbOl0un379l25cqVTZymVynXr1sXGxnZReq7VasVi8ZUrVy5cuFBYWFhfX69QKJgJyO7u7o5fdsYsbKzLyMrKSk1NNZunxuFwOByOXq/XarXMiQTAvHnzli9fbp2OhSTJ8vLyPXv2pKenM0XtNLi7u8+aNWvBggXBwcH2my/tARuztXr16gMHDtAaORzOxIkT586dGxoa2tDQcP78+d27dzNXrH5+frt27bKie2k0mj179nzzzTfM72wHIpFozpw5r776qhMtk23JVmNj45NPPkmb1V1cXJYsWbJw4cLmTkOSZH5+/tKlS5nhuw8//HD27NmdumhJScnHH3988eJFK6pjEASRkJCwevXqkJCQzp7bI7DlOFBUVMRMaouPj3/uuedaj28sFisyMnLJkiXMQe/GjRudumJeXt4///nPc+fOWVfIRK/XX758edmyZdevX7fi9O6HLdmqqKhgbtFOmDDB7FCTnJzMbM/Pz6+qqmLuyptFQUHBhx9+ePPmTeusbUZOTs6aNWsKCwu7+D3dAFv6hGq1mjmutjXIiEQiV1dXmn729u3br7zyyqBBgyZNmpSYmCgSidpKGVYoFJs2bWqrT7DZbHd39+jo6NDQUC8vL5lMVlFRcevWrcbGRq1Wyzz+9u3bn3766aeffurgKihbsmX2zpaXl5s9uK6ujlk+RKPRFBYWFhYWnjhxgsfjDR06dNSoUYmJiXFxcTQt7XfffZeRkWF20g0NDV24cOHEiRN9fX1bt8tksrNnz+7cuTM7O5t51oULF3bu3Lls2bIOf2YPwpZexs2bN1999dXGxsbWjaNGjdq0aRNzo3bv3r0bNmzosPgVi8XicrlCoXD06NGjR48eNmxY//79xWLxvHnz6urqaAe7uLjMnTs3JSWlnb0rlUq1e/fuHTt20KoFARAKhd9++y0zbdlxYEu2Ghoa5s6dS+tMXC73+eefX7x4cfMspdfrb9y4kZKS0tnyIRwORygUhoSEuLq6Xr58mWa5q6vra6+9Nn/+/A7jFBqN5tixY2vXrqUtnFks1qxZsz744AOHXTuzV61aZavv4vF4paWltGlfr9ffunUrOztbKBTqdLqioqJDhw5t3LiR2TM6hF6vVyqVVVVVzPUvi8UyLJ4sKXLRnPefmZlJW6ffv39/zpw5DrsCs/Hq+Nq1a6mpqW1VcXFxcdFoNG1dkcWy3piIiIht27Z1SnQmkUjeeOMN5pph3bp1jz32mHVm2Bs2jrvExcXNnDmzrU/NOo0GBAcHp6SkTJo0iVmbxBI8+eSTndUHenl5LVq0iNn+xx9/OGYpSdg8qstisV588cW8vLxz585Zfhafz1+7du3w4cN1Op1Cobhz505mZubFixdzc3MVCoUlp0+dOtUKaxMSEoKDg2kT7f379+VyuXUPjb1hy3nLAEOqYV5eHnNjySwCAgLeeuut5ORkgiAMNdpDQkISExMnT5786KOPRkZGGtQATU1NZpdKAGJjY+fNm2eFaIDNZl+/fr2goKB1I0EQM2fOdExFlF32jsPCwtatW/f555+fOHHCbMVUA9hsdkxMTGpq6ujRo2mxcBaL5enp6enpGRkZOWfOnOrq6qKiorNnz166dCkvL482nAYFBVnnxXE4HGZRjPr6+gdlJGyGj4/PypUrp06dum/fvqysLIVC0dwzCILgcrmBgYGzZ8+eOXMmbQ1rxkQOJzg4ODg4eOzYscXFxU8//TRtePTw8Gi/RFpbYLFYzBFPpVK11Yl7HHZU0bDZ7LFjx44dO7aqqurq1atlZWUSicTd3d3b2zsqKmrIkCFWbODyeDx3d3caWzKZTK/XW9G9DFvMtEY+n++w4rXuMCsgIMBQ2oUkSes6QTM4HI5AIKAlEZeVlel0Oiu2MbVabWlpKa3Rw8PDYdnq1p3TLlIFwNXVlTly5ubmMhNVLUFDQwMzLuzj4+OAdSQNcKZ9bgB8Pj8yMpLWqFarT5w4YVY90D4uXLjAzPWPjY112PQTJ2OLIIj4+Hhm+5EjR6qrqzv1VbW1tfv27WO2jxs3zmHjhE7GFoBHHnmEqd3My8vbtm0bMwGyLRikHGa3qkNDQ7tqot1g+9WxvcHhcBQKRWZmJm3VlZeXx+VyBw8e3KG7oVAovv/++x07dpj11M+cOePn5xcaGuqAvobzscVisYKCgk6dOkVbdxuC/eXl5bGxse1EImpra9evX79///62XqXQ2Nh48eLFysrKQYMGOVqFLudjC4Cnp2dNTU1WVhatXaPR5Obmnj17liRJgUDA4/E4HI4htK9SqSorK0+fPr1mzZrz588z9SOtoVars7Ozs7KywsLCAgMDHUdz6HxVuXQ6XWZm5gcffMBcKrWGj49PdHS0j4+PSCSSyWS1tbV5eXlMTVz78PT0fOWVV+bOnesgYUOHYIskyYKCguLi4vr6ehaLFRgYGBUVZTZTSKfTHTx4cOPGje2EH20LgiCSkpLefvtt5sqh+9HDbJWWlh46dOjYsWOGvB2DMQRBsNnsxMTEmTNnJicnu7m5GQ5WKpW7du366quvbBt1jY2NnTZt2o8//nj//v22jvH19X399ddnzZrVs65Hj7GlVqsPHDiwZ88es/lVBri6uo4YMWLp0qUjRoyQSCSbN28+dOiQDakiCOKRRx5ZsWKFv79/cXHxli1bfv/997ZCuq6urlOmTElJSenB3K+eYUupVG7YsOHgwYOWrJACAgKWLVv266+/tqXJFQgEEydOvHXrVnFxsYWiXRaL1a9fvzlz5jz11FPNGkK5XJ6WlrZjx4529PSxsbGpqamjRo3qkSqhPcCWSqXasmXLzp07LT+FIIi2+p9IJFqxYsWUKVOqq6uPHDmSlpYmFovbeQg4HI6vr++UKVPmzp1rVoyWlZW1YcOGW7dutUW8p6fnggULnnvuue7373uArUOHDr3//vtWhPWYCA8P/+ijj4YPH97colQqMzMzz5w5c/fu3ZKSkuZe4ubmNnDgwMjIyISEhOTk5PY1uTKZbPv27Xv37m3L0WexWPHx8StXruxm8WF3s1VWVrZ06VKbiM7HjRu3YsUKs8ptkiR1Oh1JknK5XKvVGrYrCSMs+XKdTvfnn39+8skn7ZgqEAjeeuutmTNnstns3NzcjIyM/Pz8ysrKxsZGPp8fFhY2cuTI0aNH2zCU1d1s7d69e926dcyLRkdHT5gwISoqSi6XZ2Zmpqent+Oju7m5zZgx4/XXX+9w37mLqKys3LRpU3p6eltiHh6PN3bsWJ1Od+PGjfr6eub7UHx9fSdNmjR//vz+/ft33Z5uZUupVL7yyiu0LSWCIMaPH29wzAwbYGq1+tKlSytXrjQ723t4eLz44osLFixwd3fvBpsVCsUvv/yyffv28vJy6+4Vm80OCwt75513kpKSurgA6NbIU3Fx8XfffUcToAcGBq5fvz4oKKh5r5LNZvfv35/NZl++fJk2vQkEguXLl8+bN6/bNgy5XG5MTMzIkSPLy8utI4wkSalUev78+ZCQkIEDB3ZlS7ZbI2ASiYQ5pIwZM6Zfv37Mg6dMmcKskxAWFjZ79uxuXqISBDFkyJBNmzYtWbLE6rLxEonk448/vnbtWpcs6crJnYVcLmf61m1VZPf29ma6yEqlsv2ArP3g5ua2ePHirVu3Wv3WaolE8sUXX3QqOZqGbmWLx+MxF5XMcnQGKJVKZpKkIUHILsZZABaLlZiYuG7duqioKLMH8Pn8AQMGDB06NCgoyKzzefXq1YyMDKsN6NYhRSgUurm50QbDzMxMuVzOdBmuX7/OFE34+fl1XYrTRSgUCqauzTBapqSkRERE8Hg8qVR6+vTpHTt20LKetFrt0aNHp0+fbt2I2q19Kzg4mPl6g7t37+7fv7919I8kydra2i+//JKZc/7QQw/Z3cqOcPPmTaYGJDIycvPmzUlJSYGBgV5eXhEREQsXLly+fDnzKTTsNlh36W5lSyQSJSQk0Bq1Wu2WLVs++uijgoICQ9bC6dOnFy1adPv2bdqRAoFgzJgx3WVsm7hx4wbNM3R3d1+6dClz8ffoo49OmDCB1iiVStvK7u0Q3R3//+tf//rrr7/SRpKmpqaff/758OHDrq6uWq1Wo9GYjUuNGjXK6hnehmBmY4hEIrO+kouLy4gRI44ePdq6Ua1WM0d4C9Hde9ixsbFTpkwx+5FOpzM4jWapEgqFzz77rCNkLTLdBy6X27wJR4O7uzszIcPqiER3s8Xlcl966aWYmJhOncVms+fNm2dWSdj9YG5qy2Sytga3nJwc5sNntbq0B/QhoaGh77//vuXFeths9owZM15++WUHefEcM+InlUqPHj3KZKWkpOTkyZO0Rnd3dx8fH+su3TNqnmHDhv3nP/9JSEjoMCohFAoXLVq0cuXKtoaa7kdcXBxtQNbr9WlpaT/88EPrlXtRUdHatWuZ6oHg4GCr91l6UpfR1NR08ODBH3/80WzpSTc3t/Hjx8+fP3/kyJHdb1s7kMlkS5cuZep8WSzWyJEjk5KSRCJRYWHh8ePHzeZSPP/888uXL7fu0j2sojFkUN25c+fixYv3799XqVRsNlsoFA4fPjwxMTE4ONgxi3SmpaV9+OGHbW0ut7PTHRgYuGXLFqvlUw6hUDPAUGiSIAgHlDTTIJFI3nvvvc7GkNhs9rvvvvvUU09ZnRXhKCpUAARBuLi4OD5VALy8vJYtW9apLsJms+fMmfP44493JYHFgfqW06GgoODNN98sKirq8EiCIJ544ol33323izuofWx1CTU1NTt37jxw4EA7dT1CQ0MXL148Y8aMrg8bfWx1FRqNJjs7+/Dhw4ZMeMPOOJvN9vLyCg8PHzdu3LRp09raQOks+tiyDUiSrKmpqampqaurM6ishEKhv7+/bZNi+9hyJjiQT9iHDtHHljOhjy1nQh9bzoQ+tpwJfWw5E/rYcib0seVM6GPLmdDHljOhjy1nQh9bzoQ+tpwJfWw5E/rYcib0seVM6GPLmdDHljOhjy1nQh9bzgRLFW7ZCmQrAGC4AOGmhUVOSiDTQcDGZHpKsc2gJbGvCnogyRPRxvSO3yVo1MGNwKNmioTScU+J3yUob4JKDz8uEj3xiBBEd+Wba0gcrQWAIBeM7kLhNUs1T6sKsboIAOI9cDne5HcOvYzbcgx0Q77dcoI/KMSHRQDwZRSWGCuhDLqIe0r046F0bHvnVqjxt2z8wihSEemGnYMxrlvebyzVwisDAGb64uAw67+n0yNhZgO+tDLH2UpkNuATK3PgkavAsMstVPHZ4BtV6HlKTL6GK/SqAQ4Na+at9wpQ2V31YFR6vHAXWnP9/8BQXIjHkbZLMjTp8fRt1GoAYJIXriZCPh7y8fgzASM9qC9/M88+dtsH1iiz67V4Ox97Y9s7pqQJP1SjQAlPDiaIMNUbzDnirgKHa1CiggcHSZ6Y4QM246D3CnBHDjYLOgZhBUrIdHAnMKKN6t9pYlxvBIAkIY7FgWP88gQPHI9DxAWQgI5Egw4ebEi1OFgDAA8LIdViTyV8uXgxCKE8ALgkwx8SVKjBZSGUhyd8MdCYqtmowwExAIzyQH9X7KvCDTn8uHjGv2WKbQ0diQNiXKgHj8B0HyR35v2UnWbLlYBKj31VeCkIk9pwK3ZX4tUcqIwJZ2uLMUGEn4dBZLyaUo/XcrDLtGTQEHf8NNTkF2ZIsakUAN4OxWeMetLL71Hz1lP+bZhhLP6+sn8LVQb4cpE3Bv7clgm4tAmL7gLAa/2wowJNegCI4qOfHxZmY7epqf+8h20xWBgIADUa6sS3QnG4BvnGNzj8qwhfRuNl04rJ9VokZ+Gcsf7EZ/fxbn+ssTivtdMj4f8ZU6Rfz4XaXALgRRkWZUOlhw8XKSGY7QcAp6R4ObvlmMVGqvy4mOWLoe4AcFuOyddQY6xJ06jDwmzoSbwchGlWZVXfNL6C/hFzz2+gi3mf8MsyaEkEusCDjcd9sbeKomq0J97tj+cCwGZBQ+LtfNB6+6ZSlDVhnj9m+IAFaEgsycFV03nxlBQ5CqSG4KUgarDZcL8T00qn+9bjvrjagIM1yFHgs/tYEU4/4OMi6EhwWDg1gqLhH/nYUII0MXIUiObjagP1+2PdcXoEfLkggdQ8fFGK0iasLcb6QQDwdj4KlAhzxcZBuNpIv0qH0JOoUAMAj4CgVX7ba7moNr07b4bQ6cwYgSQhSprgRiDABSkhKG3C97FwIQBATeLHatRpIFbDv1W1JpLEHyOQJASAzaV4Mw9aEv8uwe5WUwaHhbMjqfFDwMbmUmhIXKinnukOYY2XsTmK+v2fFKPQtMqZnkS6FAAGuSHQBTUa1GgwxbgeSpcAwI/GQizvh8OXCwAsYM0AuBIA8HMNAByrw7ZysIAdMfC0KuuJYIFnuLl66Fv1gl9q8ZPY5K/YtAbfGCF1xw0z1lRvbI5E2lCoSZyRYk0xrhgryKpMh5bxIupEAK/1o27RWdPyXcMFLUN9nHG6rbeoKDpgnZcRysOqCPwjH0o93sg1+aheB7kOALIV8DtLP7FABQBFxpF9aKs8QQEb4a7IVqBYBYUOf8sGgFGeUOnxv9qWMe2mHP+rRbIIHhakg4bykKMACeQrEWW8Rw8LMcgNAHIVKDFXh3yA6dqfBHZVYFs5/mygezq0gbR10IDDQigPdxWoMu3HAa36oouxp5j1eM3Cymy9N0OwuxLXG/FLrckE3nwPg1wwnTHZDBcAaBmXGk2fqQYdALgRqNOirAkALsnwuGmdgy1l2FKGm6NMmG4LU7yRowCAA+KW6XaPcVxalof/mHttjcD0OfhXEd4vBICh7pjpi/Ei7K/G1xUAY1ySmr6jQaEHQA0YzeB0LXpiJVscFrZGY2wmSNNHw5MDfxdUq8Ej8FUMNZFWqCHVItKNsjXWeKN/q2sJw9yWo7wJALUSsgleDMR/S0ECa4vxuC+GtSJYQ1Id3exPa43PSwEgmo+sROqjPUZXk9a3LsnQpKeG3yo19cANsmldKuujumM88Sr9PdwAMNsXAIpUWHcfALQkFucg9hL4p5HZAADP+FM/6dP72F0JmRZXGjD/DuVivdYPQS4oTDL5+24I9eX/GoDCJPPrGCYSPKgwVYMOYzPxfwU4UYc/JFhbjMGXcMSyt7gaJieFjnKAcxT4n/FEmktcqcYbuWjQQaLFkhzqIZ5p0xLoXcpbXjsQP9fQXaz3w3GoBpVq/PMeNpVAB+qAJ3wR7wEAwTz8JxJLciDX4YW7Jue+EIhn/AHQA8dFxn7gw6F/1D7WD0SNBj9Wo1GHNcVYw4hgPe2Px9tdHjzqjQNilDQh5hIi3HBR1jJ7lTUhrJUxfDa2V+DrSpAk9eQNcEOqpdWsLEKXdkxEHGwcRG8M5uHMSEz1BsFChRrVavDZWBaKfa0c2cXB+DUOCa0GPT8u1g3ErsGdtqH9iYDPxg9D8O3gFm/NAB8ung/E5XjsHwJhu0/sf6Mon7akCRlSTPfG8Tjqo4OmvfNZf6yOAJdFUTVBhPThFnlDlsOOecd1GhSp4Eogwg1ubTwVVWqUNEHARpRbp/cvQs+jtAkRrihIsuh4mRYlTWjQIcAF/Xmdu1yFGmVN6O8KP0YZtyIVIi4AwMtB2B6Dei3ylPDnmnQ7W8GOhV+8ufDuqERdgIuJU2shfpfgtBSlTdRVLIQnB0Os/blBLgiyzE4hx2TMsC2coEwPE4tzUGBctI1xrLem2hfOx1a9FoVGqsYJsTK8J40BQICa+fj2fwG5U9bLkGhRooIXlwoOPThwSrYeWPRpnpwJfWw5E/rYcibY2Ce8JKP2AIe5tygXmnFHjlwlAETzMdiCWN9pKSRacFmY4QMAVWpckLX55c04I0WdFmzg8S7E6G7LkacEgL+IOgh2dCtIm+LTYhInSZwkn7pl5tPxV6lPf6mx6Nvi/yRxkhSeof57pIY6/d/32ztr9BUSJ0neqU6YrdOTW8vIVYUtLW/nUdfKaujE99gbNh4J5wdQEZ3/1dC3ryrV1Eaqv0vLbrIjQKzByCtYkgNxz7yGrROwcScP4WG8EKekUOpxuAbzW71JME1M7bg/42/lptzDQlyIBxgR+i6iSk0J2VojNQRz/QEgylFeGgDYI5axIBCnpACwv9qErR+Nr6xa0KqxWIU0MUqaoCHhz8VkL3qwvDUadZQW35ONwFZRuzNS/FILhR5jPKkNFxp0JI7UIqsBYg0EbMTwMcuXCjDekeOQMZSercCuSiR6YIg7qjXUtaLcTIIU7WsgD9egTotgF0z1RoYUv9RBrkO8B571b9nX7wpsvzqu1yLwHFR6uBCoGkdpCKvVCD4PHYlIN+Qa5fL/rxyv59LFDq8EY5vx5UgJV5DZACEH0kcA4H+11Mb/vwdhWSgAkMDfsql9dwOShJBqcFcBHgFVMgDUajDxGm6Y9h5fLn4fjjgBNpXg7/kmH60biH+EUTotAFmJlEDBEg3k8D9xvRETvTDQDV+10p/He+BCPLhdTpKwvQcv5FAunFrfsgOUJqZYeS6QailSUVSF8vCPMLzeD14cAPiq3My41Bb+W0pRJWBjcTBeDMQVGe6aVo9efo+iaq4f3u2PiV4AUKPBqkIA8HNpude+XMQJTERnrWGJBtKAU1LsrMD8ALwZQu1vZTbg+yrGN3YednFOFwTiJzEAfF9FCVoPGFVpzxmHQaUey8NwvREbBiGGDwCx7ng9FwByFC3qrfaxuRQAWMCJ4VQwfqYvnrxlcoxB+uHHxdqBAKAn0e88KtWUwOa5AMQJMOwyADzjjy/Mv73TUg2kAXoSOwZTPzxOgJeyAeCCDM8HmvvqzsAubE33hhcHEi3+kFDPnWEmG+NJqcMADObjkwEAoCWR1YiL9fjO+PSpzL8DhI46DbUkGuXZsm8y2w8BLia6sFeDKf1ItRp/NuCUlBJXWQydKUwAAAJhSURBVHgVA9rSQG4vh0qPn2tM2CJYmG+cPpszjhotFg22A7uw5ULgKX9sK4eWxE9isGAcBk1fNn1GivUlOCmhJIjNsHBXV2wcf2i7tP1dTdiS6/DZfXxfjVzTEbJTe8cdaiBbw4Pd4lO4GT0UvS3cA3st0xcEYFs5AHxfBS4BABwWnmnF1ikpJl+DjkSACxYGIlmEGg1eywUsnkt5xuNoj229qa7viZs4KQGAyV541BvJIrx4F3cVnZuxO9RAtkbr9Yltsy/txdbDIvR3RbEKZ+qp+/Kot4moYUsZdCRYwOV4qnM0u3YWPvX9eHAjoNTjagN0JOVJV6lNxN535BRVBtGEAYY73nwVS67WbRrI9mGvqC4L1GJLT1LKOtowqNQBAAnIdAAg01J9EQydXltoHT9cfg8qPWo1eDnb5HSl8d/NHe6HakpQ3XxYcx/NV6LSqNqkoUMNZPfAjjH41i6QgE3XQT5mVPGNzcTEa4i42JJUavZ+mcUnAykXeWMJPM7A7yyO1ppMY0PdEcIDgANixP2J+Ct45raxF2qox6gfj1oJHa9D0DnzcmuDBhKgNJDCDCReoRYGzRrIboAd2RrMb8lafNKPLltYGozUELBZaNAhXYL+PGSMoPRPBy1T0QKIdMPJEdQwpSXhzcXXMZjWKgjJI/DTUCpl4UYj7sqxPAzrBwKAQocTdQDgRmBleMvASJv2mmFDDaTV6OGd/not7inhxUVE10J/OQoo9Yjlmw/w6EkUqSDRYjC/Ta1Lgw65CnhxMKCjwGBXNJBdRJ8uw5nQt3fsTOhjy5nQx5Yz4f8DxQZklPFJya4AAAAASUVORK5CYII=;" vertex="1" parent="1">
          <mxGeometry x="390.80000000000007" y="372.99" width="51.07" height="60" as="geometry" />
        </mxCell>
        <mxCell id="LtpZXM9xmSWKar8uXynZ-34" value="" style="shape=image;verticalLabelPosition=bottom;labelBackgroundColor=default;verticalAlign=top;aspect=fixed;imageAspect=0;image=data:image/png,iVBORw0KGgoAAAANSUhEUgAAAIkAAACuCAIAAACN77kQAAAACXBIWXMAAA7EAAAOxAGVKw4bAAAU60lEQVR4nO2deXQUVaKHv+p09oXsGyQQdoXIjuLoMDPyHsM4Low6z0MiTw+OR9kcHCc8DWAkCOgwbIM6LrwHZwwSxDn6fDqKCDwfatgmRNkSSSAkBEhIh6yd9Fbvj65OL1m6O3SRSqjv5I/OrVu3btWv7lL3/m6VIIoiKopE09sZUOkSVRvlomqjXFRtlIuqjXJRtVEuqjbKRdVGuajaKBdVG+WiaqNctPIlbTQad+3atWnTJr1ef/2pTZo0ad26dbGxsdefVF9BrnJjMBh8KAxw7NixrKysK1eu+CS1PoEs2phMpt27d2/evNlXwlg5evRodnZ2TU2ND9NUMrJoU19fn5+f39LS4ttkRVE8dOhQQUGBb5NVLLJoI4qixWKRI2VAvpSVhtpPUy6qNspF1Ua5qNooF1Ub5aJqo1xUbZSLqo1yUbVRLqo2ykXVRrmo2igXVRvlomqjXFRtlIuqjXJRtVEuqjbKRdVGuajaKBdVG+WiaqNcZNEmLCxszJgxfn5+Pk85MTExLS3N58kqE1m0CQoKysrKmjlzpm/lSUhIyM3NTU9P92GaSkaQ790POp1u7dq1X3zxhU/cfvHx8WvWrJkyZYogCNefWp9ARm2AhoaGoqIio9HYcZPJZNq8eXN5eblj4KJFi4YPH95pUikpKSNGjJAll0pFxjUeQERExN13393pJoPBsG3bNpfAiRMnTp48WdYs9SHUfppyUbVRLqo2ykXVRrmo2iiXG6GNxWIpLS01mUw92LeqqqqpqcnnWeoTyK6NyWT65JNPnnzyye3bt7e2tnq178mTJxctWrR8+fK6ujqZsqdk5H2+MZlMH3/88aZNm+rq6v7617+azea5c+cGBQV5su+JEyeys7PLyspKSkosFktOTk5UVJSsuVUaMpYbR2GA1tbWt99++29/+5vBYHC774kTJ5YtW1ZWVmb9d9++fTk5OTqdTr7cKhAZtfn888/bhbHS1tb21ltvbd26tfsRtjNnzixfvry0tNQxcP/+/bm5ub5dFK9wZNQmPj5+wIABLoFtbW3vvPPOtm3bOh1kA06cOLF8+fKzZ8+6hGu12oEDB2q18lbCisIvJydHpqSTk5NHjBhx6NAhl46WxWIpLCwEysvLXV7kkJ6e/vrrrxcXF3dMLTMzc/HixQEBATLlVoHIOw4NFBQU5OTkXLx40SVcq9VqNBqXticiIqKhocElpkajmTNnzpIlS24qYbgB2oiieOTIkZycnIqKih7srtFoHnvssWeffdbf39/neVM4smsDiKJ49OjRFStWVFZWerWjRqOZO3fu4sWLb0JhuDHaWDl27NiLL75YVVXlYXxribnZ2hhHbpw2QGFh4dKlSy9duuQ2pp+fn1WYm7PEWLmh2uCZPFqt1toru5mF4cZrAxQWFmZlZV2+fLnTrf7+/hkZGYsWLbppq7J2emGOYMKECa+++mpycnLHTVZhFi5cqApDb83fTJw48ZVXXhk0aJBjYEBAQEZGxoIFCwIDA3slV0qjF+q0do4fP/7uu++2j62lp6c/8cQTHo5S3wz0pjYq3aPOSSsXVRvlomqjXFRtlIuqjXKRdxpRp9MdPny4ra3t+pMaMmTIuHHjrj8dt4iiWFxc3On8nrdotdqpU6fGxcX1cPfrz0FX6HS6l19++cCBAz5ZfxMTE7Ny5cqf/vSnbmMajUY/Pz+NpodVwpEjR5YtW+bJgKxbBEGYNGnS+vXre+YQkmtOWqfT5ebm7tu3z1fPT3q9vqCgYOTIkampqd1Ea2xsXLVq1bFjxyZPntwDc4F1KNaHX6Soqqo6c+bMtGnTQkJCvN1XlmfPlpaWFStW7Nmzx+eJR0dHb9y4ccKECZ1uNRgML7zwwt69e4GHH344Ozvbq9JTXFw8f/786upq3+TVgXHjxr333nve7iVLX0Cv1xcXF8uhuk6nu3DhQqebGhsbly1btnfvXovFYrFYdu/evXbtWq88UxcvXpRDGKCoqKgHe8n1rQg5ku2GxsbG3Nxcx7WlFoslPz9/w4YNfdfS1k/60C0tLWVlZS6dDqs8Gzdu9MRJqkD6iTYJCQnr1q3ruLzdYrHs2rVrw4YNfXExQj/RBhgyZMjq1avHjh3rEm4ymfLz87ds2dLY2NgrGesx/UcbupbHaDTm5+e/8cYbfUuefqUNkJaWtnr16jFjxriEW0vPm2++2Yfk6W/aAGlpaWvWrOkoj9Fo3LlzZx+Sp+/Z8s+dO3fkyJHu4wiCMHv27MrKyvr6esdwqzyCIDz99NPh4eFyZtMH9D1ttm7dunXr1h7vbjQa33///ZCQkPnz5yv81Tj9sE5zi9FoPH36tNls7u2MuOFm1KavoGqjXG5SbRTe0ljpe32BlJSUyMhIt9FEUTx37lxzc3PHTTExMZmZmcpfOqr0/HVk3rx59913n9toO3bs2Lx5c8fwxMTElStXTp06VYas+Zi+p41Wq3XrZM/Ly/vLX/7ScSl2QkLCqlWrbr/9dtly50v6njbdI4piXl7e+vXrOwqTmJjYh4Shn2ljsVjy8vI2btzYUZikpKSVK1f2IWHoT9qYzWZrVdZxJi05OTknJ+eOO+7olYz1mH6ijclkysvLe/311zu+asoqzLRp03olY9dDP3m+KS8vf++99zpaA+Li4l566aW+KAz9RpuhQ4c+99xzLs89SUlJr7zyyp133tlbubpOZNHGz89Pjo8RAIIgdPrMKAjCzJkzX3zxxYiICGtIfHz8ypUrvSox8i3L7lnKsmgTERGRkZHRfpl8hSAI06dP7+qxUaPRzJo1Kzs7Ozw8PDY2Njc319vG/7bbbps5c6YvcuqEv7//kiVLerCjLJ5bjUYzatSoiIiIwsJCX/mPBEG48847c3NzY2Nju4k2YsSI5OTkWbNm/eQnP/H2EEFBQVOnTq2oqCgvL/eVxS4kJGTBggWZmZk98GfLuN7T+t7BHTt2+ESe0aNHL126tHthfIJOp9u4caP1LWLXiSAIc+bMeeihh3pWp8m7FtdsNjc0NPhkFiskJKQHdu+e0dra6hM/myAIkZGRPW561XXSyqWf9KH7Jao2ykXVRrmo2igXVRvlomqjXFRtlIuqjXJRtVEuqjbKRdVGuajaKBdVG+WiaqNcVG2Ui6qNclG1US6qNspF1Ua5qNooF1Ub5eLdOoIaI5/XclZPm4VBgcyIZvQNsiVdLyeb+VEP8PNIBnR20jVGvqnvJNzKiGDGhGIW+aQWICmA231sWu0ET7UxiSwrY2Mlbc7vrH04jrdHEyXDUhGLyDuXuGzgpSE+SO2/LvHnCoDCKYwP6yRCUROzf+hy9z+ksG44eosU54FYPnJ9VZvv8ahOs4jM/oFXL0jChPgRaNtvdw2zijD44CXDTtQYmXiUp4up6ZNvDPQNHt3w6yv4n1qAwUFsHc0vohBFPq3l8TPojBxq4M0qnh3kLhVvuGKgqJdeFPhIPOuHuwaGy7Iqwg3utTFY+FMFgFbgs9u4NRRAELgvlq2jmf0D4X6UOq9JarXw0VWKmmgyMzSI2XEMcfjg0OEGTrWggbmJ/Kgn/wqXDAwLJjOB+ACAU818fFWKfKaFbZeZEs6YUA5c43wrYX7cH8OWi1xo5a5IHra9tLzGyO5qSvQIkB7Kb+I6b1fcEqJhkJffrermfA81cLoFYE48ARqAyjb21gFMDZcuJrDjCgaRxAB+GW1P1n32DzVQbQC4J8qelpX7Yzg6mfFh+Dm85WJ/HXNOcdmhLlpaSvYQe7Ox4wqbKvETMIk8U2KvD1eXUzCJ4cHs0bGsTAr8qo6v6vjTMMaEsqWSD2sYHMTOK3xYA7BHJ2mzqZKsUqeq9flSto3mPtmt7W7Ot6SFJ04DDApkRhTA9svS2c1L4t3RUpyMUwBLU73U5ritbpnU4X1jGsE18GQz936P3gIwbQAxWvZfo9lMzjkCBf5jsD2mWeR3xfwsksnhfFhDqZ5aI2vK2TqauABGhVDcAhDrz8BAqTxZudBKeStRWtpE5iQA/Oclfv8jQKCGn0eit/D1NXRGfnOC/RO4y/VT8O7PN+ecU8jEcO7vQmO35/vrWLQCJpF/1ErafFUn7bvP9uOzWunHQ84fLnCvTa1tOXi0B+sUXiiTMvrGSJ4ZCFDSwu3HuGZi5XnmJRPnkEhmAttvAXgqmZGHsIh8Vw+QkcC4MNIPA/xbPFtGOh1ChPti+ftY2iwYRAwWskoBgjR8M5GJ4QAfVPPbk5hEfv8jRye7z7YjRU2uTd28pC618eR8fxbJ3jo+q+XPw2m18K2tp36ulfJWBgfxaS1ASiBTnPvl7vtp7W/lMbrrjLWYpVtgdIiUUWBkCAsHAegtfF7rFP+xROnHsGAS/AGaPFsMsnAgWoFQP6K07L8m3T2PJ0nCAI/ES8XlWCMVXn5EJFBDjL/TX3gXN7CH5zs7DuBMC+dbOVhPm4UADQkBAPuv0WTm63p7NEfcl5sE251e2dlJWpW3UtGGWQQY69wstf9b7ry+PNahDAX7AXjYFR8abP993pam60HDOFgvHTTFm7b90Xi23eJRTA/P98FYFpYgwme10o0yLYIhQWy/zL46IrVSM/mbDtq4Lze32+rr/73muumsniHfMfYwr10ACLN1NF1u/0bbv8HOPVGtQw/Cq1dmhfl18tv1oCbbQWUblvLwfJMDmRoB8I9aqbGZEcWMaID9dXx6FSDOv5N20X3Gx4dxSwjAiWbynL89srwM4GQzp5sBEgOkNulwI/Ume7QvddKPiZ09kHdK91I5itreddyjswe2Wfj6GkCQxrVv6UM8P19rffVVHf9sBJgRLfULKtvYWQ3wQKxTX9eKB+0NvGZ7FnviNM+dZW8dH1/lwR+kdP0FsgYD+AlkJADojDx6kh/16IysLeeDaoBbQ5nu/rVnEu3jDmf1XDZwses2Y0IY6aEA++p4oYxqA+WtzD0t1R6PJ8lYbjw/39mxAHoLZpEILVPCSQyQqj5rmetYoeHhuMCvY3htGEtLMYpsqGBDhX2TAJtHSAULWJXGHh3FLXyuY2SBPVqElrxb0Xhccw0MxF/AKPKFjqRv+GMqrw3rMvL2W7n7nzSbWVvO2nJ7+NhQXh3q6RF7hofnOzKEW0M51Qzws0ipiMyI5kQzwAAt93T2XSlPb6o/prJnPNMGONU2E8P5bBxPD7SHRGg5PImFg+zP5BqBf43m0KTORxi7IljD8iH2c3OsMToyIYzCKdwfa6/rgjQ8lczBiUTI/L4ez893tq0XPsMmw7/YftwbIw0ZuOD1WtwaI+f1mCEtSOoIdorBQlkrTWbSgojp6esuGs2UtBCldeqYdUODiXOtiDAqRMaqrFN8cr4uqOuklYs676lcVG2Ui6qNclG1US6qNspF1Ua5qNooFx8/N5fq+aEZunBwVRv4tgEgRsvdHoytuZjKPLSHnWqmRA8wPbLn5qwrBr5rAEgPZZhnT76+R/Qph+pF9onsExMOimaL69YVZdLWrLMepfaHH6X4hY2iKIqNJunfB77vbq+lZ6Vo39V7kfO9OvHRE/Z/P7kqJbLhgheJ+BYf12lTIxgRDHDFwIEO8z0f2D7WnJnouql3yTjFjONSiVcOvh8LzEiUvBA7q/mFw/DqqWbJDZQeKo3qe0uIhu8mAUT7Otdf6FxD7hogHcvRvXWD8b02mQmSNn+v4Y2R9rHhD2psERwKjbUJKWykxkiYH6NDeDC2S9OIBc60AKQGMtLBh201uV02MCKEuV2UyPJW/l5DRRtGkXh/ZkQxbQCAzsh/10p+1Wsmtl0mJZB7omgyS8eK8CPRYUi3execW+udV/hem2HB3BFBQQO1Rr7UMStGCt9dDSAgGZeAWiO/OM73zqaWpf7sHc+4ziYUWi2S1+uBWHuJfKeKBSUYbQO2a8vtjo523qpiQYk0t29lxTl+l8zbo7jQJqUJXGzjidPcG8M9URxvksI3DLfPnLp1wbm13nmFLH3oDNvVz7c1MMUt0jzS9Ei7azKrVBLm4Tj+Y7B0ua8aXe1h3XC8iWdKMIoI8FAcCwdhcbB7WTnfKgmTEsjzqSwYKHXe3qmiqIlgDeNs3scgDePCupyPsLrgDBYCNfwymumRCEguuIPOCxCs1ru7BpCVKvXxrNY7b5Fl7unRBJacxSTy0VXaLARqOu8FWPvBcf6sHQZgERn4LZcNkmvQE964KJWGtcPISgV4PoX0w3Y3BaC3kJVKURN/Hi6tSLk1lAUlAMUt/Dae41OIPUitkWHBHJ/S+YG8dcF1Zb3zClm0ifVnZjSf1lJv4h86HoyVGptAjd2+DDyVzFPJANUGjjRy4Jp0TVs9XpVQUA8gwELb3OvgIH4VYy+vwC0hrB4KYBIpbKKgnvdtjhTPD9SlC66Sg/WSC87RaeVivbtk8NR654hcc7YZCZJdMf8KY0KluuvXMU4tZ7OZ1y6ws5oS54Liua2gxggQ60+IgytqcIee1dfXWFfBvjqanS+Q5wfy1gXXY+udI3Jp82Ac4X40mvmk1l6DuzzW3P+D5AmeEcXMaKZH8u+nOd3iRRtoteO43JIu5oID15hxHLNIQgCPJzI9kqtG5peAN42tty64HlvvHJFrPC1YI5myms2sqwCI0vIrB5P8qWZJmHlJfDme51OZEiGduee3s7Xno7dw0uGxsaDBKY61TRLg8CS2jOSReLvBqv1Abg/YKy44Gcc623tr1q7kI/FObhK9rZC33+a7qiVTmeer4No9xAtLqDbQZuHl865Oc70ZQIQGM0CDibernDKGrfxVG6hs46zr942gl1xwMnqE7okiKYBLtoUpmQlOW8eGMiiQyjZ21zDuCFqBfzbiJ2AWuWLEJDpVC13xZJLUFT5wjcRvpAeL1CAuOBivfxkjLbq78xiTIyhqst8N7ZbEIUFcbKPGSMq3TIng8KROjnXjXXAylhs/gUdtegwO4i7ngedADR+OlR7vv2/idDNZqawbBtBitttWuydQw5fjuTcGQASNwO9TWJXmFOeZZBYPwk+g0cz+OgYH8n8TJPfWR7bVcdmD7U62rrxwN94F18seKIvI+VbqTNwS4tTX8paqNqoMDA8msovLVG+iVE+UP2ldjI8ZRc60oIFRIW6K7A1zwan+NOWiznsqF1Ub5aJqo1xUbZSLqo1yUbVRLqo2yuX/Abd7olhE9j3jAAAAAElFTkSuQmCC;" vertex="1" parent="1">
          <mxGeometry x="473.62" y="312.99" width="47.24" height="60" as="geometry" />
        </mxCell>
        <mxCell id="LtpZXM9xmSWKar8uXynZ-35" value="" style="shape=image;verticalLabelPosition=bottom;labelBackgroundColor=default;verticalAlign=top;aspect=fixed;imageAspect=0;image=data:image/png,iVBORw0KGgoAAAANSUhEUgAAAHYAAACeCAIAAABo0mmpAAAACXBIWXMAAA7EAAAOxAGVKw4bAAAWkUlEQVR4nO2deXhUVZqH31pTlX0jIRES2UJAHTaZ7gZcJqJI2yKCGInLgCNtty10owZ7utvp9qEfRVxoRp3HBptGmXlAgg6Cg62DCCgGAQWlWUISIIQkZF+rktrunT/qVtZKpereW6Rg6n38Q27OOd+p3z333HO+851zNaIoEiaYaAe7Alc/YYmDjl5JZofDUVVVVVxc3NHRYbFYBkxvMBiMRmNKSsro0aPj4+M1Go0S61cK8iWuqKhYs2bNnj17HA5HoHmTk5MXL16cm5sbEREhuwJXChp5r7uKioqlS5cWFxfLNqzVahcuXJifn6/T6WQXckUgpy92OBxr1qxRoi8gCMLWrVt3796tpJArAjkSV1VV7dmzR7lth8OxY8cOl8ulvKhQRo7ExcXFMvpfr5SVlbW1talSVMgiR+KOjg61zHd0dKh1t0IWOSMKr+MzvV6fkpLiI5fdbq+rq+t7/aofuikaF3dn2LBhO3fu9JHgq6++evzxx3ub1+u12qt8+qOaxIIg+E7gtbUKguBj1NjY2FhUVNTc3Ky0ct4qExERYTQao6Oj09PTk5KSVDfRiWoSO53OASzpvdgSBMHrvRFFcdu2bW+88UZzc/OAN08e7qdHq9XqdLqEhISbbrpp/vz52dnZqj9VqkmsLsePH3/hhRcGvG1KcA8WXS6X2w2wdevWDz/88J577nnyyScTEhJUNBSi/eCOHTuCqq9XbDbb1q1bn3zyyXPnzqlYbIhKXFNTM1imv//++xUrVtTW1qpVYIhKfMMNNwyi9dOnT7/44otqTTtDVOL77rtvxIgRg1iBzz77rLCwUJWiQvR1l5CQ8NZbb23YsOHIkSPBmGELgtDe3t7R0dFfjy8IwsaNG2fMmKHcVohKDKSnp//ud78L3tKiKIqiKNbU1Hz00Udvv/221WrtleDEiRNVVVVpaWkKDakmsc1mO3z4sI8ERUVFMooN3vTaXXJaWtqSJUvi4uJWrlzZK0FHR8f58+cHR2KDwdD3Yn19/aOPPqqwNoPFT37yk3Xr1lVXV3e/6HQ6KyoqlBcu53VnNBqVG+4kFNxARqMxPT297/WGhgblhcuR2LdHLSDi4+NNJpNapclGo9FER0f3vd63g5aBHInHjBkzZMgQ5baBiRMnRkZGqlJUMLDZbMoLkSNxXFzcokWLlLtLkpOT8/LyQqGjCCpyZNJoNLm5uQsXLvT63vOT5OTk559/fuTIkbJLuFKQOWiLiIjIz8+fNGnShx9+WFZWFtADFR8fP3HixLy8vP8P+qJkXKzT6WbNmnXbbbdZLBb/1980Go3JZIqMjLwi+gclj2knSqceer0+Li5OeT06sVqtTU1NVqvVZrMNeOf0er37hsXHxwfjtanKakAITaAdDsf27du3bNly7ty5gJal9Xr9qFGj8vLy7r77blXaXSeqONtCRWKHw7F69ept27bJ8MQ7nc6ioqKVK1eePn06Pz9fXZWVEyrOzO3bt8vTtxOn01lQUOB7FXxQCAmJrVbrli1blK8kOZ3OrVu3qjIlU5GQkLipqUmt5bKSkpKWlhZVikKlEUVISGy1WtUKu7LZbP4Ek/dCFEWvUWSq+E9C4nXndeai0WhiYmJ8TNMFQWhtbe3rs5fhxbdYLF4fI1VcMSEhsdcmHBMT89prr3n1MbqprKx86qmnlHcLTqdz/fr1fePt9Hq9D+v+EyyJLR7c/0xNTQ10aqDVatPT04cPH+47jYyK1dTUuNfuRFFsaGjYvn37vn37+qaMjo6+7rrrAi2/L2pKXF9f//nnn+/evfvUqVMtLS3dH1idTjdt2rT8/PyMjAwVLQbE2bNnV69efejQIfeczV099wqe1/QzZsyIj49XblcdiR0Ox/vvv//uu++Wl5d7TeByufbu3VtVVbVhw4bY2FhVjAZES0vL008/XVJS4md6k8n02GOPqWJaBYmbm5tXrVq1a9euAWf0RUVFhYWFs2bNUm40UA4cOOC/vsDDDz+sliNQqcRtbW2/+c1v9u/f72f60tJShRblEZDdnJycJUuWqOULVCSxIAhvvvmm//oCo0aNUmJRNn7a1Wq1c+bMyc/PN5vNaplWJHFRUdF7773nf/rs7Oxp06YpsSib6dOnjx071ncsx/Dhwx955JH77rvPayi0bBSVtX79+v5mZRqNpvuIymg0zpgxY/ny5TExMUosyiY2Nva111579dVXCwsL7XZ7ZyU1Gk1SUtL48eNvueWWW2+9NTExUXXT8iWur6//+uuv+143GAy333773LlzU1JSDAaDew4aFxc36HtxMzIy1q5da7PZOnc26PX6mJiYYDs/5Ut88uRJr96ARYsWPfHEE8qfNUEQKisrfSSorKyUsSoRERGhYhyIPyjaZt53USA1NXXx4sWB6us1fWtr61NPPTWgjyIgQ4OCfIm9bqLLyMiQ8S726tASRVGe/yHUFl7lOzPb29v7XoyNjZXhN4iMjFTrJW4ymaKiolQpSi3kS+y1H9TpdDIaUUJCwujRo2XXpDtZWVmqOBZUJCRc8maz+YEHHlDekA0GQ25ubijEIXYnJCQG5syZs2DBAiUqGwyG+++/f/bs2SrWShVCwiUPGAyG/Pz87OzsgoKC4uLigCK4TCZTVlZWbm7u7NmzQ22FHyUS99cXyy7QYDDMmzdv9uzZzc3NFovFz/UhjUYTFRUVInHKXpEvsddIGXmvu+6YzWYVXTCAKIoWi8Vms/W337o77nm/Xq+PiopS64FQ1Pf1vWi320VRDJ2RaUlJyaZNm44fP97a2up0Ogdc59ZqtUaj0Wg0ZmZmzps3LycnR/npUKHSFweDffv2/f73v6+vr5eRt7y8/NChQwsWLFi+fLlC70qojChUp6SkRLa+bux2++bNmwsKChTWRL7EXp8g30d4XDZEUdy0aZMSfd2495AqPHNEvsRe3+A2my0UJLZYLMePH1elqOrq6rNnzyopQWWJrVZrKEhss9lUdMJVVVUpyS5fYq9Hj1y6dCkUDgUTBEHFE0MUNhr5I4r09HSDwdBL0IqKil27ds2fP19JnZQjCILXO/3ss89mZ2f7yPjMM88o78F7IV/ikSNHms3mvr9k9erVjY2Ns2bNSktLC94BYe5lt0BzZWdn33jjjT4SBGP1S77EqampkydP3rt3b6/rVqt17dq1a9euBYK3MykmJmbq1KlLliwZ3JNB/EHR1GP+/Pn79+/3MSsNXsC6xWLZuXPn0aNH33nnncu8Fhcoih7kGTNm3HrrrSrVRA4XL15UPjUINook1uv1zz333Lhx49SqjQxOnTo1iNb9QYWt4i+//PLEiRNVqY28CgyWaT9R4Y2fmZn5+uuvP/TQQ5ffY2swGObMmXOZjQaKOp62+Pj4/Pz8efPmffzxx59++mlNTY3T6fQRHa0cjUYTGxu7bNmySZMmBcmEWqjmzNRqtWPGjBkzZsyyZcuam5srKira2tpUOTLDKyaTaezYsQFFgw84lHa5XF7bhEKXcVD8xXFxceruPVeFwVoouDpd8r3iQt0IgvD000/7nr95PatT4Wbzq1Ni9/pQ3+uq+x/8qszlN3kZ0Ov1Kp50pjAm+uqUODo6Wi3fhdlszsrKUlLC1SmxXq+fO3euKg155syZCmc3V6fEQE5OzoIFCxR6U7OyspYuXaow2E7mZ6yuCGw2W0FBwTvvvHPp0qVA85rN5pkzZy5dulT5saRXs8RuWlpaSktLq6qq/P+lMTExWVlZycnJqkQ9X/0SDzpXbV8cOoQlDjphiYNOWOKgE5Y46IQlDjphiYNOWOKgE5Y46IQlDjphiYNOWOKgE5Y46IQlDjphiYNOWOKgE5Y46IQlDjphiYNOWOKgE5Y46IQlDjq+4gROWCjudhabBkxakgyMjyRS6TkYMvmiifr+N97enYRO01Xtf4onLgQiT31V4a9VvOrt3PJIHUvSWDUKU4DPwGeNvF3JZgVH4P/rWQ70f3JB681E67qqfXQqE718UPRyI6ejsLpYe5E7v8MZSJTLgyeZeYzjAX/W5IrHrwfpzSzmJOMUaXGyr4nnz1PvYF8TL13gt5n+WvpEhe/9dlE4hWF9wt2jBqn78o1fEicaun7PP0QzJYbp3wL8qZxnM9B7tlB83cJnjVTZMWgYHsGcZEaZARoc7KjHJgA0Odl4ieER3JYwQC7fDDV6kdg3tQ621XCmHQ3cEMW8IVJPbRPYXAMwPpJ/9GzP+aieOgdGDXmp0pWTFg61AtyZyNBAomrlvA6mxTE5hm9bqXNwrI0bYxBEFp1mU8/4x2dLWZfNoqFcsLHYs8WzwsbiU9yVxG0JA+RSl7UXWVGKvdtu7WdK2ZjN3clEaFl5nrPtTI/jy8kAdoEHTmBxAdwcL93LP5axuRqjltrpgZmWOWib5HmNnLAA/Fe1pNQPYvl1Jg+motPgEHm6BBHMWiZEo9MAmLRMiGakeeBcvvlTOX841+O/lv5HGhuq+FUxdoEILXcmcks8GmhwMO/vfNkMcG8ywMEWGp3S/1g8O2j2NAK4RKmjm5lAbIDNUuagpnMw1OgASDWydBgXbWwZj1ELYBcpqKHBQa2dsZEcm0ryl9Q7GGXm2FQpr+9cKT4fxrUXe195LN37j7cLrCgFMGk5MJnJMQAFNdx/AqfIr4o5ciP3DuHVclwinzaQm8JnjV3ZP2/kkaEcbKHBATAv8O9ayZTY5WlmWg3AHYnckQjQ5uJgEweaOeI53Lmj//P95OVyk6CXTHei62dX3edN1DsAFqVJ+gILUphxkS+b+aaVchs/iiXVSLWdj+u7JM4wcaGDz5sA/qdeMnFP4HsSZEpc6zlLJdkAIMLGKtZVcri1S3032v73E8rL5ebbqVzr347r857v2F3f8+To66OlXqKsg+ER3JPMukr+1kCri0MtAM+PYPEpyjo4286ueoCb4qTfGxAy++JDnubmfgX/8TyPnuZgC+Mi+W0mn0zgUU/4vg8D8nIFSrRnJNfWc4Niq6fvNmsB7h0CUG1nTTkOkUgdeSnS2GZTNd+1gaxeAnmtuKCGknaAKTGMNgO8fhFgbCRHp0pjuP+slhJ3tse+7dKfXMoZ72m8nzbwrOczZTaB/U0AJq2UICeeWD0tTl6+AHBTHEYtMxMobeeVC1L97w2exLsbaHIAWAS+bOJDzzn9z3u2trm7TqsLu4BeR5GVjzxpOsdJEVqAGjsXbXQIjDb7lUs5k6K5IYrjFvY08q9nWT6MdoEVpZTbABalSa3YqOWuJDZXS43dPWy/PZE/V0pXpsYGPBJ345fEf6niLz1Pg9PAypHclST9c1Yi22opt5H9NSPMHGzp6lsrbGSYAK41UWGj1sHwr5gay6EpfuVShXfGc9O3WFysKmNVWdf166N4qdvXwO5NZrPnMZqZCJCTgFaDIILcXoJAO70ILcMjuD+FLyb3mDq/mcXtiQDlNr5o4seJfDJB+tN2T8P8bWbXoKrZ6W8uVZgUzdGpzEnumoiatPw0nS8n9xjnzU6SHrUkg+Q/StAzxTMIkS2xmjuWquxU2Mg0MaSf165D5LQVLYyN7Pq1A+ZSkRYn5zoQYWyk1D9cBsKbwoJOeNUj6IQlDjphiYNOWOKgE5Y46IQlDjphiYPOABPor1uosgPcEOVlSe2khTPtAGMjGRc5sLF9TTQ6MWikmXe1ncKWfgt3I4jsqAdINfAjBUe/9TJ9WRF98lKZyB6RPeKCv3v5683fSn/dVee7GIkph0X2iHH7pX/urJOyr7nQb5Z2l5Rm1jG/TLhxCeJbFeIfzvVr+nIyQEeRlyr5FT+q6+1vvWSXXNopRsnVECLUOph8hJ8VUWsf7KoAA3YUwyK4OY69TbQL7KjrWvEGPqiVXFC5KV0Oh4CYEUfhFMDf9Qs/qbZLHvTubBxHm0tmPRUysDPzoaHsbQJ4r6aHxAWeow8f6naxrIMPaim34RBJMTAzwVcH2ubitBUgVtcVmeAU2VbLwWbJgfsDb+eOukR21nO0lVoH0TqyI5mbTKIB4KSly5192srGS0yN4boozndIcRE39jzW7pSVHXWUdxCj50ex3JXUYw1wRx0NTtKN3JHIF03sasDiYkoMC1Ok9Vx/GNgN1Oxk6AE6BIxaqqcTrweosZP+FS6RMWbO/FBK+edKfnGm9yrcknTWjZX+/8YjfNNKnJ6mmwA+qufu7wHWjOZXwwHqHMz+jiPdPnryaBobqgBmJfK3CQD1DnKO8X3PdppsYPdEJkTzp3KWl/T408ujeCajt2mgXeCJIjb2jOK4Lor3r2es59U98TDftZGTwCgz67t9k3pKDIVTMPj3TAx8L+L00lvYLnS5cT+olaR80BNTcr5D0nd4BM9k8ItrSNADrK/08tj2x8+KJH1HmPjlMO5IlPTtzopSSd/7hvDrTHISAOoc/OEcwBBjl0DJBiZE9xss8LhH3yEG5iZLi6cnLMw8Rl3PD2nsbeKvVeSl8sthxOgAvmllS3WfEvvBr1WPh4byfi3AlmopTmdbrfSnBz29RLvAigy+a+PV0WRHAoyP4hdnAIqsTPAjQvKijQ9qAdKMfDtVelx+Wcy/9wyZcHcdQwysGgUgiFzzFZfsFFml+kyI5oZDALkpvNHPUYzftkpRMuOj2DeJZAMiLCvmjYtctLGqjFe6fdBXEPnLOOmHT4jm0dMAhS087F/Ikl8S/ziRBD2NTj5rlO6wu3f+Yay0PAqMi+SFkQBOkaNtHGzuWqQZMCjCzaEWKQjokaGSvsDPr+kt8U/T+Wk6QI2dw63sbaLVFYAVNwWeJvJv10rr9hp4cSRvV9Ih8N91PSTWasjzfNZiuufV0ub3gbt+SWzUsiCFdZU4Rd6vReMJVXkwtUey/U28Us6exq5opc4q+kNnbEb3VbvMPoMNi4vVF9hSw5me3wwJaNH6vCc0vXtwRbSOa02ctlLW0SNxjK7r5Wb2hAwIfq9k+LvI/1Aq6yoBtlRj0ALoNeR2k3hvEzOP4RJJNbJoKLfEU+fgiTPg9yQ9wpOuewNp7hOpNue4FGc2M4FZidwSzz+f4pQ1MFdAv8EVLqD3mlP3oZ6MUZ+/Es+IJ9NEWQf7m6UfMyuxx2rbf1TgEtHAoSlSM+x8U/nZvjr7nMMtXRcLe8bEn7RI+v5LGm97vkfllslHwEZfugdXdI4LT1iotAFdcVmq4O+91yANigVRCo7v1Uu0uwBEaHEBtDilVo/fQRE/iCXNCLC9ji01iHDCQn5pTyueojpb99YaKSKiV8AGUNLOJTsV3r4YkJsiJXvpApsu0eLkSCt5J6WXwRPX+FVhPwng8er+Ao3W9Q6gu9PjXpn2DTnHGHGwa3jr9Uf2xaDh1dEATpGFJzDt4/pD1NilwZ+b66OkeJFttUw4zJQj5J6QJgvVDuneXxMhjVg/aSDtgJcYTiA9grVjACwuHjlF3BdMPSKNBR8ZSq6q32wKQOJxkV1hxfOG9N609PN0lg1Dp6HVxeeNZEbwxSRSPa3STxam8u44kgwAdoFxkXw6scfANkLL+9eTFQnwfRunLKzI4JVRAFYX/9sAYNby3LVd/Ubf3tzN4+l8PKHHZG+IgZdHsVHtzxmpvMjf7KS0nQQDIxS4HRwiJyyYtNL4ui+CyPkOGp2M6397WquLM1YS9FK4uA+q7ZTbiNaRZVYzlq6TcBxF0AmvegSdsMRBJyxx0AlLHHTCEgedsMRBJyxx0AlLHHTCEgedsMRB5/8A/rLCB9CzBgcAAAAASUVORK5CYII=;" vertex="1" parent="1">
          <mxGeometry x="475.8500000000001" y="426.73" width="45.01" height="60.26" as="geometry" />
        </mxCell>
        <mxCell id="LtpZXM9xmSWKar8uXynZ-65" style="edgeStyle=orthogonalEdgeStyle;rounded=0;orthogonalLoop=1;jettySize=auto;html=1;strokeColor=light-dark(#3CD2D8,#EDEDED);" edge="1" parent="1" source="LtpZXM9xmSWKar8uXynZ-36" target="LtpZXM9xmSWKar8uXynZ-3">
          <mxGeometry relative="1" as="geometry" />
        </mxCell>
        <mxCell id="LtpZXM9xmSWKar8uXynZ-73" style="edgeStyle=orthogonalEdgeStyle;rounded=0;orthogonalLoop=1;jettySize=auto;html=1;exitX=0.5;exitY=1;exitDx=0;exitDy=0;strokeColor=light-dark(#3CD2D8,#EDEDED);entryX=0.451;entryY=-0.025;entryDx=0;entryDy=0;entryPerimeter=0;" edge="1" parent="1" source="LtpZXM9xmSWKar8uXynZ-36" target="LtpZXM9xmSWKar8uXynZ-74">
          <mxGeometry relative="1" as="geometry">
            <mxPoint x="600" y="510" as="targetPoint" />
          </mxGeometry>
        </mxCell>
        <mxCell id="LtpZXM9xmSWKar8uXynZ-36" value="&lt;span style=&quot;color: rgb(255, 51, 51);&quot;&gt;NOK&lt;/span&gt;" style="rounded=0;whiteSpace=wrap;html=1;verticalAlign=middle;fontStyle=1" vertex="1" parent="1">
          <mxGeometry x="580" y="443.29" width="40" height="19.14" as="geometry" />
        </mxCell>
        <mxCell id="LtpZXM9xmSWKar8uXynZ-64" style="edgeStyle=orthogonalEdgeStyle;rounded=0;orthogonalLoop=1;jettySize=auto;html=1;exitX=1;exitY=0.5;exitDx=0;exitDy=0;entryX=0;entryY=0.5;entryDx=0;entryDy=0;strokeColor=light-dark(#3CD2D8,#EDEDED);" edge="1" parent="1" source="LtpZXM9xmSWKar8uXynZ-37" target="LtpZXM9xmSWKar8uXynZ-63">
          <mxGeometry relative="1" as="geometry" />
        </mxCell>
        <mxCell id="LtpZXM9xmSWKar8uXynZ-37" value="&lt;div align=&quot;justify&quot;&gt;&lt;span style=&quot;color: light-dark(rgb(46, 194, 126), rgb(237, 237, 237));&quot;&gt;&lt;/span&gt;&lt;span style=&quot;color: light-dark(rgb(46, 194, 126), rgb(237, 237, 237));&quot;&gt;OK&lt;/span&gt;&lt;/div&gt;" style="rounded=0;whiteSpace=wrap;html=1;align=center;verticalAlign=middle;fontStyle=1" vertex="1" parent="1">
          <mxGeometry x="580" y="324.99" width="40" height="20" as="geometry" />
        </mxCell>
        <mxCell id="LtpZXM9xmSWKar8uXynZ-42" style="edgeStyle=orthogonalEdgeStyle;rounded=0;orthogonalLoop=1;jettySize=auto;html=1;exitX=1;exitY=0.5;exitDx=0;exitDy=0;strokeColor=light-dark(#3CD2D8,#EDEDED);" edge="1" parent="1" source="LtpZXM9xmSWKar8uXynZ-16" target="LtpZXM9xmSWKar8uXynZ-33">
          <mxGeometry relative="1" as="geometry" />
        </mxCell>
        <mxCell id="LtpZXM9xmSWKar8uXynZ-56" value="" style="shape=curlyBracket;whiteSpace=wrap;html=1;rounded=1;labelPosition=left;verticalLabelPosition=middle;align=right;verticalAlign=middle;strokeColor=light-dark(#3CD2D8,#EDEDED);" vertex="1" parent="1">
          <mxGeometry x="450" y="334" width="20" height="120" as="geometry" />
        </mxCell>
        <mxCell id="LtpZXM9xmSWKar8uXynZ-61" style="edgeStyle=orthogonalEdgeStyle;rounded=0;orthogonalLoop=1;jettySize=auto;html=1;exitX=0.5;exitY=1;exitDx=0;exitDy=0;entryX=0;entryY=0.5;entryDx=0;entryDy=0;strokeColor=light-dark(#3CD2D8,#EDEDED);" edge="1" parent="1">
          <mxGeometry relative="1" as="geometry">
            <mxPoint x="541.0050000000001" y="385.005" as="sourcePoint" />
            <mxPoint x="580" y="333.99" as="targetPoint" />
            <Array as="points">
              <mxPoint x="560" y="394" />
              <mxPoint x="560" y="334" />
            </Array>
          </mxGeometry>
        </mxCell>
        <mxCell id="LtpZXM9xmSWKar8uXynZ-57" value="" style="shape=partialRectangle;whiteSpace=wrap;html=1;bottom=1;right=1;left=1;top=0;fillColor=none;routingCenterX=-0.5;rotation=-90;strokeColor=light-dark(#3CD2D8,#EDEDED);" vertex="1" parent="1">
          <mxGeometry x="470" y="383" width="120" height="22.01" as="geometry" />
        </mxCell>
        <mxCell id="LtpZXM9xmSWKar8uXynZ-62" value="" style="edgeStyle=elbowEdgeStyle;elbow=horizontal;endArrow=classic;html=1;curved=0;rounded=0;endSize=8;startSize=8;exitX=0.5;exitY=1;exitDx=0;exitDy=0;entryX=0;entryY=0.5;entryDx=0;entryDy=0;strokeColor=light-dark(#3CD2D8,#EDEDED);" edge="1" parent="1" source="LtpZXM9xmSWKar8uXynZ-57" target="LtpZXM9xmSWKar8uXynZ-36">
          <mxGeometry width="50" height="50" relative="1" as="geometry">
            <mxPoint x="460" y="480" as="sourcePoint" />
            <mxPoint x="510" y="430" as="targetPoint" />
            <Array as="points">
              <mxPoint x="560" y="430" />
            </Array>
          </mxGeometry>
        </mxCell>
        <mxCell id="LtpZXM9xmSWKar8uXynZ-63" value="" style="shape=image;verticalLabelPosition=bottom;labelBackgroundColor=default;verticalAlign=top;aspect=fixed;imageAspect=0;image=data:image/png,iVBORw0KGgoAAAANSUhEUgAAAKEAAACmCAIAAAA9NnhZAAAACXBIWXMAAA7EAAAOxAGVKw4bAAATJUlEQVR4nO2dZ1wUxwLAZ/fu4I6FO7qCkaIIlqCAEhAVW+LDaIgmthgTI0ajKWp6Ygt2jbGXqIkFe3yJCWqCsYcgShWjkd6blIPrcHXfh8X1PLjjDl3KvPn/+DDs7ZS9/97uzOzMLEaSJEBADd7RBUAwDnIMP8gx/CDH8IMcww9yDD/sji5A22lsbJTJZMy1/QiCsLGxYSjx9qSrOs7Kyrpy5UpmZiZzWXh4eIwZMyYoKIjFYjGXSzvQJR2LxeLTp0/HxsZqtVpGM6qsrPTy8nJxcWE0F6bpkvdjiURSVlbGtGAAQFVVVX19PdO5ME2XdEySZPt0wep0unbIhWm6pGOERSDH8IMcww9yDD/IMfwgx/CDHMMPcgw/yDH8IMfwgxzDD3IMP8gx/CDH8IMcww9yDD/IMfwgx/CDHMMPcgw/yDH8IMfw0yUdYxiGYVhHl6LL0CUd29jYODg4tINmKysrNrtLTiXRp0s65vP5I0eOdHNzYzQXe3v70NDQ7t27M5pLO4B10TVfFApFUVGRQqFgLgtra2t3d3cnJyfmsmgfuqpjhPl0yWs1wiKQY/hBjuEHOYYf5Bh+kGP4YaoTR61WV1ZWVlRUFBcXM5RFl8bT09Pd3d3NzY3D4TCdFyOO1Wr1lStXYmJisrOz22HVjq4Ii8Xy8/ObP39+eHg4092ljPSBiESiOXPm5OfnP/OUnxIvL6+hQ4cKBAIc75iblE6nk0qlaWlpWVlZAICAgIBdu3YJBAJGM2XkDKqtrS0oKKDCc+bMGTt2bAf27Ofm5m7fvl0oFPJ4vCVLloSFhXXseltarbaoqGjatGkAgHv37kkkki7puKKigr48zJ07l8/nM5GLmajVauoMIwjCycmJy+V2YGEAABwOp3fv3lRYq9VKpVKmc2T2kmVlZdWxggEAarWaOuE6z4NC/fujlZUV09kx67gzfKdarbazPXfRaDR0uB2+ItQ+hh/kGH6QY/hBjuEHOYYf5Bh+kGP4QY7hBzmGH+QYfpBj+EGO4Qc5hh/kGHKSHp5GjiFHS6qRY8gJc5uFHEMPhhzDD3IMP8gx/CDH8IMcww9yDD/IMfww67gzvCO6E67Ipz+jrh3G9zPimJ5Tq1QqmUjfIgQCATUXgcPhdNR0RQO4XK6trS0AAMfxdjgFGTnmbt26UdN4OsMidR4eHiEhITY2NsHBwa6urh1dnCYiIyMJgggPD3d2dmY6L0bmHzc2Np48eTI1NTUyMjIiIuKZp28pcrlcJBI5ODjweLxOculWKBQikYggCKYnpgK0zt7/A53i/oRgFOQYfpBj+EGO4Qc5hh/kGH6QY/hBjuHHskVl6HWQGALHcTPXuSFJUqPRMLpQI4vFYrPZZvaLabVaRguDYZj5hTHAAsf379+PjY0tLS1l6GkSm8329vaeOHFi3759TR+MWq2+c+fOpUuX7t69y0RJKAICAiZMmODv79/qunwlJSW///77gwcPmHsG4+rqGhERERIS0oY1VM11rFard+/enZiYaGkGFpGQkCAUCtesWWP6SEQi0YkTJ7Ra7ZgxYxgqiUKhOH78uFwu9/DwcHR0NLGnVquNi4vbv38/0w9SMzMzt23b5uHhYWlEcx3X1taWlZVZmnobKCoq0mq1ph1LJBKhUBgVFcWcY5lMFhMTU11dLZfLTTvW6XSFhYXt8KRcJBJVVVW1wbG5dS6VStU+D/zNuatptVq1Ws3j8ZgrBvWkmSTJVusfJEm2z2NykiTbpgDVq+EHOYYf5Bh+kGP4QY7hBzmGH+QYfpBj+EGO4Qc5hh/kGH6QY/hBjuEHOYYf5Bh+kGP4QY7hBzmGH+QYfpBj+EGO4Qc5hp8u6ZjFYnE4HIVCwVwW1LpETE+3aR/MHUMvEAhsbGwYLQoFQRCtzurhcrkEQezatevMmTMMFUOtVlOFsba2Nr0nhmFOTk4MFUMfDofTthfbW+B4/PjxUqlULBYzNK2NxWI5ODiMHz++1Wltjo6OISEh58+fz8nJYaIkFL6+vqNGjWp1/Sw2mx0aGpqWllZdXa3/EvpnC0EQw4cP9/HxaUNcC9ZuEolEmZmZIpGIIcc4jjs6Ovr5+ZmzZJVEIikoKBCLxUyUhEIgEPTq1YvP57e6Z0NDQ05OzsOHD5m7sBME4evr6+bm1oa4aH0u+OmSdS6ERSDH8IMcww9yDD/IMfwgx/CDHMMPcgw/yDH8IMfwgxzDD3IMP8gx/CDH8IMcww9yDD+Go2riLl1tvhMGAI7jVlZW9gK+l5eH/ZPjNORyefzN2+ZnGTIkyNHRodXd8vILklPTKyqrxGIJm80S8Pk+Pr2GhgxxarZCaUlp2b+Z2VR4SOAgF5dn9na7xNspYokEAGDF4YwdHf6skm1nDB1v3LzddAQMw4ICBy3+YL6nR09qi7CuvtVY+uz4br1px0XFpVt27Pnn3r/NP2KxWBPGv/T+/Lk8HpfemJqesWP3fiq8Yc3KZ+j4yNGT2bl5AAA+3+5pHKtUqtP//dXby3PEsNBnVTbzsfhaTZJkWnrGwo8+KygsYqA8oLSsfNGnX7UoGACg1WrPXbj4+dJvVCoVE7kzwY34hFlRCw8eOd7Q2NAhBTA6AhLH8ed6NI0Q0+lIjUYjlcnlcjm1Ra5QfLt1175dW0DTeEp7/bgqpUr+aPAzl8vV/80BAEwPu9y6Y69YLGmKa20dPCTI1dVZIVfcf5BVWlZObb93/8GpM2dnz5ph/nF2FFevx69ev7ljy2D06xYI+McO7dPfQpJkStqd5dHrlEoVACAzK6e8orKHu1sPd7ffzhzT3zP2QtzWHXup8Iypk+e8PdPM0lRVVadn/EOFffv03rJxDZ9vR/2rI8k93//486/nqH/P/X7x7Tend5KXoJpApVZ3dBEseZ8EhmEvDAkaFT78z8vXqC01tcIe7m0ZDWqM0rIKOjw8LJQWDADAMWzBvHf++POyQtEAAKitFQqFdc7Opgav63Q6/QHPHA5H/5zQ6XTZOXnVNbVWVpwe7u4ePXu0ocAlpWWlZeU6nc7F2dm3T2+Dd2irVCqtXgG0Gq1KpcIwrPkq+41KZXFxSXVNLYvFduvezdurhcXmdSSpeXTG0MeSm1dQ+fChtZV1X78+AkHLw4Qtey8MAICjd6Xt5upiaXTTcLmPJyVcvHxt3Iuj3bp3e5w1h7Np7TdKlYrL5fK41sYOiaJRqVzy2dLMrKZB9mGhwWujl1Fv/yBJ8mzshaPHfxLpDc/u+VyPeVFvjxwRZmZRU9Lu7Nl3sLComN7Ct7ObPnXyjKmTqZuRWCyJnPKmfpSN3+3Y+N0OZ2enX04doTfWi8SHY05cufaXXG9qj4uL8xvTXpscOUH/pLmZmLQ8eh0V/un4wZKS0m2791dUVFJbcBz/z4ujl3y0gMt94s4ILHWcl19w7a+/qXD/fn76Ap4Jfr4+BEFQd/2KispZcxaEvjB4eFhoUOAg6nwa6D/AnHR0Ot3qdZtpwQGD/Fet+IoWvH7TtktXrxtEKS0rX7l6Q9TsN825zZ+7cHHbzr26J4emS6TSHw4dvXvv3/Wrl3PMe4PRg8zs5dHrhXV1Bttramp37jlwOyl1zTdfN3cGAPjj4uWjJ37SHxuv0+niLl2VSGXrVy832NloUWQy+crVG+h/NRqtsK4uJzefeqUBQRBffLLInMOwCA6H886sGXv2H3yUqSYhMSkhMQkA4O7WPXhI0KjwYYGD/Fu9De/Ys//mrSQq3Nevz4bVK+iZQv89e44WLBDwR40YhuP4jfiEepEYAHAo5kT/fn7BgwNNJJ6Vnbt99z5KMIvFGhU+zMXZKTn1DtXQSE5JO3L01LyotzAc4/Pt1Gp1Q0MjFZHH43I4HL5d0w2oXiReFr2urq6e+tfO1rZ/fz+FouFBZjY13yI5NX3D5u2rVnzVvAwxx0/jOD5i2FCPns/du//g7r371Pabt5KKS0rpZi2FUcdqtfqvv1t+04+Li/O2b9f2fK4tN7BWmTZl0sPq6l9+PW+wvaLyYez5P2LP/+HR87nPPv5gkP/zxlI4+dPPv537gwp7e3ls3rDKxqbp7SJKperYyZ+osIOD/Y97t1N39NmzZry7cHGtsA4AEHPslGnHh4+epBxgGLZ5ffTgoAAAwLwozdcr1yanpAEAfj4bO3PG63w7u/O/nIy7dJXuPPhk8fvjxo6m0/nx0FFa8IhhoUu/+IQqZ2FR8edLo2tqagEAN+JvJqekvRA82KAMOIZtXr9qyOAAAABJkl8uX5WUnEZ9lJWda+C4LX2ZNTW1XyxblZae0Ya45rDo/fnfbVwdYOT3WlJatuTTpddu/N1i3Gs34g8cPEqF3d26b9m0hv7dAADSM+5KJFIqPP31SXSVzcHBfvrU16jwvX8zqe+3ReQKBSUSAPBCcBAlGADAZrPnR71NhRuVysRbyaaPsaGh8eqNeCpsZ2v75WeL6RPR28vzwwXv0nvGXohrHn34sKGUYAAAhmEvjhlJfySRSg12Nvo75lpbv/rKy1SYBKRapZZIpbl5+SWl5QCAiorKL5et+nbDqqCAgaYPpm0EDw4MHhxYVV2TlJyWmn4n45/7dKMZAKAjyY3fbQ8MGOhgbzj77fLVG3S4fz8/g47PrOxcOozh+INHPaAAABbr8emem19grLMsNzefvg3bEoR+ChqNBsOa5o/l5OW/NHaUiQPMzsmlr+EjR4TZ2drqfzoqfJidra1UJgMAZPxzv3l03z699f91cnjcb6hu1loz6phnw3v/vSiDjSRJHjt55uCR4wAAtUaz+/sfDu3fZeJInpJuri6REyMiJ0aQJJmTlx938UrshTiqQqBUquL+vDxz+hQT0a9ej3/t1YkD+velt1A3XYrvDxwyFrGqusbYR/opXL0ef/V6fIu7VRtPoXkW7i21P93d3bJzcgEAMpm8UankPjkNmm/3xDmh3xhrPkfRsms1hmGz3phKN1ryC4qa1wmfhut/JZz5JXbfD4d37DlgkK9fH58lHy34YMFcemNefmGLiVhbW1HHTJLkzr0HDCqf5hSjsdHoO7mePgUK/dniLU4dteI8/vmxcENNrCfr7aYroRa3j3EcJ2xs6CtnrbCu+YOgNvPj4WNl5U3dIJNeGW9QdwAA+Pn2ocOyRx2r+nDY7LXRy9Lv3D115iwAICs79+Lla+PHjaU+FehNJt6wZmXgIP8Wi8HhGO/+00vhjemvz36z5YaW/pW/RZydHn9pFZWVzXegvwd7gaAN79HUx+I6V15B4cOHVfS/rq1Ns7cI/ebvvh8ONz/B4xMeV/VbbJ1/uHDeC0OC3po5jb7YHDgYQ3WNgSdvY4VFxTwel/4rKCxKTc+oq6+35lqb6FH38fGmfzT5+YX6KUik0oTE2+WVlWw2i/6Z4vq/ML2j8endi7783ohPpGuCFEnJafRNISjwaWs8Rh1r1Jq09Az6LyXtzt83b8ccP/3x58voSseA/n0NnkY8JS9HvESHE2+nLF25NjsnV6VSabXasvKKnXsPnPn5N3qH8OEt9Em5uroAAAiCoDvJ6+rqjz5qL4UEB9EPSE6fOVv56GRVKlWbtuxcHr1u5uz5EyfNEBlfnsBeIBg0sKnZlpyaTrXdKQ7HnFi7ccvc9xaNmzjldnIqtVH/dBEK6wAAao0GAMDjcenyy+Xy9d9uk8maLku5eQXfbt1Jx3p90ivGCmMmRk9YqUz2yZcrTEd+d85bT5m9Af4D+o0dHU5XZBJvJyfeTsYwDAPAoFMpKGDg4MBBJpKKnBBx9rcLJaVlAICff4mNfPk/7u5uXC535vQpVJ1RIpXOfW/Ri2NGOjjY/33zVnFJKRXxxTEj7U0uVjF39puLPv2ausasiF4XPmJYL2/PzKycW0kp1A4ePXvQLVp7vZr/wSPHr1yPF9bVUY9w5s19+3ZKKvULvpWUMmXmO/38fBsaG7Ozc+mDjZwY8fyAfuZ9eUZp41gfDMM+en8eEw2nLz5dRDc6KUiSNBDs08t79Tdfm06HxWItnN/ULlBrNLv3NfWdzXpjKt0pLVcoYi/EHTl2Kr+giNoSMPB5OpYxBvoPoKt+OpK8EZ9wKOYELdjZyXHNN8voS3Rfvz50Z6Rao8nLL6ivF1Fd064uzuuil9HDJRoaGtMz/snMyqEPduzo8MUfvGe6MOZglmMcw9hsNpfL5fPtvL08J44fd3DfzimTI58+++Zwra23bFz9+ccf9u7l1fxTT4+eC+dH7d+z1aBB2SJhocH06XLzVlJqWgYAAMfx6BVfffzRQoPbOWFjM33K5E3row2edrfI1Nde3bppTf++fvoVWhaLNXJE2N4dm/UfYRE2Nl99ttjWlqC38HhcqVRGhQf6DzhyYPfrk18xuHJ4evRc9uUnK5d+3uoSR+bQqdd8EYnFRcWlUqkMxzE+n+/WvZt+dfTpKa+orK6uUapUDg72vby9zHyQoE9dXX15RaVMLrcliF7engRBtLibUqmiOj3sHQQtZkRVOGpqhDgLd3fr3r2ba1uOxwid2jHimYDG3sIPcgw/yDH8IMfwgxzDD3IMP8gx/PwPBh4xbtEQBQ8AAAAASUVORK5CYII=;" vertex="1" parent="1">
          <mxGeometry x="660.7" y="309.99" width="48.49" height="50" as="geometry" />
        </mxCell>
        <mxCell id="LtpZXM9xmSWKar8uXynZ-66" style="edgeStyle=orthogonalEdgeStyle;rounded=0;orthogonalLoop=1;jettySize=auto;html=1;exitX=0.5;exitY=1;exitDx=0;exitDy=0;strokeColor=light-dark(#3CD2D8,#EDEDED);entryX=0.5;entryY=0;entryDx=0;entryDy=0;" edge="1" parent="1" source="LtpZXM9xmSWKar8uXynZ-3" target="LtpZXM9xmSWKar8uXynZ-72">
          <mxGeometry relative="1" as="geometry" />
        </mxCell>
        <mxCell id="LtpZXM9xmSWKar8uXynZ-72" value="&lt;b&gt;&lt;font style=&quot;font-size: 8px;&quot;&gt;&lt;span data-teams=&quot;true&quot;&gt;TOP K&amp;nbsp;&lt;/span&gt;&lt;/font&gt;&lt;/b&gt;" style="text;whiteSpace=wrap;html=1;" vertex="1" parent="1">
          <mxGeometry x="672.5" y="517" width="30" height="20" as="geometry" />
        </mxCell>
        <mxCell id="LtpZXM9xmSWKar8uXynZ-74" value="" style="shape=image;verticalLabelPosition=bottom;labelBackgroundColor=default;verticalAlign=top;aspect=fixed;imageAspect=0;image=data:image/png,iVBORw0KGgoAAAANSUhEUgAAAN8AAACcCAIAAABwV+m5AAAACXBIWXMAAA7EAAAOxAGVKw4bAAAbWElEQVR4nO2deVgUR/7/a4YZZrgFUS6HY7jlWnfjwYp4cSPKIVFBzC7ok01CVCKJ5tlE3CTPukaDj9HgsYlx9QmChAASJGhU4oVcIaJcjhCQwHAJjlwzMDP9+6N+W9/OMAyzXNMz1uuvnuqark9Xv7uq+tNVn6YRBAEwGEpCV7UBGMy4MFRtwASMjo6WlZXxeDxVG0ItmEzmpk2bGAyqX74pQvXTE4vFRUVFOTk5qjaEWujp6UVGRmq8OnHPjqEuWJ0Y6oLViaEuWJ0Y6oLViaEuavnQR6fTPT09bW1tVW3IbCAUCn/44QeZRIIgxGKxSuyZTdRSnQwGIygoKCIiQtWGzAbPnj0bq04AgJaW1uwbM8uopToBANra2rq6uqq2YjYYGhoam0ij0Wg02uwbM8vgcSeGumB1YqgLVieGumB1YqgLVieGumB1YqgLVieGumB1YqgLVieGuqjruyIlefbsWW9vr6qtkA+TybSwsGCxWKo2hLposjoJgsjMzDx58qSqDZGPjY3NiRMnXpK5LJNDw3t2Kr+Mxmu1J0ST204NRigUJiYm0umTb1z8/f2pv26O0sZhxkMikZSVlU3lCE5OTtRvvDW8Z8eoNVidGOqi4T27lpYWZV022traVH5oowKarE4ajRYdHe3n56dqQ+TDYDDMzc1VbQWl0WR1AgCMjY2NjY1VbQVmkmi4OjUVbW3t9957j8lkKpP51q1b169fn2mTZgKsTrWEyWSuX79eR0dnwpxSqbSrq0tN1Ymf2THUBasTQ12wOjHUBasTQ12wOjHURcOf2SsqKiorK1VthXyMjIwCAwOxO1YBmqxOgiDKy8vT0tJUbYh8rK2tly1bhtWpANyzY6gLVieGumB1YqgLVieGumB1YqiLJj+zAwBsbW3Xrl2raivkM2/evJckfPOk0WR10mg0Pz+/VatWqdoQ+dBoNMrO26cImqxOAACTyVRyEiSGguBxJ4a6YHViqAtWJ4a6YHViqAtWJ4a6YHViqAtWJ4a6YHViqAtWJ4a6aPi7IgBAe3s7ZUPHK4NAIBibiL/PrvYIBIJvvvnm2rVrfX19qrZl8kilUrnpUwl8rC5opjpFIlFFRUVubm5RURH1I/xOjvFUq0lomjolEklbW9vly5ezs7P7+vo0VZo0Go3iId+nBY06Q4FAcPPmzYsXLzY0NEgkElWbg5kqmqPOx48fZ2Rk3Lhx49mzZ6q2BTM9qL06CYLo6uq6evXqN99809bWpmpzKAedTlffGa5qr04ej3fs2LGKioqhoSEF2dhsNpPJHBwclHmYoNPpurq6ajeG09HRUXLoIpVKR0dHZ9qeGULNrgqCIIj29vasrKwrV67w+XwFTz96enqRkZFhYWEEQSQlJbW3t5P3zp07d//+/Z6enjNv8nRCo9H09PRUbcWMo5bqlEqlVVVVxcXF9+7dU9yEODk5bdq0af369Ww2u729fayPkE6nGxgYmJiYzKS9mEmiluoUi8VFRUVisXi8JpNGo82fP9/Pz2/Lli1WVlZq13FjIOp62RSMpXR1db28vOLj4//whz+w2ezZtAozvairOuUCm8yoqKh169ZxOBxVm4OZKpqjTkNDw+XLl8fFxXl4eKjaFsz0oCHq5HA4cXFxfn5+pqamqrYFM22ovTpNTEwCAwOjo6Pt7e1fhmk7LxVqrE4Gg+Hq6rply5aVK1caGhqq2hzM9KOW6qTT6SYmJmFhYZGRkRwOR0tLS9UWYWYE9VMnk8lctmzZxo0bfXx8tLW1VW0OZgZRJ3XS6XQLC4uQkJDo6Oj58+dPS5M5NDR09erVurq6qR9qljE3N1+8eLGhoaHij7zjWSCzgb6+/tKlS7dv3+7i4jKN7376+/vT09On62izCYvF8vT03LFjh5eXl4I4oHgWyIyjr6//+uuvBwUFmZubq9oWqiASicrLyzs7O4OCgjZt2jR//nxVWzT9UF2ddDrd29s7Li7O0dFR1bZQkadPn545c6akpCQmJmbFihVGRkaqtmg6obo6WSxWUFCQ4qEV5uHDh4cPH66uro6JibG1tVW1OdOGGrivsTSVobe3Nysra/fu3RcuXBAIBJqx3E8N1IlRErFY3NjYmJaW9umnn/78888asKSY6j37NKKnpxccHPz8+XNVGzIlCIJobW2tra3t7++Xm2FgYODKlSulpaUJCQnBwcGGhobYo6QGGBkZ7dy5U9VWTAMCgaCkpOTUqVNNTU1ye3CxWNzZ2Zmamnrz5s1t27ZhjxJm9jAyMgoICLCzs8vIyMjPzx8ZGZGrUaFQWFJS0tLSoqOjM/tGTgtYnWoJnU53dnZOSUnx9vbOzs6uqKgYGRmRm1NmlZ96gdWp3qxZs8bV1fXixYsFBQVqHWpPLviZXb1hMBgcDmf37t2fffbZ2rVrNWwZMW47NQFtbe1XXnnFysqqoKAgLy+vublZ1RZND7jt1BwsLCxee+21gwcPBgYGasYrTaxOjYLJZLq7u+/fv3/Pnj3Ozs7qvpQF9+waiKGhYVhY2MKFCzMzM69du6a+LzbV+97CjAeDwXB2dn733XdTUlL+9Kc/qekiAtx2ajI6OjqrV6/mcrk5OTm5ublq9xYXt50ajpaWFpfLTUpKOnz48Jo1axTMoqcguO18KaDT6cuWLeNyuVlZWXl5eXw+X9UWKQVNTcfLmMkhFot//fXXEydOODs779ixg+LTl7A6X0YEAkFfX5+1tTXFXU5YnRjqQulbB/OSg9WJoS5YnRjqgtWJoS5YnRjqgtWJoS5YnRjqgtWJoS5q/56dIIi8vDxyCvx2uYGBgZOTEzlmXWdnZ0lJieKjhYSEyJ1sNrYUAACDwdDT07OxseFyuZM1f0rU1NTweDwAwKpVq+bMmaMSG2YWQs1RHEpgw4YNvb29MGd+fv6EtdHd3T2JUlxdXe/evTuLJ/3/2bNnDzSgvLwcJfJ4vLCwsJ6entm3Z9rR8J49Ly9vy5YtM11KXV1dSEgIFb6/feLECTc3t/z8fEIjXlBrjjo5HE5fX19fX19vb29nZ2dhYSH8NmtRURHs/vz8/Fr/S01NDfyXs7NzK4kJP+e6YMEClLm5ufnmzZsuLi4AAIFA8NVXX83wKU5McXHxeGEX1BG1H3ci6HQ6eewVFBQUHR19+vRpAEBPT4+joyObzV6wYAHci2aJMxgMlKgMWlpa5Pw2Njb79++PiYkBADQ0NJBzVlZWXr58uaenx8LCIiwszMvLi7xXKBTm5eVVVla+ePHCwMDA3d09MjLSwMAA7h0aGrp06RIAwN7efsWKFTCxvr7+/v37AIDVq1fb2NiMtS09Pb2lpQVuZ2RkGBsbx8bGKn9qVETVQ4upgkaENjY25PSRkZElS5YAAAwMDOCyLzJ9fX3wX25ublMphSCIU6dOwV1JSUkwRSqVJiYmkiuZRqPt3LlTIpHADE+fPnVwcJC5EJaWlnV1dTBDa2srTIyNjUUFHT9+HCZmZWXBFJlxp8wqYT09PWVOjcpoTtvZ09Pzl7/8BW6PjIyUlpY2NTXRaLQjR45M47e2hELhjz/+CAAgCEIkEtXX13/00UdwV3h4ONw4cuTIiRMnAABubm6BgYG3b98uLy///PPPbW1tk5KSAADJyclPnjwxNDRMSkqytrZ+9OjRsWPH2tvb//rXv07oVVCAh4fHw4cPBQIBAMDd3R21xGqMqm+PqaL4aTo4OLirq2vsvybddsqFTqcfOHAA5hwZGYGDVy6XOzw8TBCEWCyGrbiFhQX8pjz0QHl5eSF/wtmzZz///PPi4mKpVEpMtu0kCCIqKgqmjOd8UC80p+1ksVivvPIKAIAgCKFQ2Nra2t3dXVhYuGjRouLi4rE96XhUVlZeuHCBnHLkyJHxMsMue9u2bX/84x9hSlVVFYy2tXr16oGBgYGBAQBAYGBgWVkZn8+vr693c3NzcHBoamp68OCBubn58uXLV65c6e/v7+3tjWOQy6Lq22OqjDcilEgk+/fvh7uioqJk/qWg7ZSRJgBgeHiYXMrIyMhvv/2GAtXa29s/fvwY/f27775TUNvQ11NdXT32Ay5cLregoAAeRG7beezYMZiI2061h06n79mzBw4Kb9++PY1HZjKZVlZWx44d6+zszMzMbGxs9Pf3//nnn2GHjr5At2jRItSgIiwsLAAAHh4ejx8/vnDhQm5u7p07d0QiEQCgqalp48aNtbW15I9mSCQStA2zvVRorDoBAPX19XDjf4qEERoaWlVVRU5hsVhklSBOnTp1586dtra2lpaWt9566+LFiwAA9F0ld3f3L7/8Em43NDSw2Wxra2vYd/f19TU0NPj4+CQmJopEotLS0k8++eTatWvDw8O3b9+2tbVFBpODw6MGVQEaNjbQHHX29/cj545EIuHz+f/+97/hz9DQUOWPY2xsbGxsrEzOOXPmfPnll8HBwQCAjIyMrVu3hoaGurq6uri41NfXZ2Zm7tixY8WKFT09Pf7+/q2trVZWVjweb2BggMPhiEQiLpdbWlpqamrq6+vr4+Nz7do1eEwAgImJCYvFEolEt27devLkiYODQ2lp6fnz5yc0icViwY3q6mozMzM3NzflT5yKqHpoMVUmDNlvaWnJ5/Nl/jWN/s74+Hi0a3BwkCCIoqIi+CVPGo3G5XL19fVhhqNHj8K/pKSkwBT48U/U3Hp4eIhEIpgnIiICJjKZTEtLSwCAnZ0dTFEw7vzggw/I5w7tUV80U51w9hCXy92+ffvTp0/H/msa1fn8+XMOhwP3Jicnw8QffviB3G5ZWFicPHmS/K+0tDTy+JLBYERHR3d0dKAMfD5/5cqVSKDx8fGwcVWszpaWFuSdYDKZzc3NSlUiVcHr2WeQ1tbWjo4OExMTGxubsd9FJgiio6Ojra2NyWQ6ODjIDard0tLS3d1tb2+v5GADHraxsbG/v9/BwUHdHfJYnRjqojlzlDCaB1YnhrpgdWKoC1YnhrpgdWKoC1YnhrpgdWKoC1YnhrrInwUyNDSUk5PD4/GYTKanp+e6desUT35pbGx8+PAhAMDCwmLp0qUye7u6uu7duwcAMDEx8fX1ndAmFBbB3d0dvpdTJqyAVCq9fPkyAMDMzMzb23vCUpQvfebo7u6+e/fueHvt7e09PDxmrvTa2trHjx8DAFauXAnfRRUWFopEIkNDwzVr1sxcuQCAoqKi4eFhAwODtWvXKso39uVmSUkJnIaIWLx4cWdnp4L3oaWlpTCnmZkZWtuFQLOA33nnHWXerqKwCIcPH4YpcsMKyDA8PAzzBAYGKlMK4scff9y8ebOC0mcO9OpcLrt27ZrR0vfu3QsLKikpgSlz584FSs89mApWVlYAAGdnZ8XZ5PTs8fHxfD5fR0fn448//uSTT/T09MrLy9GZyGXJkiVwok1nZ2dxcbHM3qysLLixdetWBQdRCbGxsX5+frDhx1AN2Z5dKBTW1dUBAAICAuB0rLa2tpMnT965c0fxgWJjYw8cOAAAyMjIIPcLtbW18IALFy5ctGjR5KzcuXPnxo0bAQCurq6TO8J4FBUVyaT4+PjAnl3umvEZIjo6OjU1VSZR3edwTB1ZdbLZbBsbm5aWlqtXr9bW1hobGxcWFgIAyNO95LJ161aozu+++y4tLQ1NyZHbcEokkvz8/Kqqqu7ubn19fRcXl/DwcAVxOLq6uuBEd0dHRzSXRywWZ2dnl5SUMJnM0NDQZcuWyf1vaWnp9evX+Xw+k8nkcDjr16+3t7cHAPT29l6+fBkuh3j+/Pm5c+c4HM7atWsHBgZgWQYGBuQRzvDwcG5u7oMHDwYHB7lcbkREBLlOnj59euPGDQBASEgIk8lMT0+vr6+fO3dudHS0MlOAdXV1FQd9IAiioKDgp59+EgqFjo6OGzduhJM+ySiO7wAA4PF4ly5d4vP5jo6O27ZtU1CcVCr99ttv7969y2KxgoKCZIahyly+gYGB7OzsBw8eSKVSW1vbqKgoNM9wLENDQ3BaIAAgMDDw/6p9bGf/xRdfwF12dnZwfMBkMn/66acJBxNIH1euXEGJ7u7uAAAajdbS0gJTenp6PD09ZewzNTX95ZdfYAZlxp3d3d1wBSYCzQJG406JRBIXFydTEJPJ/PrrrwmCkFmeAQAIDQ2VWzpBEFevXpVZp8ZkMtEqYYIgcnJyYPrRo0fJge/odDqajjkWNO587bXXFFTss2fPUEQQiK6u7vnz51GGCeM7EARx5swZ8rezzM3NQ0JC4LbMuNPOzm7VqlXko8XExMC1zspcPoIg7ty5Y2ZmJlNdaWlpKAN53CkWi8PCwmC2+Ph4uGYaIkedEokESgqdxvXr1xXUHQItuEZ1jVb2+Pr6omxIRq+++uq+ffvQfRkeHg4zKKNOtPjQzs5u165dAQEByGCkTrTUwdvb+/3334+NjYVL0oyNjaVSaX19vZeXF0xhs9leXl5vv/223NKrq6vZbDY61Lp169B094MHD8I8SJ10Oh1+3BddYC6XO16NIXV6eXml/J68vDyUDcnI398/KSkJNkJaWlplZWUww6effgozuLm5vfPOO4sXL4Y/U1NTYYaqqip4pjQaLSoqKjExkXyzyagTHjw2NvaNN95AHpJDhw4pefna2tqgB4BGo61fv3779u3wIDQa7f79+zAPWZ1vvPEGPEJUVBS6ByCy6uTz+TLN+Jtvvjle5crQ3d0NO3QjIyOhUEgQxMcffwwPcubMGZTt9OnT8fHx+/btgz8lEglsbFxdXWHKhOpsbW2FHi4LC4u+vj6YBy3hReosKip6++23IyMjR0ZGYEp0dDTMg1wQY59Sx5aOliWhu7+hoQHWuI6ODozmgNTp6uoK10uIRCJnZ2eZ4mRQ8MyekJAA81RWVsKUmJgYmNLW1gaHpK+++iqhXHyHHTt2yIisubkZjWvHqhN2LwRB/PLLL/B7cJaWlkpevvfffx8e5LPPPoMp0J9oamqKSkfqPHjwIMwcEBCAVq0gfqfO58+fw4hqAIANGzagFiIrK6ukpGTVqlUffPBBa2ur3IqWuZA5OTkEQcAugMViIQ2R6ezs/P7775OTk+FQ0s7ODqZPqM7s7Gz4c+/eveho8NkLyPMoDQwM3Lp165///CdamoOGGROqc3BwELY6Li4u5GOiFTywh0Xq/Pvf/47ywOhfAIDGxka51YXUyWKx5v6e3bt3wzyHDh2Cec6ePdv9X2ALYmpqSpDceQkJCSjDhx9+CBMfPXpEEAT0m9JoNPJKo02bNslVp4GBAXlIgFzUqNIUXz54YwAAXrx4gTK3t7eT/wvVyWKxYCvDYDDk3sC/eypKTU2FfXFycvLhw4dzc3MjIyMJgkhISFi+fHlxcXFxcTG6C+USGxtbUFAAAMjMzHRzc6uurgYAhIaGkl3og4ODhw4dysjIgA52hPLfbOzu7oYb1tbWKHHsIzZBEOfOnTt9+nRFRYXMkl/ly2ptbYX/JY92yD9R2DeIqakp2kbjAalUqriUzZs3nzt3Tu4uFBYUdamInp6egYEBlOGrr74aG6Xx119/dXNzgzVmampK/gL2eE4JKysrcv2gbN3d3dbW1hNevo6ODgCAoaEh2ecg40GHoBX6YrH4+PHjqKdF/E6dMH4VnU6H/vPw8PADBw6kpKS8ePECPrmvXr2aLIixhIeHGxgY9Pf35+fno3jVMm7OdevWQZ+ov79/cHCwr69vXFxcXV2d8opB62JhHBgIjG5F5qOPPoJuBBh/0NfXNz09/ezZs+B/USfqQMhlAdJKcx0dHXI6ef3QtKwuR+EbQkJC5F5jZeI7wBqTOYWxNQYhL6IHAKDXHPBMJ7x88NkLjqYmrAEul2tkZFRVVXXkyJGEhAQZ19Dv1AmtJwgCtTQffvhhVVVVbm4u/Pnmm28qLkxHRyciIuL8+fODg4Mw/JCxsTF5OXlNTQ08t4SEBBSMAJarvGLQC8aysjKUODZ6GwwE5+zsXFVVBUXzn//8B+5CZU1Yfebm5iYmJr29vWVlZQKBAEUhRJ3yWEFML2g9cVRUFGo+KysrbWxsYDutTHwHBweHlpaW4eHhR48eoVYfRgMdS3t7e2NjI/S7SaVS6NxgMBh2dnbKXD4nJ6fGxkahUPjo0SM4ohCLxQsXLrSysgoICECjUgDAnDlzbty40dbWtnz5cqFQmJyc/O2335It+Z0g4BJVgiDgQtuOjo4LFy6Qr/rf/va3CaOvo4imMAhvdHQ0ORSHUCiEG2jN7qVLl2CUC+WD9i5duhQ2Cbm5uenp6QRB1NTUvPvuuzLZYMcxNDQENxoaGr7//nuybeC/jUpXV1dra6tMVwWBT68AgN7e3s2bN/N4vN7e3kOHDkE/7sKFC9G63hkiLCwM3lr/+te/fvvtNwDA/fv3lyxZMm/evMjISAAAjO8AAMjMzIQxeWB8B1tbWw6HA1s+tDr+rbfe6uzsFIlE//jHPx48eCC3RCgAmC0lJaWxsREA4O/vr6Ojo8zlg+9NAADbt2+vq6vr7+/ft28fj8crLi5Gf4eYmZnZ2Nj8+c9/hn/Jzs6+efOmrCkIPp8/1seLDgQ3tLW1eTye3DE+RCwWkzugW7dukfcKhULkdvb09IQND+ybdHV1R0dHCeU8Sunp6agIqH59fX346IqeilA1LViwwNfXV1tbG3WC9+7dg3l8fHzQcRYvXiy3dIFAgB4WyRgaGlZVVcE86Kno+PHj6GQTEhJg4ng1pqS/Ez3iaGtrOzo6Ii8YepqZML6DUChEznn4TRJAGlDKPBVxOBwajUaj0ZB/lM1mQ3emMpdvdHRUxjsL4XK5KPaYzHv2xsZGeBE9PT3JTiVZj1JLS8uGDRvQVQQA2NnZff3118PDw7Cuv/jiCwX1CIExVOH5k52rkNLSUicnJ5hBR0dn7969R48ehT+hG1/JWSDnz59HHhBXV9eSkhL4Vgaps7Oz09/fH12SiIiI69evw5/vvfcezFNYWIhizzo5OcktnSAIgUCQmJiIunUajebv749CFRMzrE6CIFJTU8keShj2kZxhwvgOXV1daIilra29a9cudIfLqDM2NjY9PX3evHlwr4ODA7mJmfDyEQQxMDDw+uuvo4dCAEB4eDjZcTF2Fgi6xGSnvfz17P39/TweTygUmpubkz/GQx61TAWpVNrc3NzX1+fq6kp+ivxfGR0drampYbPZcts2CJ/Pb2trs7GxQdU99iD19fXQiz42JgKZkZGRpqamgYEBOzs7dGPMGlKp9MmTJwKBwNLSEl7dsSiO7wAAaG9vb29vd3BwmPD7RrBuWSyWi4uLzOhcycs3PDzc0NBAp9Pt7OwmN2cAR1vAUBc8Nx5DXbA6MdQFqxNDXbA6MdQFqxNDXbA6MdTl/wH2Mz3ep6a0nAAAAABJRU5ErkJggg==;" vertex="1" parent="1">
          <mxGeometry x="568.28" y="517" width="69.44" height="48.58" as="geometry" />
        </mxCell>
        <mxCell id="LtpZXM9xmSWKar8uXynZ-153" value="" style="shape=flexArrow;endArrow=classic;html=1;rounded=0;exitX=0.574;exitY=0.852;exitDx=0;exitDy=0;exitPerimeter=0;" edge="1" parent="1">
          <mxGeometry width="50" height="50" relative="1" as="geometry">
            <mxPoint x="525.3199999999999" y="533.3100000000001" as="sourcePoint" />
            <mxPoint x="471.39" y="533.3450095213364" as="targetPoint" />
          </mxGeometry>
        </mxCell>
        <mxCell id="lgUWCxdkZP19OhpzdEhJ-4" style="edgeStyle=orthogonalEdgeStyle;rounded=0;orthogonalLoop=1;jettySize=auto;html=1;exitX=0;exitY=0.5;exitDx=0;exitDy=0;entryX=0.5;entryY=1;entryDx=0;entryDy=0;strokeColor=light-dark(#3CD2D8,#EDEDED);dashed=1;" edge="1" parent="1" source="LtpZXM9xmSWKar8uXynZ-158" target="lgUWCxdkZP19OhpzdEhJ-1">
          <mxGeometry relative="1" as="geometry" />
        </mxCell>
        <mxCell id="LtpZXM9xmSWKar8uXynZ-158" value="" style="shape=image;verticalLabelPosition=bottom;labelBackgroundColor=default;verticalAlign=top;aspect=fixed;imageAspect=0;image=data:image/png,iVBORw0KGgoAAAANSUhEUgAAAQwAAADUCAIAAADm9IoyAAAACXBIWXMAAA7EAAAOxAGVKw4bAAAgAElEQVR4nO2dd3xTVf/Hv/dmJ01X2nTvvXcpG4qUUVkCMkUQRFR8BNyijzjwkUdFf4A+ylI2svfeUCijk+6990jTJm3Wze+PpsnNbboHhdz3q38kpyfnntzczxnfc873iyiVSiAhIekY9FlXgIRkqEN91hUg0U1TkwjDMA6HTaFQnnVd9B1SJEOClpaW6ura7Oy8mHsP09OzqqqqW1okSqWSRqOamfFcXJ1GjAjz9/PhmZkaGnKfdWX1DoSckzxbxOLmjPSsS5duxMQ8zM8vxDBMZzYEQSws+CEhAbPnTPPz8+ZyDQa5nvoMKZJnhlwur6qq2b59z53b9ysrqxUKRXc+ZW7OCw0LWrVqqbOzE41GDgQGA1IkzwZRk+jK1Vt79xxOT8/qxcft7W0XLZrz8rRJPJ5pv9eNhAApkmeATCbfsWPvwQPHamvrenf/EQThcg3GR47+5JP3TU2N+72GJHhIkQw2ZWUVf/7x9/HjZ+VyOeFfDAaDzzeztOQ7ONiZmfNYTEZlZU1BQVFFRWVlZbVIJG5f2rBhIR9/8i8fH89BqbueQopkUJHJ5J99+vWNG3fF4mbCv8zMTBcumjty5DA7Oxt859DU1FRUVJqWmvn334dycvIIn6LTad7eHlu2buLzzQa89voKKZLBQyBo+P23XQcPHif0IUZGhpMnT1i0eK6Tk0NHc3EMw6qqas6cubjn78P19QKCEWzU6IjPP1/r5OSAIMgAfgF9hbJhw4ZnXQe9QCKRbN++58iRUy0tEnUigiDu7i7vrl7x5solfL4ZhdLhBggEQQwMOCEhgXZ2NtXVNZWV1fjWraKiSihsDAkJYLFYA/s19BJSJIOBXC6/f//R5p9/b2oSqRNRFLWzs/nmm8/GjBlBp9O6WZSDg11oaGB2dm5FRZW6P1EoFIWFxSwmMyDQrxOlkfQOUiSDwePHCd9993NVZTU+0cvL/d9ffRwWHtyjjScoihobG/n5eZeXVRQVlaj7E7lcnpmZbWVt4erqhKKkTvoT8m4OOEJh48kT54qLSvGJ5ua8d99dHhTk37synZ0d31+zytvbHZ9YX9+wf9+Rqqqa3teVRBekSAYWuVyxb+8/589fxS+oG5sYbfj60wkvje31knnrZObz9R84Otrj05OSUv/846/m5pY+VZpEG1IkA0t6etbZs5dkMpk6hWPAmT9/9qhREX0v3M/Pe8mSecbGRvjEGzfuxccn9b1wEjWkSAaQpqamw4eOF2kPtMLDghYseIXBoPe9fCqV8srsadHRUfjEqqrqXTv3l5aW9718klZIkQwg9+49vH07Br+mYW7Oe/udNywszPvrEkwmY9kbCx0d7fCJyclpt27e669LkJAiGSgwDDtx4lxtbb06hUajRr88qd+3kNjaWi9aPNfERDPoampqOnXqgqC+oX8vpLeQIhko4uOT7955oDbRIgji7e356qszBuKk4bRpk8eOHYm3/D59mnbhwtX228NIegEpkgFBLG4+dPAYflGcRqNNnjzBzs52IC5nZGQ4fcYUNltruf3ixWtlZRUDcTl9gxRJ/6NUKu/cjnnw4Ak+MSQkYMbMqQN0TApBkPDw4IkTx+ET09Iy79y+T3YmfYc82tYzRCJRVVWNTCYXi8XN4pYWiYTDZtHoNAMDAyqVYmRkZGTElcnkt2/fr68XqD+Foui06ZMH9OAHlUp9edqkmzfvCQQNbVUVnz9/ZfqMKYaG3IYGoUDQIJcrhEKhQoE1NTXRaDQ2i8VkMZhMpomJsZGRIbk5siNIkXSIUqkUChsFgobcnPyUlPT8gqL8vMLa2jq5XK5UAtaKUokiCIIgFAoFQQBFKQwG3djYqKioFD/W8vJyDw0NHOgK+/h4Dh8edvHiNXVKcnLaG2+8J2xoFInEGKZQKpUKBQYACgxDAEFRBEVRFEVQlGJsbOjgaO/kaO/u7uLr52VsbGRiYkxub2mF3CqvAwzDsrJyHz6Mi3uSmJGRXVJS1pF/hm5ia2c9ftwoP38fV1cnNzeX/h10KZXKgoLi7Kzc9IysO7dj0tKy+vibmpubeXi4BAcHBIcEhIYGUqn63pKSItGiqUn05EnizRt378U8rK6qkUql/Vi4gQHHyMjQxsbK28czIMDH29vDjGfKZDF7au9SKpUtLZL6ekFGRnZSUkp6WlZBQZFQ2CgUNvZRzHgoFIqpqXF4eMi48aNGjAjT58P0pEhUSKXS3NyCA/uPnjt3GX/kY+AwMTHy9fOOiAj18fF0c3M2NTXpclYgFDbm5ORnZ+c+jI1LSkopK6sYhJ8PRdGIiNB33l3u4+PJYjEH+nJDEFIkKs6cvrh794GsrNx+bIy7A41GNTU1dXFxHDt2xNToKHNzns5szc0tN2/evXTxempaZr93cV2Coqi1teWMmVPffvsNKlXvPEqSIgGRSHTo4ImfftrWUQYGg2FmZsrjmZqb8wwNuebmZlxDbutrFpMJABKppKlJJJPJc3PyDh8+1dTU1LuaMBiMYcNCJk2O9Pf3sbOzoVAoVZVV6RnZN27cvXH9tkAg7OU3BJgxc2poaBCLxWCzWSymajlFrpA3NAhFInFRYUlpWXl1VW11dU11dU0nm4inTJnw8SfvW1lZ9LomzyP6PieTSCQ7d+w7cOCYzv9aWJiHDwsZMSLcwd7WytqSzzfrfP4QF5e0b99RfMrEieNsbKzT0zPT07OEwsYuK3Pnzv379x85Ozt4ebkbGRmmpKSnp2d1c+s7g8FwdXXy9vZAUfTc+Ssi3ClIN1fnuXOnd/7x+npBcXFpYWFJQkLy7VsxOrdIXr9+Vy5XfLXhEzMzPZqi6HVPIpfLDx449uOP2/Bb2QGARqM6uzi99NLYefNmcbkG3R+I//7bri1btqvfmpgYf/+fL0eNHCaRSpvFzenpWSkp6Q8fxpWVVdTW1rV3mEIARdHOx340Go3HMzEz54WGBPr7+/j5exsacplMRllZ5bq16/Fu7yIiQv/6e1s3V0KkUmljY9PlSzfOnb+SmpIhkWjN0FAUjY6e+NWGTwwMON0p7QVAr3uSuLik3bsPEBTC5RrMeuXlpUsXWFtb9qg0pVIZc/8RPsXGxsrNzZlGp9HoNAMDjjnfbMzYEW+ufL2wsCg+PjkpMSUpKSUvr0P/v50oxMrKwt/fJyDQNyQkwM3NhbAhxdbW2tXVCS+S7Oy86qoafvd2H9PpdB7PdOGiOVGTIo8ePX3s6Gl8r4Jh2I0bd/38febPf6X7R/Ofa/RXJFWV1Tu2763UPnduaclfs2ZV1KRIwmPXHUpLywvyi/ApHh6u7YfvNBrV1dXZ1dU5Ojqqrq4+PT3r0sVrFy5cg+4RFOQ3Y+bUsLAgMzOeoSFXZ+dAo1FHjhx29uxldUpzc3Ni4tOoSZE9+kZmZqbLly8ODPD98cet6ema5ReRSPzX7gPBwQG+vnrhFE9/l1Rj7j+6f/8RfrRpbs5b/8UHM2dF90IhABAXlygSifApkZGjO5nDtMYeKS0tz84mupzrhOLi0oKCIqlUZmDA6WT4NGbsSAaDoX7b0iKJi0vqpk9uPHQ6bfiIsJ9//tbX1wufXl5eeeDAkZ6W9pyipyKpqxOcOHEOP54xMTFeufL1ceNG9a5Asbj5YWycRKKxzPL5ZqFhQR1XoP6ff05+8vGGX3/5o0ciqamp27vnn88+/Wb37gNFRSUdZTM1Nfb0dFO/xTAsN7egvrcnTBwc7d56aynBSeT9mEf5+YW9K/D5Qk9FkpyUkpaagU8ZFhHyyuxpvd4wUlcnyC8owvdLnl7uRkaG7XPW1NRevHBt2dL3vvr3D48fJxCmxa0YGnLDwoKiosbz+ebtuwsMwzIysn/+6bcF89/cvftAXp7uJ3XylAn4t1lZOcUdi6pzUBSd8NKYBQtma3+RutOnL+qD4UdP5yRPU9LxrT4AzJw5lcNh97rAyorKwoJifEqAvw8hj1QqjY2N27f3n/j4JJ3erwGARqOGDwudM3taWHgwm8VMTk47c+bi1au3Ght1rL3U1tb9svn3C+evzps/a+LEcQSPEC4uTiwWU20+rqmpy80tCArupRMjBEFmzJy6ffsedYEKhSI3J18kEr/wZi59FIlQ2JiVmYM/aGFra9NH9yWZmTl1dZqTukwmw8/PW/1WJpPn5eX/8b+/792L1fm4oyhqYmIcEhKwcOEcH19PdSCriOGhgUF+S5cuOHbszPXrdyorq+RyrXmFTCZPSUnP/jbv+LGz7/3rzaAgf/WEytKSb2NjrfaxjWHYkycJc7paLekEa2vLMWNGXL58Q51SXFJWWVllYODU6zKfC/RRJLW19YQje37+Xn3c65qt7e/dytpS7e2hrk5w5vSFw4dPFhQU6foosNms6OiJUVGREcNDaTSiUZXJZLh7uH762ZqZs6KvXL5x4sS59u7nJBJJYuLTD9Z9MXNW9Pz5r7Q64zI349nYWOId0Wdm5vTlOwJAYKAfXiSVFZW9nuc8R+ijSFpaWgijHR/vvpoyCc+fvZ2tmTmvubklIyN765btiYlP2y8doijKZrOCgv0XL5obGhbI4XQ2aEFR1Nvbw9XVOTJyzNGjp1sHYARrlUAgPLD/6IP7T955d/nIkeFGxoYODnYIolkvzssrlEqldHrvvRk5uzjQ6XT1zrGmJrE+OMLTR5FIJBLCI2vet+AeMpk8KzNX/ZZCoXh6uonFzf/dtPXOnRidbS2TyRg7duSsV6IjIkKZzO6u6NPpNP8AHz9/7+kzppw9c+nKlZvqc4jqmmRmZq///Nvw8OD3/rXS09ONwaCrNzVLJJLcnAIvbeeoPYLNZrPYTPz2yl6YlZ879FEkSqWSYJORy/p0ELyurh6/qZFCQfPyCtZ//t2TJ4k6V82dnByWr3ht7JjhZua8XhyaRRAkLCzIw8M1MnLMH3/sTk5OI1ylqUl048bd4uJSPz9vQvk5uXl9EQmVSqHTNB2RTCYjqPSFRB9FgqIoIT5BH3eeJyQka5cmu3r1VvtsNBrV0tLilVdenr/gFROTvp53NzTkjhs/csTIsMuXbvzvj79KS8oJ1uTs7Lz2KzBZWbnQB+RyBb7roNGohnoQLFsfRcJkMNhsLWtveUVlXwrMycnvMg+LxZw0acKsWVNDw4L60fUWnU6fNn2yo5P92TOXzp69jPc+oZOSkrK+TEvKSsvxe5kNDQ0JducXEn0UCceAY2TExafk5RX0ujSJRJLdafNMpVL8/H3mvTozalIki8UcCKckfn7e7u4uEcPDDh868ehRfEtLh5PpkpKy6upaGxur3l2ooLAYbzo3MOCwerWF5/lCL0XC4RDav5zsfJlM1t782h0aGhqrqqo7+q+ZGe+liWNfe+1VZ2fHAfXZw2AwIiNHBwT4HDx4/OSJcx25pWsQCGtr63otksJCrQVTQ0OuPhzo1cdtKYaGBm7uLvgxT2lpWW5u10Om9shksqdPU3U+kVQq1cnJ/sMP3/3ww9UuLk6D49WKxzN9880l3//ny+CQAJ372Gtqah8/TujyKItOZDL540fx+BRbO2t9OH2lj+HgUBSVyWTXr9+RSVUnSTAMs3ew62ncKalUevDgsV9/+aP96h6bzXp52uSvNnwcERHal3WJXkClUm1trUePiqBQqPn5hYR1DJlM/jQ5rVHY6OPbY68OsbGPDx06oX5Lo9HmzJkeFhbcP/UewuhjTwIAzs6OTNxOcgB4cP9xj9ywNzY27dq5f9fO/e0VYmdns2bt2+vWve3gYKfzs4MA38J85Vuvf/zxex64vcCtNDY2HT584pfN/ysv74G5QiqVPn6UgE+h0+nOzg79UNchj56KxNbWetiwEHxKenpWfEJyd/a0KhSK0pKy7zdu3rJle3V1LeG/hobc7zauX7Jk3jN3VMXhsGfOiv71l41ubs6Ef7W0SI4cObV2zfqsrFxZ99aIiotLb968i0+xtrYIDPLrt+oOYfRUJAAwbvxI/HhDIGiIffC4OwsmCQlPN27cfPbsZZ2K4vPNenrud0Ax4BrweCY6/5WcnPrN1/+9czumy0LkcvmtWzGFhVo77aOixne+leaFQX9FEhoahD+WJJfLL1y4Wl7W2QhEIpEkJ6V+/tm3tzv21s5k9tgj44DCZDJMTXX3aRiGxccnr1+/8cqVm51P5etq669fu4O3LJuYGI8fP7qf6zpU0V+RmJmZhg8LwZ+yqqmpO6AdVAQPhmHXr9356KOviopKOtmwZMDl9M6UPEBQqdROzntgGCYQNHzz9X/37funk1702rXbSUkp+JSIiBB7hwGJtTIE0V+R0On0CRPG8C34+MSbN+49TU5rnxnDsPPnr/68+XfCQgGCIATX64Zc7pDyIUKlUjkGxMNkhHMBNTV12//cu2/vPzrPuuTnFx0/fhbfLpiYGE+NjuLqwYaUVvRXJADg7+8za+ZUfEppadmRI6fwbt0AQC5X3Lx5b/PPv5WWlOHTqVTqqNERjk5akdTZbBZ1KA23aDSqubkZwTfpzJlTCRtzRCLRtm07//zjb4JOZDL5jeu3CYtIfn7eI0aE6U88E70WCQDMmDGVz9d4o1IqlVeu3IzTjoP+5HHCph/+j2AwpVKpkydHfvjhuzTtVpnD4dCGUk8CAIZcA8JazRvLFy17YyHBKUxzc8uhQ8d379qPH3AWFRUfO3YG70EcQZAFC2fryZS9FX0XiZW1xWuvvYp/rIXCxh/+83+t/rgUCsWdOw/Wrl1P8EvCYjGXLl2w8fsv+Hxzwll5QyPukJqTAADXkFglBEFXr16xfv06wmZkkUi8c+e+n3/+rdU3UnNzy88//ZaPcyaGIMjEiePCw1/8BUQ8+i4SKpU6aXKkt5cHPrG4uOTA/qMSiSQuLunnn7YRttayWMyFC+e8tWopg8EAQJRKrbMcFAplqI1DKBQKgmpVqaWlBUGQ6TOmrlm7iuAoSCaTHz1y+tDBE0ql8uqVm7GxWpEf+XzzOXNn9M4v2fOLPm5wJGBnZ7P6vTfffecjtXlHJpMfPXqayzXYv/9oZWUVPjOLxVz3wbtz585gMhkAoFRiQqHWIB4dYgrRSet+HBqNOnv2ND7f/PPPv62v0zQEDQ3CrVt3CBoabt+KIZiGX503Y/hwPZqNtKLvPQkAIAgyatSwyAmj8Taf+nrB5s2/ExRiYmq8dNnCxYvntioEADAMw1tO6XTaEPSv0/6ZFotVR/ypVOr48aM++ug9wgHmVmf7hDNb3t4eixe/OkABhIcypEgAABAEWb58MWH7BmHBhM1mLVu26PXX5+OfOQzD8JNaFEXpjEHdztgdqFQKimj90Art477R0RPf/9dbOl3pqbG2tly9ekXneV5USJGo8PX1en3pAhMT3efsuFyDGTOnvv76PMJBFJlMrr2wiMDQc2hIp9MJx5UJkVIYDMacudPfWrW0o0PFNBp1+owpw0eED2AthzCkSFQgCPLSS2MnvDS2/b+YTMa06ZNXrVrG0N44DACEITuVSmH3wQ3k4KFLybNnT1u0aI7O4WJERNiSJfP04XyVTkiRaOBw2KNGDW+vBBaLFRzkr7OVJXhGVSoBG3oudlAUJUxLdG6r4XDYEcNDdQ6ofH09h+Bca9AgRaIhNzf/f//b3d6DtUDQ8Oeff9+//7D9RyTt4vQOQcuPXC7HMK2+g8EkNgQAkJyU+svmPyoqqtr/68zZSwnxye3T9QRSJCoEgobduw/qdOmgVCpzcvI3frc5MTGF4IqX0JPIZLLG3kYVHThQhGiXRoDYsZSWlv/ww/8lJCTr7GTKSiu2bdvZHacwLySkSFScPXvp2tVbHUVgUyqVpaXlmzb93+PHWoe8ERRl4MxZKIpSKUPOQipubpZpb+w3MtYaU6WnZ3337U+pqRmdfP3k5LSjR08PYC2HMKRIAAAEgoa9ew7jbT4UCsXR0Q6/coJh2NPktG+/+am4uFRtHUZRBO+kVCaT6dxI+2xpv/kfL4amJtG2bTtiYh4S+hA7Oxv8yrpEIjl+7GxCwtMBrerQhBQJNDY2/f7bruJizQ5fFEVHjYr444/NM2ZMwU9Y5XJ5Xl7BB+u+jItLbH2kEATBb4zHMEw+9CbuCoVCqT0naTVCYBiWlZnz1Vc/3LoZI5VqoqvS6fTQ0MBdu7fMmDkV30w0NTVt3bK9/Zn+Fx5SJJCQkHz+/FV8CpvNXvzaq/YOtmvWvj1t2iTC6Yu0tMwNX21q9ReKIijR3fXQi/yEIAjRnKBUAkB1dc33//nl6pWbhPxeXu6ffrbW3t526dIF5uY8/L8SEpIvXbymD06y8ei7SJqamg7sP1pbW6dOQVH01XkzRo+OQFHU3Jz3+foP5s+fhbcLy+XynJz8t1d9cO3qbZlcjt+FrlQqGxubCJP7Z05zcwuhSgZcg/T0rNWrP4l98ATfhwCAl5f7xu/Xt4bVdXCwW7NmFX55pLm5ZefO/R15vntR0XeRJCamxsbG4VO8vNznzp2pfkujUd9dvWL69MmEPUsVFVU//PDrzZt32RytLbFNTSJCYPhnjqhdldLTszZ8tSnlaTohp4eH26efrXF11WzPGTtu5NhxI/EdUVVV9amTFwa0wkMNvRaJUNi4c8de/MIIl2uwaNEcR0ctf1kmJsYffPjulKkTCeuMJSVlm374P0LsdmFj45ASiVKprK2tJ5xf/2L9xuTkVPyEnkajhoQEbtr0VZh2xGBjY6OFC+cQ3KKeO3c5MzN7QKs9pNBrkdy6eS8lRas19ff3iZwwpv2CoLGx0bp170yfPonQn4hEYoI5SyQSDymRyGQyoVBIMHDV1wvwKQiChIYG/furjzy93AhH9gHA19dr/HityN3l5ZVXLt/UGTf4hUR/RSIQCK9du92EO87OZrNefXVGR7EELC35q1YtW7psYeduS8Xi5iE1r5VKZQ0Nwk4yUCiU2XOmf/Lp++7uLjozsNmsadMnW1lZ4MqU3rn7oKamTmf+Fw/9FUlebn689ll2P3+fkZ3G4LWxtV637p2333nDQtvHCp5GYaNUMoR6ErlM3qTt1wKPsbHRrFnRn3++1tPTrZMNNR4erhMmjMVb+VKepsfrzUYV/RXJXe220MCAM33apC4PpiIIsnTpgjVrV9na2ujM0NIiUWBDqCeRSCUdRWwzNjZatWrpRx+/1+W3ptPpo8dEmOI8QSqVyju37/dnRYcweioSmUx+/fodfIqtrXVQcED7EXl7WCzmrFnRv/z6nb+/T3tnjcXFpdu27igsLO5oi8dgUlNT98/hkxkZOibZNjZWX/77w6XLFnbnHBWCIGFhwUGBWp5/79590D7c3AuJnookKyun1R+KmmHDQu3tdXcOOvH19fr3vz8aO24kIV2pVJ4/f/XLL76/dOmGzg8OGvfuxX733U87duxr78I0OCTg88/XRkVFdr80Nps1arTWWFQikWRl9TUw/HPBkNuNNzgkJj4lBO4YPTqCsLLeOQiC+Ph6btjwCc/U5Pz5K/gHEcOwx48TUlLSMzOzZ8yY6uRkP8j752tqas+evbx714Ha2jpCh4ai6NixI9Z98K6Li2N3uk084eHBNBpNbbuTSmWpKRkTJ44fUh4rBwJ97ElkMnlmRg7eUEuj0Xz9vHpaDoIgfL7ZmyuXODraE/6lVCrF4uZdO/d/9e//PHwY352IDv1Ffl7hpk1btm7ZXl1d037IZ2JivGDhbDc3554qBAAcHOx8fDzVbxUKRVp6pqCrUKYvAPookoYGYVlZBf7B9fBw7XUUWT7fzLSD2AZyufzx44TPP/tm69YdVZXVA2oabnV9ffr0hbVr158/d6UjL/EmJkaWlhY6/9UdgoO1goFVVlZ3Ge/3BUAfh1sCgaC6Wmsray+6ETVMJtPZyeHe3diOMpSVVfz+2667dx4sXjx3zJgRJqZ9jeDeHpFI/OhR/L69/zx5kkDYi0XA0soCv+LRU6y0Q680i1ta9GBJUR9F0tLc0urGU02vo9G2Ym/fdRCClJT0//5366NH8cuXL3Z2cezL5QiUlpbv23fk8qXrFRVVXY7rnJ0d+3Ja3cHelsNhi0Qqt10ikYgwtXsh0UeRSGVyggNfUxPd46VuEqQ9CEFR1NLKoqFBiPdOr1Qqa2vrjh8/e+fO/SVL5k+Z+pKNjVUfJ/SCesGt2/d37tiXk6PDFEuj0ywt+OXllfh4QzbWln25KNfQgM3WiKSxsalHgRefU/RRJAgCAP1pbnJ0tKdQKOopB4WCRkWNc3Z23LZ1Z/sQ79XVtVu2/BkT83D6jCmTJ0/onV9dmUz+6FHc0SOn7t6NVT+yeFgs5htvLDY1Nd68+Xe8SFzbxU/sIyzmi+9nSB9FQqPRGNp+Fvu4JZHDYdvaWqvj+8hk8tqaun+9tzI42H/Xzv23bsUIBA34gZBMJo+NfZKY+PT4sTMr3lzi7+/d/SikAkFDQUHx3r2H79x+IBKJ2o+vuFyDgEDflStfDwjw2bXrAMELq4cHMRhvj5BIpDK55l5RKBQWmxTJiwiVSiVs5i0oKOooczdx93DBB8EqLi6rqxO4ujqv/+KDseNG7t1zOCkplWDdammRxMUlZWdvCAjwWfbGouBgf+IhR20UCkVWVu6OHXsfPYyvqSFG/W3Fzs7mzZVLJk4cZ2Ji3NTUlJ2Vgw+ua21taWbWp5jAJcWlwgaNJwAWi8ls56bsxUMfRcLlGpjyTPFhN/ruLMfBQWuppKqquq6+3tbO2sCAExU13sPD7dSpC6dOna+qrCa0/UJh4927sZmZOSGhgdOmTQ4PD+FwWIRpg0QiSUxMuXjh2sOHTwoLS3RueOFw2NOnT545K9rb27O1CaitrS8pLcfnwZ+m6h2paZn4q5uZ84x6azp/jtBHkVhY8N3dXeLjktTPa1xcYmlpeV9sXEFBfgwGQ33EoqysIisz19/fBwBQFHVysn///ZWjRoUfPHj8YWxcXV094eNVVTUXL1y7fu3OiBFhM2dFB7Uj0ukAACAASURBVAb68flmKIrW1wlSUtKvX7994cI1ggNfNVyuQWCgX/TLUdHRUfgesrq6thLnaQ5FUU+vPo21BIKGRw+1PCpZWvJNB8CiPdTQR5FQqRQ3Nxc6na5+ppubW86evbRq1bJel2lrY2VjY5WXV6BOSUlJmzN3uvotiqJhYcGurs6PHyfs+ftQQsLT9h2CVCq9dSsmMSnF08Nt5qyp1laWBw4ci49Pqqmp68i2a2dns+yNhS+9NM7MzJSwiF5eXllbq1Ejk8nw9e39chAAxMUl5ecX4lNsrK1M+mYYfC7QR5EAwJgxw3fv2l+CCxR6+tSF0NDAkJDA3llIrawt3d2d8SJ59CheJpUR4ieamBhHRY2fOHHcxQvXDh06np2d134fu6C+ITb2CSHEFAEOh21vbzs1OmrRojkd2cce3H+EnwU5OTkQxoTdR6lUFheX/v3XQbywDQ25kZGj9SFciT5uSwEAKyuLyMjR+JSSkrLt2/f22rUch8N2d3fFPzGlpRW5ebqnOgiCTJ4y4b8/fv35+nUenZ520om5Oe+dd5dv/mXjsmULOlKIQqGIidFyXuzoaG9hYa4zc5dIpdIDB44lawfvdnFxjBge2rsCny/0VCQUCmXGzKl4p1IymTzm3sON3/3cnXVrnQWGDwvBm6ckEsmd2w86yo+iqJWVxZQpL23a9NXixXO7f6GRI4dt+u+GBQtmOznZd7JtOTU1A38WgEaj+fl59W5NRihs3Llj36GDx/GH2ul02py5M/QkBi9lw4YNz7oOzwZDQ25Lc0tycpp6TKJUKnNzC7Kycm1srKysLHrawJuYGJ8+fRF/oJxKpUZGjtJ5Jl4obHzyJPHC+avHjp2JiXnU0tLdzR01NbU52fklxaVNIhGHw+ZyDXRmO3Tw+JMnieq3BgaclW+9bmnZ4anjjsjLLdj2287Dh07g9yggCDJ27IjlyxezWHoRYfTFH1B2BJPJWLBwTlx88kPc6F8ul9+//yg/v/CVV16eOXOqOd+8+4clWCxmULA/frWksLA4L6+w1cYlk8klEolEIklNyYiNffLgwePq6lqBoEGu7cq6S5qbW5KSUpKTUw0NuWZmPH9/71GjI4KDAzgcNpPJoNFoCIIIBA2JSSn4T/F4poQIw52jUCjq6wW3b8X89dehwsIi/GILANjb27658vWOwmK9eCCDedRhCJKenvXxR1/pPIbK55tPmz55WHiwp5ebmRmvOwcwLl28vmbN5+q3dDrtvfdWBocElJSUZWfnpqSkZ2bkdGdvOYIgPJ4pi8UoL6/qjopYLKaLi6O/v6+nl5u9nW1Nbe1PP/5WUaHZVbVg4eyvvvq4y3IAoL5ekJOTn5jw9NSpC3l5Be0fDz7f/MsvP5wYNa47pb0Y6LtIMAyLffDkm29+1LnojiCIqamJvb2No6N9cHCAu4eLtbUVwT0unqys3GVL38UbXvkW5jQarbamrvsDKnd3l6nRE0NCAtksZmpa5vlzV+LjkwhteUfQaFQTUxM6jVZeXok3bW3+5bupUyd29KnGxqbS0vKcnLy4uKSc7LySkrKqqhqdp1/MzEzXffDu9OmTe3SK83lH30XSSmlp+fr13yUnpXZ0VgmPgQHH3NyMRqMxmQw2hy2Xy5sam6RSqVDYKBA09MIRMIIgfL45n282bFjIlKkveXi44h9BpVJZXl556dL1mzfulpVXVlZU9u4SRkaGXK4Bi8XiGLCZTEZLs0QkEisU8ro6QXc6NwaD4ehov/6LdeHhwT29+vMOKRIVpaXlp06e//vvQ4MZYARBEFtb6xEjwqOjJ9ra2XRiLWj1VlpUVHL//qNbN++laW8PGWioVMqMmdFLXnvVw7NPa/bPKaRINMhksqSk1PPnr9y+FVNeXjkQdwZBEC7XwMjI0N/f28fXy9fH083dhc1mtY9m2nEl5WKxuKCgKDUlIyUlPTk5ta5O0NAgHKCzwSYmRhHDw6ZNmxwREdo7C/ILACkSIjKZLD4u6cqVW+npmWlpmS3tQof2AgaDYWtr7eRk7+Bo5+fr5ebu4uBg1/dhfetILDs7N+VpenZOXn5eUXFxSXdGjF1Co1E9PNzc3JzHjh05YmS4oSG372U+v5Ai0U1Li6ShoSE1NfPJ44S4uKSiohKZTKZQKOQKhVwm13nTUBRFUZRCoVAoaEuLBD8ciogI/ejj92xsrDgczkDs41AoFCKRuL5esGPH3uPHzuKrx2IxMUyJYQqFAtM5QkMQhEqlUChUCoVCp1N5PF5ISEBQsF94eIixkeHzEZZ+gNEjG0WPYDIZTCbfwoIfGTlaqVRWVlYXFZVUVFTV1taVl1e2NLdIpVK1xYnBoNNoNDabZWDA4ZnxDAzYe/f8k5ycqi4tIyO7Wdzca4csXUKhUAwNuQ0NwpSn6XiF8HimH360WqFQ1NbWNQqbRCKRVCaXSiStEaspVAqTwaDT6ebmPHO+mYWFua2tta2tdXu3lHoOKZKuQRDE0pJPWK6WyeTqaQCNRsU/WHK5vKqqJjs7V+0kQSBouHz5Rqh26I9+5+rVW/gFHwqFMmHCmClTJuA3y2AYJpPJWnVEoaA02gvuV65f0NO9W32HRqMymYzWP0LTS6VSIyNHu7g44RNPnDx/584AepjOzS048s8p/PTdxsZqztzphNOOKIoyGKpqkwrpJqRIBgR7e9uoqPH4FLFIfP781QGyL2MYdu9uLCGUoX+AD0GoJL2DFMmAgKLo9BlT8M+oUqm8H/Pw5o27A3G5hITkf46cxPt8MDU1eeONRRxy2t0fkCIZKCwt+dOmT8aHrq2urt2775/qat0+HHqNSCTatXN/Pu68F5VKnTQ50tu7BzsaSTqBFMkAEhU1juDCJz0t68yZi4Qwn31BqVRev343JuYR3ijt4Gg3c+bU/roECSmSAcTZ2XHe/Fl4t6IKhWLf3n9u3rzXLwvkGIY9fZr2118H8MehaDTq5MkTvLzc+14+SSukSAaWiRPHjRw5DJ9SVVWzd8/hvnv6AgCBoGHH9r052vv8g4MD5s2b1Xn0U5IeQYpkYGk9EuiJa9cxDIuLS9q2dUcfvegKhY3/+99fV6/ewu+it7GxWvHmEj7frC8lkxAgRTLguLk5z5w5laPty/3mzZgd2/d0FPKzS6RS6ckT586cvohPpFKpEyaMCQkJ6H1dSXShv2fcBw0KheLo6CBpaUlKSlXvGZHL5RkZ2cKGxsAgv869m7ZHIpHs3LFv1+4DDQKtAO2TJke+/fZyXgcRhUh6DSmSwYDJZLi5uyQnp1Xi3JxiGJaZmV1fL7Czs+n+k11WVnH48Mldu/Y3CrXWJZ2dHT755H1XV3L1sP8hRTJIsNksR0f7lJR0fPB4DMNysvPj45ICAn0NDbmd7yyUy+XVVTXfffvTyZPnCIeBeTzTNWtWjRw1bJAjmOoJ5Fb5QSXuSeLHH28o1fZjDQBGxobTpk2eNSva1dWZEBYCADAMKykpu3zpxpEjp4qLSwn/ZbNZn362Ztasl/XBmeIzgRTJYHP58o3/btrSXicIgjg62fv4eEZGjvb19bKwMEdRSm1tXX5e4Y0bdxISnmZl5bZfhWSzWStWvPbmytdJhQwcpEieAcnJqV9v+G9Wdq6s0yCgnYOiqKOj/dp1b48dO4JcFRlQSJE8G5KTU/fvO3L16q3eBeak0+nDIkKWv7E4JDSQ7EMGGlIkzwalUikWi0+eOL9794Ha2npJtwM902hUU1PTKVMmrHhzCY9nQs7UBwFSJM8ShUKRkZF97eqt8+evlpSUdekliG9hHjVx/NSpL/kH+OiVe7hnCymSZ09Li6SwoOj+/cfXr9/Ozc2XSGUKuQLDFEoloChKpVJoNJqlJX/suJHjx492d3chT4kMMqRIhhAYhhUVlRQUFFVV1QjqG2QymSnPlMczsbW1dnNzIecezwpSJCQkXUBucCQh6QJSJCQkXUCKhISkC0iRkJB0ASkSEpIuIEVCQtIFpEhISLqAFAkJSReQIiEh6QJSJCQkXUCKhISkC0iRkJB0ASkSEpIuIEVCQtIFpEhISLqAFAkJSReQIiEh6QJSJCQkXUCKhISkC0iRkJB0ASkSEpIu0OGlJlMMD4TtkztkqWW/1aY9GWKIbavMSyZgy+hxCQol7NMVd40CwKIAnwY+HODR+lRJkt5xrhZqZAAATBTm87vO/6QRUkSq1zPNwHiwXCzpuM7Neng7qwdFDKhIrtXBe9mq12f9eyMSmRKWpXeWAUUgmgdfOkCYYW9qSNJrNuRDXCMAAI+mQyT/VEGWGL501KQcroSfi1WvQ8MHTyTkcAswJZytgZHxsJsYDYHk2RDfCKPjYX4qFPbGmXj/o0OMbApYaHvyb5BDS5uXWhMq0J9bZaEImNMAADAlNGPQhIulLlPCm5lgz4SXyJCDz5RSCYTFATaUXCbqEMkSS1iiPYKanwr/VKlen/CDccYDX6+BwYoOJSM0b0UKuFIHn+ZBlhgAAFPC0nTIi3iOW4Hni1tBIFcCaI9nZMoOFfKdM3zhqHpt2FnkvH6m/4d1Oc2QJQahAqgImNPAjwOmHUyLhXJIaoIqGSiUYEQFTzY4dDsMrUIJMtytZKDQixAEHArMMocxxhD8BIpaAABKJXCgEpZZEXOKFPC4EaqlYEwFPwOw7DRmjhSD+CYok4ASwIYBgQbA7FR1BS2Q2wz1cjCjQZABGOn6TdQ9OR0BFAEASGqC3GbgUmCYIRjiPlIigYRGQBDwZoMzS6sQJYCkXTkJTZCvq5z21MggUwzlUuBSwJsDdh3PD5UAWWLIaYZGBTAQsGGAnwGw2t0EOgJUBAA0v50U09QQABRK1Rdv/X2piOZOdhRyojs3U4pB60UoCNAQAIBaGcQ3glABjkwI5hKfpf4Uybla+CgHMsRaiSgCs8xgixtY4+5puRTWZsOJaq0HHQB8OfCLW9cDHrECxifCozar18s8OOmnut29gEeD9Q7wVqbq7bFqLZEI5bA+H3aWaR5TBGCcCWx2hUADYlGNCvimAP4o1RrIcSmw0hq+ddbxlBypgp+K4THOlkhFIJoH/3EBL5zneIEcTO6qXu/zBmcmvJWpsfOwKbDBET6yh1oZrM6CI9WalngKD/Z4qUaYAJDbDG6xqtcn/YBHhbcyIb3t92Kg8J4tbHTS0ZHGNcI3BXChVtXwtxLChe+cYbIpMfPeCtiQD/na0wkWCkss4Rc3rZswIl4zca8ZBQAQ/ARSRZoMf1fA3xUAANkR4MqCT3M1E/en4eDL0bpEN28mAITHQVITAMDrlrDFDT7IgT0VmkfRiQm/ucMUniZ/vw0sTlTD9GSiQgAAU8LxaohMBFHbc1Mng1Hx8E8VUSEAkCKC6GS4UNvZhRRKWJCmUcg4Yzjq23uFtPKKueb1/QZQ16tWBqMTYFuJRiEAoAS4WQ8j4uBSHb4MqJHBqHj4qUhLIQDQqICfiyEqEaS4QjAlrMiAealaPyoAyJVwugZCn8DpGt1VvVgL4xM1CgEAsQI+zoVvC2BUPByu0hqrXKyFl5N1j16u1UFkokYhACDB4KcimPZUSwkAsL0MRsTDmRpielwjTEmCL/K0En8thtfTiQoBgGYM/iyDl5O1bkJ/0eubKZDD2ATYWa71KOa3wPSnmgcM+kskzRi8k6V6tugovGYJXzjCcitNZ5cphjNtFd1UBHnNqpxr7GCPFxzwhvdsgYIAAEgxWJ0Fio7nbf/K1hQVZghn/LsYzHQHM5pmqUQgh6q28J1vZEByW7R0bw6ss4PFFqoOuhmDRWlQiQv0uTRdk9mMBq/yYbGF5g7ca4CNhZrM3xXCLpwxLZgLL/M0Bm6xAuanqlpZAgcrQYbBNDNY7wAjjTTp/86HDDFYM2CdHSy1VN1MAHgkhAt1Osr5rRTkSvBkwworiDLVDDCu1MGmIk22WwJ4O0vzZDsyYZoZ+OGa8I2F8FtbPOB6OXzWpplgLmxxg398YKubpsm/UQ8HdK1ZqTGhgglucMNAgUcDHk3zdXTS65t5ugYSm8CJCevsYLWt5seSKzVdFvTXcCtDDNZ0lRHsTw/Nysk8PkQlqV6ru9E7AtWLaB784qp6vdACrOnweykEciHQQDWmbM+mIvi97Sfx4cAlf+D20wTOlAq1bVE+BXKwoMNjoUaNE0zgvD8wUACAFdYQmQiYEupksLUEvnMGAIgVwvm2DjDIAC4GqCyExRIIfqxaMvu/EvjMAZgoFLbANwWqzGwKnPCFSaYAAHIlfJYHPxUBALRgsDoLHoToqOo2d3jHRpXfPVbTbLuy4GGIagboxYFPclXp8Y3wMk9HOW/bwDY31czkZDXMTlE1c5uLYZ0dsFBQAqzM0HREG53hU3tV/qNVsChN1QB/mgvz+GBGg0dCTZf7lyf4tw1Hl1iC/2Pg0yHQoIt127vBUNACTg9UbxdbwE7PzvID9PVmvmQC59p+2YV8GBGvSn/c7z1JkAHEh0HTGEgbBkssNOm+uFF7Q9sgBG1rFc7UwIoMuFQHYgUAwKcOUDQCzvjBN066FXK4Ej5r++GdWXA1sEOTQC/At1Wt46Uj1ZqU751V9xEAxhprnjm10e84LvMPLhobuh0DPneAFVaw1Q3O+qlu91/lmq7yY3vVjwoAVAQ2OWuerVghJDYBAVsGvG2jyR+B60w+tNfckLE4C2S9XMf3taDDr66a32KWObzatpxXJ4MHDQAAtwWQ3axKHGcMnzto8s/lw0pr1esmBeyvANB+mOalwpYS1ccNqVAwHB6FwHYPmG6mozJ9oS83EwA2u2l+2eFG4NJm6qjD3bT+NHZSEPBiQ5MCLtfBxkKITtZMEwE0I9qJbfNyhRJ2lcOUJDC+CxFxsD6POKYkcKBSM1uIMASrfg3LTJhqg3Zb0qSAWKHmz7StA85tBqEcAOAJLjN+FAQAa+1ghyestoXRxqo58S2B5r8rtC1pKAJv4FJuC4CAL0fL9oK3hAbhmiT8arRc19h1gglxgh6N621a57W36nH1tAYCb+JSWusZYaTp2DPE8H42uMeCVQwsSIW/K0CgS6t9py83k4YQZ/9quyXeyNZv1i1MCbsrYFcZPGrUPVNU/yIf28OFOq1HUKaEh0J4KITvCyGYC7+5Q0RXO0QOVcJqGxhu1EW27le+FhdRvbU9rsLNNyYk6v6gEqBYAj5U1YAKAJgocLoaARa1DZCYqJbRrxVXnN22tF1QXhPtzhNvscD3q/iOUWcss/ZNjA2uJq13owh3dRcWMT8+pVQKAMClwJ8esCRdS5YVUjhcBYer4F0KvGcDXztpWu5+oY83kzDZUdcNf8/6p75yJbz8FN7MgFihSiGOTFhoAVvccFdqqw6bAneC4EcX8NAVHzO+ESITtKw3eFio6msoAd7PgY6n9z0jsxma21oOW4ZqsKfo5AM4WseK6probLYJdG5pwD9D7SesnXy0RyY+abt64hNar4uvZ3uladWz7cUCC4gNgbl8Hd9RrIBNRbAioweV7A59uZm0dik6b2H/iOTvCrjYNm2dy4fcCMgfDge8YTFu5R5/JSYKH9pDxjBIGwa/uMIsc40tHwCaMdhSouMqdBRO+sG/bFVvHwthT0W/VB+OV2leq/cTqOdFFARqR0HjGN1/IVwAAH5bwyxXQpl2i1UsgTsCrZ5K3eC1YDqatyycWbaTBbs+ktNMTMHXpPW7W+N6m9x2Vt1sfD1xq8AhXDjiAzWj4LQfvG8LwVytp3N/pY6v3BcG4Wb2j0jUKxtUBPZ4aRZ6a2TEnJgS8lvgYi38UgzX6sGLDWvs4IQvVI6CU36abLntfkIA+MUVJpnCegfN4/tZLjR2s8HvmCyxlr1vdZsIg7mqFwolZDWDAUXzd7UOHjSAUA4GFFUPGcrVlHBR2+T6WwmMTQCze2ARo7K+4yctf5ZpZVYC7MMpP3LANpLdqtfSLQBcxlW79btr1bMUCOBbqEhjAIBGBTwWwr4K+LoAWChMN4Nf3SAuFMpHwgTcF8nT9eOqwT+R3RkpDMLN7B+RNLbNyQjt6M84i3tr/54uBucHMDUZ1uXA2mzNIAcBiDDUdHY6J+X2TAAAIypscFKlVEjhu4Ie1FOCwbV61d/FWjhQCe9lQ8gTzZxykikMa5sOzcGtMH6Yo1kMzRLD/DSISgKb+xqL4au4nd5f5Gns3Skijc1aioGfAQDAYkvNN/25SGNolmKwJltzfmaiKXgOWMT2ZgxeT1eNFQHgXC0cbutOrRkQbggAMM5Edc8B4F4DfJWvsSMdqITNbS0LjwaLLAEA3kiH8DhYkg4b8rXWQ8xp4I77Iladtug03CNZLgUAwJSdrZsNws3sn4l7EBeutVlCpibDx/aAAhys1CQCQJ0MAMCHA9PNVN8kRQShT+A1CzCnQ4kE9pRrWo7XOj2j8pY1bCtRre7/WgIrrXVMK3VSI4OJHUzBAcCWAXu9NG/HGsMEE7heDwAQ0wABj2GWOSAAeyo0i2vvt3U7oVx4xRxOVAMAVEgh8LHqOXss1KzmfmCn2pThxoIP7eHHIgCAZgxmPAUfDlgzIKlJYy0wpMJW3IxuIDhfCy6xMNYYKqVwW6C5+Z/aqwbrCMDv7jAtWfWvbwpgZzn4cqCgRWsYs9VNZdT6xAFO1qge6BWZcFsAYYYgwyCmQWNPjzDUmky3x5QKFERVyMVa8H0EFVK4Gqhlu8MzCDezf0Tyvi3sKlfJIEusmZwZU8GcpjKWq1ejd3vC+AR4KgIASBNp1mjVrLHTWLt1VxqBH11hWjIAgBSDdTlw2q+z/N0hzBAOe2umFq0c9IYxCZApBgDIbVatTKn5wA7m4TqQXZ5QLFFZ7eRKuN+glXmyKXzqoHn7vTNUSmFv22AgVaS1Z8mUBid9dRs2+ouRRpDcBBVSzVJPK6/yNQNOAIjmwRY3+CBX1S6USbRGCigCm11hQdvKWCgXtrnBu9mAKUGKwa5yrYVwALCgwx4v6BwGCsMN4V7b3Wu9LcUtHYoEBv5m9s9wy4YBNwM1g3gAQBGYbgZPQuHdtjueIYaEJgAAHg0ehMB6B+KpFQDw5cB+b80yfCe8zNPsgzxTA1d17bzoHBQBQyq4s2GBBZzzh4chxD2zAMCnw8MQWGtHXLV0YMKfHvCTdj2NqXA7CL50JC4qW9LhP85wxl/L+tQ6eTvpB2ONtSwqLBRet4SEUBgzwOcRQrlwL1hrKmVEhY3OcNCbaOFZbQuP2hmsUAQiTeBekKYvbWWVDdwOgkgTjTGzFRYKSy0hIUxr3NUR//PQykZFNMNynQz0zUSUOq3ovSVLDLnNwEDBz0DLYKUTTAk5zVAkgRYMuBRwZ/fz+mA/IldCqggqpYABODLBg93ZznxMCSkiKJMCAmDPBA8W8YkhUCOD3GaokwGPBv5d7avvCzm4XcDv28KvbgAAGWIoaAEjCgRzu1jBECkguxnKJWBAAe+uHAM0yCFNBHVyoCJgQQdvds9O6WBKSBJBuQSMqeDN6cFJ3YG4mf0sEpKhjE6RkHQJeQaPhKQLSJGQkHQBKRISki4YLNdFJEMASzoc8lG9HlD78gsGOXEnIekCcrhFQtIFpEhISLqAFAkJSReQIiEh6QJSJCQkXUCagDvjQKVqo7sFTcul38DRgmmcehhSwJvTaW4AAIhv1JzF7dI3AACcqdFyBQIAC/jEXVuYEvZVap154qAwtxshRF5ISBNwZxjcUZ21GmkE94IH44oZYvB6qHo91hhuBXX9EcsYjY885fiu8wc+VjlDUXMtUOvkIADENULoE60UG4aWr3G9ghxukWidjesoRZ8hRUIC19qdxrlOigQHKRL9RX3IJb5Jy8ujBIN7bX7cOj8JoyeQIukZmWI4WQ3na4neazAltGCqv/be8gFAhsswRPBgq84kYUq4ges67jeoTgIioOUbW28hrVvdJUsMKzLhblsTiwBM5cHv7ip/IuVSsH+gcsznzYHUcK3PKgGcH0CJBACAT4fSEX2NFdEvMFCIMFS5Cb1WD7PbvMOoJyS+HN1OmfUNsifpFkUtMCJeoxAAUAKcr4WIOJVTdxsGRLUZiNJERA+UsQ0qhQDAAv6QUEgr49rqjHcSoJ6QjCPDRwIAKZJuUiyBWhn4cuBTB3jHRuMXolwKS9viX+PjYx3RdkFyDOdzfslARvTuKePbPCTkNqtC3TbI4Ukj8b96DimS7jLHHBLD4D/O8Js7JIZpfFbcEaj8Ms4w04iHIBJ1YAYfjpZPmWdOhKEmPtvVegCAWwKVzytEO36DPkOKpFtQENjirvFp2xp1RE2rg1AGCgva1qQzxZoFu8dCTTzyIdWNAAAd1XjmbzUEqyck/gb9Gf7luYYUSbfwbOfuaDxuvK52haZzxKUea6EILMJFOBoiqB2E36gHJcD1OmI6CSmSbtHehxg+SrV6kSGEqwmtdKRdEKwJJloxQIYIarVXy+BirSbU6Hhy1t4GKZJu0T6aB95AhQ9zsaxtQJXTDPGNkNCk8ZA/1MZarYRzgd0WXmR9m8tZFBlwF5LPEaRIukX7UBCluDhY+MWERZYazRypgmNt/YkBBV7p73CB/QIdhRFte4fVG5ADOFpRcPUcUiTdolJKdIB9ERdsHm+wMqfBy21iOFKlGWvNNtc02EON9ush5AoJHrK56C7LM+B6oCquUooIfmgLyo4iME27i1hmCSerAUATPBp6Ndaql3e2G9eVBY5MYmIn+Xm0Dh2zt18PIVdI8JAi6S4ZYvB8CFGmoFDCpTrNFqzFFuCk/bBO4YElHSpw4zE7Rm+MRclNnUVT+dYJvnAkJnaSf4IJXAvU/a8wQ+BQNFGKyAkJAXK41S2WW4EdAxoVcLwaTtVoFBJooBU8tRUqQgxCtNhySG+npSFaQdWCDMCIbDxxkCLpFrYMeBQKs80164k0BFZYwa0g3c/TMu2A4p0H7hoK4MdX5AoJAfL4bs+olEKKCCgIBBh0Zv/JawbXWNUZI4mRkwAAAKJJREFU8WAuxIUOVv1IBgCyW+0ZFnQdAbras7FQ40VhCK6yk/QIsifpNzLEkNwEVATO1sDfbfH7WCgUj+giKBTJEIfsSfqNnGaYl0pMXGdHKuS5h5y49xv27fZlzefD1066spI8V5DDrX5DpIBvC6BYAkoAewa8ZKqJD0zyXEOKhISkC8jhFglJF5AiISHpAlIkJCRdQIqEhKQLSJGQkHTB/wO7Ni3klye99QAAAABJRU5ErkJggg==;" vertex="1" parent="1">
          <mxGeometry x="380.55" y="509" width="75.85" height="60" as="geometry" />
        </mxCell>
        <mxCell id="dx0lfmIM48h0s-aNrfmx-1" value="" style="shape=image;verticalLabelPosition=bottom;labelBackgroundColor=default;verticalAlign=top;aspect=fixed;imageAspect=0;image=data:image/png,iVBORw0KGgoAAAANSUhEUgAAAP4AAAEgCAIAAAAbt1ntAAAACXBIWXMAAA7EAAAOxAGVKw4bAAAgAElEQVR4nO2deVwT1/r/kwBZZN/CIriiLK5Xy1JFa0UUl7pgW7VeRRSX1lZt7XW56m21WrtprdpSe9G211pRa92oKKJoRUUQakFARARlF0iAJCQkJPP7I79vXvM6E0IyMyhynvdf5MxznnkmfDJz5izP4RIEwQEA/OA97wAA4PkA0gcwBaQPYApIH8AUkD6AKSB9AFNA+gCmWDN3odFo/vzzz/z8/Pr6+ra2NiauuFyut7d3QEBAWFiYra2tpdVVKlVRUVFGRkZ1dbVarWYSCdDFsbGxcXNzGzx4cHh4uI2NDQ0PXIZDWi0tLXv27MnMzJRKpRqNhvkAmUAgsLW1HT9+/Lx587y9vc2vKJVKz58/f/bs2adPn6rVap1OxzASoCvD5XL5fL6zs3NoaOiaNWuEQqGlHpje9X/77bcrV67U1dWxJTW5XN7Q0JCUlNS/f//x48c7ODiYWTEzM/P8+fNFRUVarZaVSICuj1QqVSgUAwcOjI6OtrQu07Z+amqqRCJh/RZbX1+fm5srkUjMtFer1YWFhQ8ePADdY4VOp5NIJJcvX6ZRl6n0S0pKGLbv20MqlapUKjONFQqFRCIx3x7oNuh0uqdPn9KoyLTB09zczNADK6hUKo1G87yjAF4koHMTwBSQPoApIH0AU0D6AKaA9AFMAekDmALSBzAFpA9gCkgfwBSQPoApIH0AU0D6AKaA9AFMAekDmALSBzAFpA9gCkgfwBSQPoApIH0AU0D6AKaA9AFMYSp9BwcHLpfLSigIOp3O/Fxutra2NPJvAd0AgiDoJV9iKn1/f396GQ87RCwWm592087OzsXFRSQSdUYkQFfGysqqV69eNCoylf6CBQucnZ1Zv/H36tVr1KhR7u7uZtrzeLyQkJARI0Z00iMI6JpYWVmJxeI5c+bQqMs03axCobhw4cLly5dLS0tbWlqYp5vt0aNH7969p0yZMnbsWGdnZ/MrymSy7Ozsy5cv5+bmNjU1QbrZ7g2PxxOJRP369YuKipowYQKNBz5T6XM4HIVCcf/+/dra2tbWVuaCEwqFYrE4MDDQzs7O0rotLS0VFRVlZWUKhQKk373h8XhCodDDwyMwMJBeQ5cF6QPAiwh0bgKYAtIHMAWkD2AKSB/AFJA+gCkgfQBTQPoApoD0AUwB6QOYAtIHMAWkD2AKSB/AFJA+gClMt4zmcDgKhaKoqIjdScsBAQFMJi23tLTApOXuDZfLZThpman0W1paUlJSUlNTHz169HyXqsjl8uzs7NTUVFiqggP6pSr9+/ePioqKiIigoX6m0s/Jyfn222+fPn3K1rx/qVRaWVlZWVnp5OQUGhpq/mLzwsLCY8eOpaenwwoEfKiurn706JFYLA4JCbG0LtO2/uHDh6VSKetqe/z4cUZGRl1dnZn2Op0uKyvr7t27oHus0Gq1dXV1J06coFGXqfTz8/Pb2toYOjFKVVWVXC4301gul9fV1clkss6IBOjKtLW1lZSU0KjItMHT1NTE0EN78Hg889MrKBQKlUrVSZEAXRkul2tlZUWjInRuApgC0gcwBaQPYApIH8AUkD6AKSB9AFNA+gCmgPQBTAHpA5gC0gcwBaQPYApIH8AUkD6AKSB9AFNA+gCmgPQBTAHpA5gC0gcwBaQPYApIH8AUkD6AKUylb2dnZ37ehM5DKBTa2Ng87yiAFwmm0u/bt6+1NQuJO6k4OTkJBAIzjW1tbV1cXMxP1QZ0G7hcrpubG42KTKUfERHh7OzM47HccHJzcxsyZIirq6uZ9nw+39/f38/Pj15KFuAFhcfjubq6RkRE0KjL9Ib95ptv1tTUZGZmspLhlcvlcrncHj16REREhIWFOTg4mF83LCxMIpHodLq6urpOSggHdCl4PJ6zs3NISMi0adNoVOcyT1Kp0WiuXbtWXFzMSv4z/f07LCyMRpJxlUpVVFR0586d5uZm5pEAXRyRSOTv7x8eHk7vNY8F6QPAiwh0bgKYAtIHMAWkD2AKSB/AFJA+gCkgfQBTQPoApoD0AUwB6QOYAtIHMAWkD2AKSB/AFDZXmeh0OoaT4bhcLitT/5lHAnRxmEuFBekTBKHRaFQqVXNzs0ajYeKKy+V6enpaWVlZW1vTWPdIEIRWq9VH0trayiQSoIvD5/MdHR35fL6NjQ29JbIsSD8vLy8hIeHu3btKpZL5vVYoFA4ZMuSdd94JCAiwdB72w4cPT548mZqa2tTUBHf97g2XyxWJRCNHjly6dGlQUBAdDwwlcv78+QMHDlRWVqrVarbUJhAIgoODY2NjhwwZIhKJzKyVlZX166+/3rx5U6VSMV8vBnR9uFyura3toEGDli9fHhwcbGl1pg3rlJSU6upqFnXP4XBaW1uzs7MzMjKkUqn5tXJzc7Ozs1taWkD3mEAQhEKhKCwsTE5OplGdqfTv3bvHru71KJXKsrIymUxmpr1CoaitrYV1ibhBEIRSqczLy6NRl6n0GxoatFotQydGaWtrM//+rVAoWlpaOikSoCtDEAS9LARMpd95uQ+srKzMf3PXarWgezzhcrn0MkHBkBaAKSB9AFNA+gCmgPQBTAHpA5gC0gcwBaQPYApIH8AUkD6AKSB9AFNA+gCmgPQBTAHpA5gC0gcwBaQPYApIH8AUkD6AKSB9AFNA+gCmdF3pW5TlQb/NeucFA3Rl6CUEYSr9zhOcSqUyf827QCCgt2U28KKj0+nkcjmNikyl369fP3rr4TvEy8vL1tbWTGN92hK48WOIjY1NYGAgjYpMpR8SEsLn8xk6oWJlZdW/f38nJycz7Z2dnQMDA318fFiPBOjiWFtb08u5yVT6ixcvDgsLMz8zpjlYWVnNmDEjLCzMwcHBzCo8Hm/MmDFRUVGurq4sRgJ0cWxtbceNGzdz5kwadZmmmyUIoqys7M6dO48ePZLL5czzQNnb2/fv33/kyJG+vr4WPU+0Wm1tbe29e/fy8/MlEglkpOre8Hg8BweHvn37hoSE9OrVi0Zbl6n09TQ3Nzc1NWk0GuapXvl8vpOTk52dHb2NA1paWhobGyHZcreHy+UKBAIHBwfzmwaoB8hDD+BJ1+3XB4BOBaQPYApIH8AUkD6AKSB9AFNA+gCmgPQBTAHpA5gC0gcwBaQPYApIH8AUkD6AKewssNJoNBKJRKlUMp8vaWdn5+LiQnvlV1tbm1wub2pqgknL3Rsej9ejRw9nZ2faC1NZkH5ubu6NGzcqKytbW1uZzwMVCAReXl4TJkzo16+fRfP1dTpdWVlZRkbGgwcPFAoFzEjt3nC5XKFQ2LNnz3HjxgUEBNDwwFT6f//99y+//HLz5k2ZTMaW2mxtbRsbG2fNmuXn5ycQCMysVVpampSUdOHChYqKClbCALo4XC7Xycmpurp6wYIFfn5+llZn2tY/derUtWvXmpubWbzLKhSKy5cv37lzp7m52cwqarU6IyPj4sWLoHt8IAiisbExLS3t6tWrNKozlX5WVpZGo2HohEp9fX1xcbH50lcqlY8ePaqsrGQ9EqArQxCEQqHIzs6mUZep9Kurq83PlmMREolEpVKZadzW1qZWq2FRIobodLonT57QqMhU+p1xy9cjEAisrKzMNFar1Z30CwS6OFwut0ePHjQqQr8+gCkgfQBTQPoApoD0AUwB6QOYAtIHMAWkD2AKSB/AFJA+gCkgfQBTQPoApoD0AUwB6QOYAtIHMAWkD2AKSB/AFJA+gCkgfQBTQPoApoD0AUxhKn3aGQI7RK1Wm5880MbGpvMiAboyBEEolUoaFZlK38PDw/y8CRZhb29vfuJBGxsbPp9Pb4N14IWGx+N5eHjQqcjwxCEhIebnBjQfa2vrAQMGODs7m2kvFAp9fHzEYjHrkQBdHBsbm5EjR9KoyFT6r7322tChQ0UiEUM/ZPh8/siRI4cNG+bg4GBmFYFAEBwcHB4e7urqymIkQBdHJBINHz587NixNOoybR8HBwerVKqUlJSamhpWkkDxeDx3d/fp06cHBQVZlGk5ICBg1qxZ9vb29+/f77zEWEDXwcrKysvLKyoqavDgwTSqc1lJEyuXy+vq6tRqNXNXNjY2np6eIpGIy+XSqK5UKiUSiVwuZx4J0MURCARisZhe6jUOW9IHgBcO6BIBMAWkD2AKSB/AFJA+gCkgfQBTQPoApoD0AUwB6QOYAtIHMAWkD2AKSB/AFJA+gCkgfQBTQPoApoD0AUwB6QOYAtIHMAWkD2AKSB/AFJA+gCkgfQBTQPoApoD0AUwB6QOYAtIHMAWkD2AKSB/AFJA+gCndZBOe+vr6NWvWMHQyduzYZcuWsRLPc+T333///fffySXr1q0bOnSoiSpZWVnffPMNtTwmJiYyMpLl+LoORLegtLSU+VcRExPzvK+DBT766CPkupKTk03YFxYWurm5Gf02dDrdMwv72QMNHqwpLy+fOHFifX09Uj537txDhw7R2+LgRQGkjy8NDQ0TJ04sLy9HymfNmnX48OFuvydfN788oD3kcvmUKVPu37+PlE+ZMiUxMRGHnVi7yRV6e3tnZWUZPbR169akpCRyyW+//da7d2+qpdEmb7dErVZHR0dnZmYi5RERESdPnrRoC7MXl24ifT6f/9JLLxk9RN1TcdCgQQEBAZ0fVBdFp9P985//vHTpElI+ZsyYs2fPCoXC5xLVs6ebSP/Z0NLS8uTJE4VC4eTk5OHhYWdnx9Bha2vr48eP1Wq1j4+Pk5MTK0F2yMqVK0+cOIEUhoWF/fHHH7S3ZHsRAel3TFVV1ffff3/69On8/HydTmcoHzRo0OTJk1euXNmnT5/26h48ePDw4cOGj9OnT//ggw84HM65c+f27duXmppK/N82fiNGjIiNjV2xYkWntrO3bNny/fffI4UjRoxITk62t7fvvPN2RZ5372qnExMTg1xyYWGhmXVbW1s3b95suu3L5/PXrFnT2tpq1MOmTZvIxsuXL29ubp47d2573oYOHVpWVsbkek306+/du5d6xiFDhtTX1zM54wsK9PC0S2Nj44QJE7Zv3256P2C1Wr1nz57x48dTe8epaLXa2bNnJyYmtmeQm5sbHh7+6NEjOhGb5MiRI6tXr0YK/f39U1NT8dxiHqRvHK1W+8Ybb1y/ft1M+xs3bsycObPDTbOPHDlCfb9EqKiomDt3LitbzxtITk6OjY0lKHsknz59WiwWs3iiFwiQvnG++eab1NRUpHDs2LHx8fFJSUk//vjjjBkzkKM3btxYv369abdKpVL/x+uvv37hwoWioqIrV64sXLgQMcvKyqK2yGlz8+bN119/XaPRUA8ZnbqDC8+7xdXp0GjrNzc3I/0tPB7v22+/RcxOnz6NdAXa2Ng8evSIbIO09fXs2rULcRUfH4/YDBgwgN4UGmpb3wRcLvfq1as0ztINgLu+EQ4fPtzY2EguWbt27TvvvIOYzZgx46uvviKXaDSaPXv2mHYeFRWl7+Qhs2LFitdee41cUlxcfPfuXcvithyCIOLi4gzPIqwA6RsBmfQrEok2btxo1HL58uU9e/Ykl5w/f96083fffddo+dtvv42U3Lp1y/B3bW1tmUkISjveKD179kQ67x8+fPif//zHnLrdDJA+CkEQyAj/6NGjnZ2djRpbW1tHRUWRSx4+fFhbW2vCf3h4uNHyUaNGITMl8/PzDX/Pnz+/r0kUCoXp6+JwOF5eXleuXKH+jL/++uv2poF0Y0D6KBKJRCaTkUsCAwNN2AcFBSEl1dXV7Rnb2dk5OjoaPeTo6Ii8YEil0g5itQSxWHz58uWBAwf+61//6tevH/mQVqtdsmSJ0ffgbgxIH4Xa8G1PrHocHByQEolE0p6x6Rkytra25I/IL5AJbm5uV65c0f+GBQLBrl27EIO8vLydO3eydboXApA+CnUeS0tLiwl7akvDxE/FtJqRXx3zOUJ6XFxcLl++PGjQIEPJzJkzJ06ciJjt2LGD3MTq9oD0UZycnEQiEbmkrKzMhD31qIeHR3vGra2tVVVV7R1CupXae8GwlPj4eOra3G+++cbGxoZcolarFy9eTJ6k1L2B6WsoPB4vMDAwJyfHUHL9+nWNRoMIxUBaWhr5o7e3t4+Pjwn/+gEmavm9e/e0Wi25ZODAgYa/N27cuGjRIhNuTTSlqE0yDocTEBDw7rvvfv311+TCzMzMPXv2UPteuyfPeVyh86ExpPXhhx8iVQ4dOmTU8vLly4jlokWLyAbUIa2JEycadbVu3TrE8tatWzSu1/xl6U1NTdQHVI8ePR4+fEjjvC8c0OAxwvz585GSDz74gDrA9Pjx49jYWKSwvW57AykpKQkJCUhhQUHBvn37yCVeXl4jR440N2JaODg4fPrpp0hhS0vL0qVLCfNGCV5oQPpGGD58+NSpU8kljY2N4eHh27dvLykpUavVlZWV+/fvDw4OfvLkCdns9ddfN0evy5cv37hxY11dHYfD0Wg0iYmJr776KvKOu3z58vaaWCwSGxsbEhKCFKalpf33v//t7FM/f573Y6fToTdfv7S01NJlU3379m1oaED8GJ3Do4fL5bq5uQkEAuqh3r17NzY20rteS/PwZGRkUJOOODg4VFRU0AvgRQHu+sbp06fP2bNnzV+41LNnz6SkJBcXF9Nm1tbWhpdXgiDq6+tbW1sRG6FQePjwYdODCSwSGhpKnTra3Ny8YsWKZxPA8wKk3y5jxozJyMgwpwEzevTorKws6rAuFSsrq+vXr//jH/9oz8DBweGPP/4YM2aMZbEy4/PPP6f2AiUlJR09evRZhvGMAembIigoKDMzMzEx8ZVXXrGyskKO8ni8sLCwEydOpKene3l5melTLBbfunVr06ZNyIiVjY3N3LlzCwoKxo8fz070ZuPh4WF0BtuqVav0LyTdEi6Bwbs8K0gkkuzs7JKSEoVC4ejo6OnpGRoa6u7ubrrW5s2bd+zYYfgoEAhUKpX+b6VSmZaWpp906ePj88orrzyzpAwAB4a0zMfFxSUyMpLFzMMikWjKlClseQMsBRo8AKaA9AFMAekDmALSBzAFpA9gCvTwdC6Ojo7kdev45DHu+kC/PoAp0OABMAWkD2AKSB/AFJA+gCkgfQBTQPoApoD0AUwB6QOYAtIHMOXZSb+tra22tlYikcD4MdAV6Nw5PPfv3z937lxycnJubq5B9FZWVr6+vuPGjYuKipo9e3anbhP7XPjf//6XkpJi+Ojk5LR//36ywYcfflhTU2P4OHbs2GXLltE4kVwuR/ImLF68+Nkv7X1R6aQkJ8XFxW+++SY1wQtC7969Dx482EkxPC9WrlxJvkYPDw/EoH///mSDmJgYeieirhmPj49nGn37aLXahISEVatWdd4pniWd0uA5ePBgUFDQ8ePHiY7aNo8fP16yZMmcOXPkcnlnRAKwxY0bN4KDg+Pi4kzvGfMCwb70N23aFBcXZ9EWHcePH580aRKem5l1fSoqKubPnx8eHk7OPt0NYFn633//PTWDqR6xWBwUFOTt7W306M2bN6n5jYGuQGRk5K+//vq8o2AfNl8x8/Ly3n//faTQzs5uw4YNCxcu9PX11ZeUl5fHx8fv2rUL2Vs8Pj5+6dKlw4cPZzGkrsnmzZvJu0iYk7btOdJd99hiU/pr1qwx5FfS079//0uXLvXt25dc6Ovr++mnn06fPj0qKqqpqclQThDE559/3r2T3ekxvUkE8GxgTfp37969cuUKucTW1jYlJQXRvYGwsLADBw7MnTuXXHj69Onm5maju4Do0Wq15eXlzc3NarVaIBC4urp6enryePSbbfqM4U1NTWKx2MvLq8MuKTL63YH0GzR4enpaVNdS6urqampq+Hy+r68vdbcv81EqlZWVlTKZTKfTiUQiDw8PV1dXFuMkI5fLa2pqZDKZu7u7WCzm8/kWVW9ra6usrNT/r21tbd3c3Nzc3NiMj62uIuomCzt27Oiw1pAhQ/TG7u7us2bN+vrrr/Xd/wjNzc1ffvllaGgoNSW3UCgMDw/fv3+/SqUyeoqtW7e+QiIxMVFfnpSUNG3aNPKogre396pVq6qqqjoMOyUlZerUqeRgfH19N2zYoM8M3mHn5ltvvUUOaefOne2dSCqV/vvf/yZ3hlpbW0+aNOnixYuEJZ2bpaWlH374ob+/P/U24eLiMn369DNnziBVkpOT9eEh64nd3d0NkVNrEQShVCp3794dGhpKvhfw+fzIyMiEhIS2tjbT361EItm1a1doaCh1HbOzs/OMGTMSExO1Wq1pJ+bAmvQNTXk9VlZW5mjo999/P3DggOmE93/++aeJjdkMDBgwID8/n1p9zpw5ZLMvv/yyqalp3rx57fmxs7O7cOFCe8EolUrEIRkvL68///yTrX79ixcvmrjPLVq0iLojnVHp792712gWf4TJkyc3NTUZav34448dVqGe7tq1a7179zZRJSgoKCsrq72v9+LFi+b8r/WberTnxEzYkf7jx4+R4F566SVWPOfk5CD7GZrAy8uLurkDotRt27a1t1+5AaFQWFxcTA2mtbV17Nixpuv26NEDyUtOT/pnzpzpcFcVai5yqhbj4+NNOyEzadIkQ0Ua0j916pQ5vzE7O7vU1FTqJV+9etWc6nr8/Pyo/2uLYEf6x48fRyKLi4tj7lar1RpaRGZCbTwg0jezobxgwQJqPGvXrrUoGD00pF9eXk5v51BEi0+ePDGa/sTEa4lh7zpLpV9YWGj+S4izs3NlZSU5VI1Gg3wtHA6nZ8+eo0ePDg8PR7Z317NkyRILxESBnX796upqpKS9t1uLOHv2bF5eHrkkOjr67t27KpWqra2tpKRky5YtSBVkK08q+v2fxWLx3r17y8vL1Wp1dnb2q6++ipidOXMG2UG2pKQE2WqTw+FMmDDhxo0bra2tTU1Nx48fZ+WqORzOpk2bpFIpucTe3n737t3V1dUajaagoMDMLU927dpF7nPjcrlbtmwpKyvTaDRKpTInJ2fWrFlIFcMX6OfnFxMTExMTg2wt06dPn5j/w9/f31AeGxuL7K0dFxdXWFiof1v95JNPyA8xqVSK7Ld35cqVkpISw0cPD4/MzMyKior09PTr16+XlJT89ddf5NNxOJyffvqJKjwLYPK7MfDxxx8jbvft28fc7c6dO8ViscHn6NGjqS9JyH5vfn5+iAG1aS4Wix88eEC2UalUVNXqM98boO4mO3fuXOR9q6amhurH0rt+XV0d8twXiUR37txBnHzxxRfU/yZy1581axZ5A4v169cjThQKBbJFAPVxjUQ7Z84cgsK1a9eQSDZu3IjYnDhxgmzA4/HI3/Bnn31m4jvRU1xczOPx+Hz+sGHDFi5cuHv3buTRYRHsSH/16tXIlSckJLDimSCI2tralJSUr7766vbt29Sj27dvJ5/X2dkZMaBKf+/evVQ/W7duRcyQt7EBAwaQjzo5ORnd6e3UqVOIH0ulf+TIEcTD1q1bqSfS6XTUjYmobX2dTldSUnLq1Klt27YZbRxPmDCB7GHWrFmmozUqfaR/z8PDo7W1lWqGPF0/+eQTw6Ft27aRD9nZ2R0+fJjaa1dcXKxWq6meacBOg4faZcbihByxWBwZGbl27VrqNpeFhYXIdrbUXdmoREdHUwvJW5PrIV+CRCIpLi4mH509e7bRnd6mTZvW4WZyprl9+zZSsnjxYqoZl8tdsGBBh964XG6/fv1mzpy5ZcsWJDCtVnv9+nXy9GmOeV8glevXr5M/RkZGGu3Ff+2118gf09PTDX8jT0u5XL5gwQJ3d/fo6Ojvvvvu3r17BEFwOBw/Pz+29lRlZ0iL+s/upJmYLS0tOTk52dnZt2/fTk9PLy8vRwyIjuaKCoVCchJMA9TXSnJbH9E9h8MJDQ016t/a2nr48OHI6J5FPHjwgPzR29vbx8fHqOVLL71kqfP6+vqsrKzs7OyMjIz09HTyaLqeDr9AKjKZ7OHDh+QSgUBw//59qiWyNuPvv/82/D116lSRSITcMWUy2alTp/QPUldXV/0aj+joaIY3l/8fDHMXHGPSr6ysZMWznsLCwqNHj164cCEnJ0er1Zqw7HBkt71vjdqtRhYB8tLJ4XA8PT3bO0WvXr1Mx2Aa5FysnCgtLe3EiROXLl1CNEqFxtA4dWTt4MGDBw8e7LBiTU2NXC7Xv404Ozvv3LlzzZo17Rk3NDScPHny5MmT77zzzhtvvLFly5aAgABLQyXDjvSp3VJIz0x7FBQUlJWVRUREtNehK5FIVq1aRW3+tkeH/7n2RglMLxajPsRMDMsjWyNaCnIuhie6d+9ebGzsnTt3zDw7DemTp+JZikKhMFzF6tWrVSrVpk2bTN/dNBrNr7/+evLkyf3798fFxdE+NTtt/VGjRiF7a2ZnZyNT2Yxy6NChqVOnuru7z5079/jx4zKZjHxUJpONHTuWqnsejzd06NDly5cfPXoUeT3t8D9Hbz2kra0tUmLiZYbhew5yLiYnys3Nffnll6m6F4lEo0ePXr9+/YULF6ZNm0Y+REP6TBrfyCWsX78+Nzd32bJlHW4m2draumzZsg77sk3Azl3f3t5+xIgRWVlZhhK5XH7u3Lk33njDRK22trbExEQOhyOTyY4dO3bs2DGBQHDr1i1Dx8X69evz8/PJVSZPnrx06dKIiAjDFLd9+/aRDTppDhn1TaCioqI9Y0adzZRz0T4RQRDz5s0jP0Osra3j4uLmzZsXFhZmeJj88MMP5Fo0vkDql/P++++/9dZb5tSl7jccFBR04MCBffv2Xb16NTk5OTU1VT8/hVqXIIgdO3ZQx2TMhLWZm2+99RZZ+hwOZ+vWrTNnzjRxS0hISEBeCRwdHYcOHar/WyaT/fzzz+SjsbGxhw4dQpwgtw0mszhNgPRscjicv/76y6ilTqfLzs5meK6LFy8aPjY0NJSXlyNTpPQgXzhCWlpaQUEBuSQhISEmJgYxY/4Fent729vbI09sGq/gZPh8/sSJE2WUGnUAAAWHSURBVCdOnMjhcOrr6/UDW2fOnCEPe3E4nOvXrxMEQe9+x5pQli5divz68/Pz33vvvfZ6DO7du7dhwwakcP78+YaG0/3795HRwSVLllD9IJ08nXTXd3V1RXo/z549i4Sn58KFCwxXr44aNQop0T8bqSC3BgTkF8jn8412hnb4BSIl1IY4j8dDhE7+6ZKJj4/fv39/Wlra06dPkUMKheKvv/46evToxx9/PG/evEuXLhkOubm5zZw5c9euXUVFRbNnzybXUqvV9PsSWRkd0GN0aeLMmTOpk+xOnTpFnZMoEonIkz3Pnz+PGBw7dgzx09TUhPhxdHREbJAhLX9/f6PBIz3THA4nLS2NbEAdzX377bcRJxKJhPp8YD6a6+joiAw/EwSBtPT0kIe01q1bhxytqalBnNy8eROxmTFjBmITGBhINpgyZQr12/vuu+8QP7/88gtiU1VVRX5ld3d3X716tf5QSUkJ8gMjT6Qjg4x8CYVCo2bmwKb0tVqt0SQw1tbWkZGR69at+/TTT1evXj1o0CCqDYfD+eijj8jeqIugBw8eTJ5VW15ePnr0aOq5kKjYkv7Dhw+pjYGFCxcaRuOvXbtm9NJoTF9buHAh1cnx48c1Gg1BEBKJZPPmzUZbJmTp7969Gzm6aNEi8syLW7duUXtOIyIikGCCg4PJBvb29leuXCktLT1+/PjNmzf1NlKpFHnmi0Sin3/+WafT6Q1qa2tffvll5Fzknwf1WbdhwwZkSLi0tBSZET158mSj/01zYDkPj9FJLOYwZswYZH6OVqslT+DR4+Pjs379+i+++GLBggXtbcmGDNezJX2CIFatWmX0jG5ubiZWltGQfmlpqVGHAoHA09MT6UwjQ5a+0f7l4ODgbdu2bdu2LSoqyqiHIUOGIMFQp7gZ+Pjjjw1mSJotPX369ImOjo6MjKT2w4aEhJB/h+np6dQfs4+Pz4IFCzZu3Lh27drJkydTe8CNTn42E/ZTUNXU1CD3iQ4ZNWqUVCqluqLOlKQiEokQKSCSZVH6SqVyxIgRpuPh8Xj//ve/ySX05usnJiZ2+MYZGhoaGRlJLkHm8MyYMcO0Bw6Hg/zGhEJhS0sL2Qn16WGAPNdNp9NRV+q1h7u7e0lJCXLJX331lZnV9bz//vtG/5Vm0inZ1xQKxdq1a81ZdmBlZbVq1SqFQmHUj06nM7GcisPh+Pr65uTkICs21q5dS3bCovQJgpBKpdRWlgGBQPDDDz8gnT+0V2kdOXLExHhWaGhoXV0dIm5E+vX19abTPYwbN+7x48fI8/PcuXNkJw0NDe0tFouKiiJbarXa9957r8NfrJ+fX0FBgdFLTkhIMGfSP4/HW79+vaE1RY/OSjxIEERpaem7777b3mC7k5PTihUr8vLyTDvR6XR79uyhNkldXV23bNkik8kIym3J1dVVqVQaPLArfYIg2tradu/ejYTE4/EmTZqkn2XFlvQJgigsLJw8eTIiJi8vr88++0zfPjQtfYIgmpubV65cSR3DHjhw4E8//aRvckyfPp18iPoim5eXR52zZG1tbTTyzMzM6dOnGx019/X13b59O/JUQaioqHjvvffaW6YoEAjmzJljdA6vpTyLfXMLCgoePHjw9OlTqVRqZ2fn6uo6dOjQgIAA87uQNRpNVlZWQUFBU1OTi4uLn58fdfz4GaPT6W7evPngwQOZTObj4xMWFmZ0Vhwr1NTUpKenV1VV2draDhgwYPTo0ZZeu0wmu3HjRmlpqUqlEovFw4YNGzx4sKVh5OfnZ2Zm6t9oPT09w8LCTCwla2lpuX37dlVVVV1dHY/Hc3NzGzZsWFBQkJm9zzqdrqioKD8/v66uTqFQCIVCJyengQMHDhs2zPxFjKaBLaMBTIGtJQBM+X+JZJATxufCngAAAABJRU5ErkJggg==;rotation=0;" vertex="1" parent="1">
          <mxGeometry x="668.03" y="517.02" width="39.99" height="45.34" as="geometry" />
        </mxCell>
        <mxCell id="lgUWCxdkZP19OhpzdEhJ-1" value="&lt;div style=&quot;line-height: 80%;&quot;&gt;&lt;font style=&quot;font-size: 8px; line-height: 80%;&quot;&gt;RAG Validation&lt;/font&gt;&lt;/div&gt;" style="rounded=0;whiteSpace=wrap;html=1;fontStyle=1" vertex="1" parent="1">
          <mxGeometry x="285.5" y="490" width="49" height="26.66" as="geometry" />
        </mxCell>
        <mxCell id="lgUWCxdkZP19OhpzdEhJ-6" style="edgeStyle=orthogonalEdgeStyle;rounded=0;orthogonalLoop=1;jettySize=auto;html=1;exitX=0.5;exitY=0;exitDx=0;exitDy=0;entryX=0.5;entryY=1;entryDx=0;entryDy=0;strokeColor=light-dark(#3CD2D8,#EDEDED);dashed=1;" edge="1" parent="1" source="lgUWCxdkZP19OhpzdEhJ-1" target="LtpZXM9xmSWKar8uXynZ-14">
          <mxGeometry relative="1" as="geometry">
            <mxPoint x="310" y="462.43000000000006" as="sourcePoint" />
          </mxGeometry>
        </mxCell>
      </root>
    </mxGraphModel>
  </diagram>
</mxfile>
